<svg xmlns="http://www.w3.org/2000/svg" xmlns:xlink="http://www.w3.org/1999/xlink" version="1.1" id="Layer_1" x="0px" y="0px" width="100%" viewBox="0 0 256 256" enable-background="new 0 0 256 256" xml:space="preserve">
<path fill="#00446F" opacity="1.000000" stroke="none" d=" M242.000000,257.000000   C226.312439,257.000000 210.624878,257.000000 194.456940,256.586731   C190.443008,241.629288 192.236572,225.382599 179.063461,212.936417   C183.127335,213.130112 185.907318,213.298065 188.689850,213.388824   C198.397949,213.705551 203.802109,218.992157 206.318954,228.085495   C207.958801,234.010223 210.119202,239.792770 212.109467,245.617447   C212.684509,247.300354 213.477890,248.908630 214.171188,250.551117   C214.842377,250.366714 215.513565,250.182312 216.184753,249.997910   C214.589371,239.550095 213.634766,228.950485 211.206802,218.699860   C209.055893,209.618912 204.477737,206.994370 195.187363,206.915909   C192.945831,206.896988 190.703979,206.913101 188.462280,206.913101   C198.117493,200.544922 208.636688,198.491348 219.738327,198.988007   C230.568008,199.472504 238.383667,205.116272 244.477310,214.522690   C244.697098,200.609329 232.743042,185.788559 215.648926,189.523346   C209.335922,190.902649 203.213120,193.152405 197.001617,195.002441   C196.999664,194.999741 196.991562,194.993576 197.031555,194.652496   C198.545105,192.525467 199.944229,190.671402 201.504913,188.965149   C209.094818,180.667267 215.585144,171.704544 219.407394,160.972885   C222.625122,151.938538 224.492050,140.473541 223.086594,135.031036   C217.148239,157.270599 207.646332,177.012146 191.444916,194.309570   C196.569534,167.633209 201.472778,142.109253 206.376007,116.585289   C205.807358,116.442566 205.238693,116.299843 204.670029,116.157120   C195.157104,147.845215 185.644196,179.533325 176.131271,211.221420   C175.536102,211.069244 174.940918,210.917053 174.345734,210.764877   C175.982712,190.184235 177.619690,169.603607 179.256653,149.022964   C178.933228,149.000015 178.609787,148.977081 178.286346,148.954132   C174.508072,168.633179 170.729782,188.312225 166.646561,209.579544   C163.212570,204.291489 160.681763,200.318741 158.073425,196.397552   C155.087540,191.908768 152.032761,187.465790 149.025330,182.574768   C148.771469,179.440903 148.500183,176.735184 148.227768,173.558929   C148.497208,161.277283 148.727982,149.465103 149.050919,137.655441   C149.310776,128.152817 151.263779,126.014511 161.090973,124.408035   C160.716156,125.485153 160.358368,126.242653 159.833618,127.129395   C159.833496,127.363503 160.000336,127.468384 160.167175,127.573265   C160.068008,127.364197 159.968842,127.155121 160.196625,127.187119   C161.756271,124.985619 162.988953,122.543030 164.561234,120.035538   C172.311951,114.019333 179.723083,108.068047 187.327805,101.984756   C187.769104,101.654617 187.969223,101.416504 188.247284,101.045242   C188.179291,100.905937 187.985794,100.859795 187.594910,100.936371   C187.132202,101.227943 186.899048,101.433327 186.356689,101.748528   C178.597076,106.936172 171.178818,112.050545 163.525879,116.948273   C162.162170,115.192131 161.033173,113.652634 160.137238,111.863434   C167.412094,105.344505 174.249542,98.824333 181.553192,92.876656   C188.851257,86.933517 196.983185,82.512604 207.298096,82.982788   C208.764862,83.013634 209.831543,83.038467 211.150894,83.292267   C214.935120,86.012169 218.466690,88.503098 222.174683,91.278549   C225.177322,95.008919 228.003510,98.454765 230.887665,102.272614   C249.715027,143.014404 252.741592,185.646744 249.117188,229.585663   C249.051956,230.655792 249.008209,231.372162 248.945419,232.327515   C248.911530,232.887360 248.932449,233.205856 248.758606,233.854904   C246.352097,241.791855 244.176041,249.395935 242.000000,257.000000  z"/>
<path fill="#001B2E" opacity="1.000000" stroke="none" d=" M149.007919,183.002914   C152.032761,187.465790 155.087540,191.908768 158.073425,196.397552   C160.681763,200.318741 163.212570,204.291489 166.646561,209.579544   C170.729782,188.312225 174.508072,168.633179 178.286346,148.954132   C178.609787,148.977081 178.933228,149.000015 179.256653,149.022964   C177.619690,169.603607 175.982712,190.184235 174.345734,210.764877   C174.940918,210.917053 175.536102,211.069244 176.131271,211.221420   C185.644196,179.533325 195.157104,147.845215 204.670029,116.157120   C205.238693,116.299843 205.807358,116.442566 206.376007,116.585289   C201.472778,142.109253 196.569534,167.633209 191.444916,194.309570   C207.646332,177.012146 217.148239,157.270599 223.086594,135.031036   C224.492050,140.473541 222.625122,151.938538 219.407394,160.972885   C215.585144,171.704544 209.094818,180.667267 201.504913,188.965149   C199.944229,190.671402 198.545105,192.525467 196.957031,194.673309   C196.842545,195.035187 196.823441,195.227203 196.823441,195.227203   C196.823441,195.227203 197.003571,195.005157 197.003571,195.005157   C203.213120,193.152405 209.335922,190.902649 215.648926,189.523346   C232.743042,185.788559 244.697098,200.609329 244.477310,214.522690   C238.383667,205.116272 230.568008,199.472504 219.738327,198.988007   C208.636688,198.491348 198.117493,200.544922 188.462280,206.913101   C190.703979,206.913101 192.945831,206.896988 195.187363,206.915909   C204.477737,206.994370 209.055893,209.618912 211.206802,218.699860   C213.634766,228.950485 214.589371,239.550095 216.184753,249.997910   C215.513565,250.182312 214.842377,250.366714 214.171188,250.551117   C213.477890,248.908630 212.684509,247.300354 212.109467,245.617447   C210.119202,239.792770 207.958801,234.010223 206.318954,228.085495   C203.802109,218.992157 198.397949,213.705551 188.689850,213.388824   C185.907318,213.298065 183.127335,213.130112 179.063461,212.936417   C192.236572,225.382599 190.443008,241.629288 193.988281,256.586731   C190.638718,257.000000 187.277420,257.000000 183.483063,256.531860   C182.312332,245.000580 181.766464,233.918503 180.680481,222.889633   C180.454468,220.594498 178.628769,217.073914 176.849777,216.573669   C171.486557,215.065567 165.795639,214.609772 160.199020,214.164612   C159.343079,214.096527 157.436295,216.302063 157.491486,217.380478   C158.167770,230.595169 159.119537,243.795761 160.000000,257.000000   C152.645752,257.000000 145.291504,257.000000 137.466309,256.538513   C136.995361,252.342987 136.995361,248.608963 136.995361,244.250504   C131.522552,246.654373 127.088661,248.838562 122.481667,250.559326   C117.818832,252.300934 113.008163,253.664902 108.221069,255.052170   C95.543587,258.726044 86.676613,254.239426 82.171349,241.896545   C81.292732,239.489395 80.631943,237.002731 79.870689,234.552750   C79.570679,234.617371 79.270676,234.681992 78.970673,234.746613   C79.313782,242.164398 79.656891,249.582199 80.000000,257.000000   C64.645775,257.000000 49.291546,257.000000 33.459442,256.543854   C34.240479,242.544189 35.499390,229.000687 36.758301,215.457169   C30.548008,228.686493 28.367529,242.866684 26.000000,257.000000   C25.555555,257.000000 25.111111,257.000000 24.345181,256.531647   C24.378695,246.152817 24.372984,236.212814 25.181698,226.339493   C26.151892,214.494675 26.461237,202.093079 39.566490,195.542999   C38.206131,193.822540 37.094662,192.416870 35.815613,190.723740   C31.718565,185.758057 27.856144,181.021118 23.830921,176.426804   C21.864159,174.181992 22.697683,172.975784 25.273445,172.153656   C39.084572,178.144836 52.585285,183.954163 66.318924,189.999207   C67.386803,190.475662 68.221748,190.716400 69.040695,190.981827   C69.024696,191.006516 69.033928,190.949509 69.034439,191.325409   C69.720520,193.465408 70.406082,195.229507 71.384552,197.148758   C76.824905,201.643723 79.785172,209.033249 87.672234,209.061661   C85.942879,209.509750 84.582024,209.935455 84.055397,210.100189   C82.258484,217.021729 86.407433,220.213608 90.622345,223.490936   C92.125748,224.659897 93.059517,226.543167 94.515549,227.795502   C96.905647,229.851196 99.288605,232.115906 102.075638,233.462250   C106.233597,235.470901 110.707047,236.858887 115.114670,238.302017   C116.840393,238.867020 118.762306,239.149780 120.575539,239.077332   C129.998901,238.700867 139.416336,238.174057 148.834961,237.683136   C150.089233,237.617752 151.338577,237.458435 153.085907,237.296738   C153.085907,233.624023 153.085907,230.317642 153.197296,226.633957   C153.308685,222.977020 153.308685,219.697403 153.308685,216.220490   C151.254791,216.220490 149.713654,216.220490 148.515717,216.220490   C145.273346,210.914612 142.254181,205.854965 136.182373,204.014893   C129.820221,202.086838 123.384880,200.400284 116.639862,198.512543   C115.197151,203.716263 118.449898,205.619217 121.925163,207.314270   C125.232430,208.927383 128.593964,210.429230 133.019653,212.485504   C129.648331,213.395966 127.756027,214.192444 125.805069,214.380539   C119.875000,214.952240 113.922272,215.288879 107.663101,215.533661   C103.258278,213.829437 99.168716,212.308594 95.010880,210.465637   C93.662361,208.194489 92.382118,206.245438 91.033813,203.982208   C90.643700,203.428787 90.321655,203.189545 89.994911,202.980865   C89.990219,203.011429 90.051880,203.006897 90.090836,202.694489   C89.756149,201.904770 89.382523,201.427475 89.000183,200.978271   C88.991463,201.006393 89.050308,201.004608 88.965668,200.750000   C88.589569,200.313232 88.298103,200.131073 88.001846,199.977203   C87.997055,200.005493 88.052551,199.990906 88.018204,199.673309   C87.328415,198.554199 86.672966,197.752670 86.008362,196.976501   C85.999199,197.001877 86.050392,196.984848 85.966881,196.661407   C85.906067,194.604263 85.928772,192.870529 86.222641,190.900543   C100.804825,185.397064 115.115845,180.129837 129.775803,174.826843   C130.754044,174.508972 131.383347,174.226883 132.075867,173.847656   C132.139069,173.750504 132.351746,173.842697 132.713684,173.808563   C133.726486,173.479294 134.377365,173.184174 135.071472,172.806122   C135.114716,172.723190 135.285156,172.800217 135.649811,172.775177   C136.665207,172.447540 137.315948,172.144943 137.955536,171.875076   C137.944382,171.907822 137.909821,171.847855 138.286865,171.887421   C140.157196,173.011978 141.899048,173.878067 143.089447,175.229782   C145.236313,177.667557 147.053207,180.395920 149.007919,183.002914  M75.019638,213.093597   C73.883156,211.729370 72.951706,209.508179 71.568024,209.177124   C68.576202,208.461304 65.349518,208.550674 62.224434,208.608597   C57.241093,208.700974 52.262253,209.036133 47.281509,209.268631   C47.259773,208.771393 47.238033,208.274139 47.216297,207.776901   C50.935230,207.603760 54.670948,207.579529 58.362495,207.163422   C59.419270,207.044281 60.348175,205.790802 61.335709,205.057449   C60.514702,204.133850 59.841965,202.642151 58.847637,202.382645   C53.917973,201.096039 48.945839,199.800812 43.905849,199.160583   C39.615589,198.615585 38.133747,200.909714 39.173794,204.912842   C39.761990,207.176788 39.804585,209.577271 40.215351,211.894577   C40.440331,213.163788 40.664806,214.548538 41.329601,215.603989   C43.972466,219.799850 46.656052,223.985046 49.610462,227.961792   C50.683685,229.406418 52.410957,230.858490 54.091953,231.265305   C59.044884,232.463913 66.601730,228.608276 69.462303,223.793091   C65.018333,224.308334 60.656185,224.814102 56.294033,225.319870   C56.280769,225.101440 56.267502,224.883011 56.254234,224.664581   C62.823708,223.106400 69.393181,221.548233 76.562134,219.742615   C79.718628,216.757584 75.548790,215.799591 75.019638,213.093597  M37.478821,212.655624   C37.478821,212.655624 37.576763,212.458511 37.576763,212.458511   C37.576763,212.458511 37.378231,212.495621 37.478821,212.655624  M190.391663,195.438095   C190.391663,195.438095 190.546326,195.530518 190.546326,195.530518   C190.546326,195.530518 190.525879,195.338409 190.391663,195.438095  z"/>
<path fill="#003254" opacity="1.000000" stroke="none" d=" M249.138687,229.231873   C252.741592,185.646744 249.715027,143.014404 230.919830,101.816818   C231.312225,90.031593 231.595093,79.066971 232.176956,68.118248   C233.366211,45.740974 234.716202,23.372246 236.000000,1.000000   C242.988663,1.000000 249.977310,1.000000 256.970398,1.000001   C256.974823,86.333336 256.974823,171.666672 256.974823,257.000000   C253.621735,257.000000 250.293823,257.000000 246.552246,256.605011   C247.088760,248.647354 248.038925,241.084686 248.989090,233.522018   C248.932449,233.205856 248.911530,232.887360 249.121216,232.110260   C249.256943,230.846634 249.197815,230.039246 249.138687,229.231873  z"/>
<path fill="#003255" opacity="1.000000" stroke="none" d=" M24.963032,171.971817   C22.697683,172.975784 21.864159,174.181992 23.830921,176.426804   C27.856144,181.021118 31.718565,185.758057 35.498337,190.825226   C29.463129,196.759705 25.801434,203.361237 24.782478,211.539185   C24.504604,213.769348 22.455833,217.580673 21.303101,217.549835   C18.285589,217.469177 13.239912,221.115326 12.297898,214.472382   C12.248723,214.125595 11.301208,213.621185 10.815112,213.665359   C5.838161,214.117645 6.896434,211.390579 7.675884,208.307800   C8.897019,203.478134 11.580496,201.433228 16.652939,201.827194   C18.216192,201.948624 19.917048,200.298447 21.554895,199.459457   C20.155897,198.301834 18.926992,196.545258 17.328194,196.091248   C10.740410,194.220474 10.463776,193.611557 11.242714,186.750198   C12.102850,179.173569 12.382653,171.531036 12.935217,163.474609   C13.996280,144.309265 15.026878,125.585938 16.082209,106.864006   C16.754625,94.935097 17.487932,83.009590 18.151194,71.080177   C19.449936,47.720997 20.718781,24.360155 22.000000,1.000000   C27.022093,1.000000 32.044186,1.000000 37.534805,1.462033   C37.620396,10.899186 37.344791,19.880432 36.833096,28.848206   C35.611427,50.258636 34.301449,71.664139 32.980988,93.068787   C32.284878,104.352707 32.189842,115.732048 30.569408,126.886124   C28.456827,141.427856 31.863234,153.245438 43.941566,162.473068   C43.584805,164.471481 43.252567,166.068268 42.546425,167.530472   C36.411076,164.130615 31.406420,165.137039 27.059916,170.034912   C26.431450,170.743118 25.665409,171.329208 24.963032,171.971817  z"/>
<path fill="#004E80" opacity="1.000000" stroke="none" d=" M21.531088,1.000000   C20.718781,24.360155 19.449936,47.720997 18.151194,71.080177   C17.487932,83.009590 16.754625,94.935097 16.082209,106.864006   C15.026878,125.585938 13.996280,144.309265 12.506695,163.492981   C8.372123,164.302643 4.686061,164.651321 1.000000,165.000000   C1.000000,110.333305 1.000000,55.666618 1.000000,1.000000   C7.760482,1.000000 14.411329,1.000000 21.531088,1.000000  z"/>
<path fill="#004E80" opacity="1.000000" stroke="none" d=" M43.966095,162.071457   C31.863234,153.245438 28.456827,141.427856 30.569408,126.886124   C32.189842,115.732048 32.284878,104.352707 32.980988,93.068787   C34.301449,71.664139 35.611427,50.258636 36.833096,28.848206   C37.344791,19.880432 37.620396,10.899186 38.001667,1.462033   C43.354931,1.000000 48.709858,1.000000 54.531883,1.452927   C54.307629,18.541199 53.616280,35.176544 52.685051,51.984810   C50.831051,53.261120 49.908230,54.440861 52.019981,56.415615   C51.008743,77.401634 49.983742,97.927513 49.006737,118.455673   C48.596878,127.067329 48.685364,135.724915 47.798851,144.284088   C47.177700,150.281204 45.288815,156.147003 43.966095,162.071457  z"/>
<path fill="#004F81" opacity="1.000000" stroke="none" d=" M210.898224,83.063293   C209.831543,83.038467 208.764862,83.013634 207.246780,82.649170   C203.247543,75.557121 196.846786,73.415443 190.026855,71.592270   C187.678391,67.139297 184.160049,64.821655 179.576630,63.621162   C177.324738,63.031345 175.351501,61.377525 173.620193,60.148254   C181.310211,56.719982 188.887238,53.794342 195.856323,49.806343   C199.888046,47.499237 202.613083,43.153618 201.539642,37.976635   C200.483521,32.883255 196.277817,30.836859 191.713730,30.033653   C183.409164,28.572180 174.999664,27.698484 166.709030,26.171865   C164.412933,25.749071 162.381653,23.888319 160.201645,22.315098   C159.584641,20.221132 159.129242,18.438368 158.380310,16.788879   C155.978653,11.499387 153.468369,6.259207 151.000000,0.999999   C168.687561,1.000000 186.375122,1.000000 204.533432,1.437737   C205.738358,13.106733 206.400421,24.343285 207.224075,35.567982   C208.386124,51.404350 209.667740,67.231949 210.898224,83.063293  z"/>
<path fill="#003F68" opacity="1.000000" stroke="none" d=" M1.000000,165.468658   C4.686061,164.651321 8.372123,164.302643 12.486705,163.935577   C12.382653,171.531036 12.102850,179.173569 11.242714,186.750198   C10.463776,193.611557 10.740410,194.220474 17.328194,196.091248   C18.926992,196.545258 20.155897,198.301834 21.554895,199.459457   C19.917048,200.298447 18.216192,201.948624 16.652939,201.827194   C11.580496,201.433228 8.897019,203.478134 7.675884,208.307800   C6.896434,211.390579 5.838161,214.117645 10.815112,213.665359   C11.301208,213.621185 12.248723,214.125595 12.297898,214.472382   C13.239912,221.115326 18.285589,217.469177 21.303101,217.549835   C22.455833,217.580673 24.504604,213.769348 24.782478,211.539185   C25.801434,203.361237 29.463129,196.759705 35.665920,191.112671   C37.094662,192.416870 38.206131,193.822540 39.566490,195.542999   C26.461237,202.093079 26.151892,214.494675 25.181698,226.339493   C24.372984,236.212814 24.378695,246.152817 24.011848,256.531647   C16.362616,257.000000 8.725230,257.000000 1.000000,257.000000   C1.000000,226.645828 1.000000,196.291565 1.000000,165.468658  z"/>
<path fill="#005D96" opacity="1.000000" stroke="none" d=" M211.150894,83.292267   C209.667740,67.231949 208.386124,51.404350 207.224075,35.567982   C206.400421,24.343285 205.738358,13.106733 205.002090,1.437737   C210.688034,1.000000 216.376083,1.000000 222.526764,1.468635   C222.659012,31.622858 222.328629,61.308445 221.998245,90.994034   C218.466690,88.503098 214.935120,86.012169 211.150894,83.292267  z"/>
<path fill="#004C7E" opacity="1.000000" stroke="none" d=" M222.174683,91.278549   C222.328629,61.308445 222.659012,31.622858 222.994690,1.468635   C227.024551,1.000000 231.049088,1.000000 235.536835,1.000000   C234.716202,23.372246 233.366211,45.740974 232.176956,68.118248   C231.595093,79.066971 231.312225,90.031593 230.861877,101.444809   C228.003510,98.454765 225.177322,95.008919 222.174683,91.278549  z"/>
<path fill="#003152" opacity="1.000000" stroke="none" d=" M150.531342,0.999999   C153.468369,6.259207 155.978653,11.499387 158.380310,16.788879   C159.129242,18.438368 159.584641,20.221132 159.841537,22.252266   C150.315552,18.354963 140.670715,16.879509 130.572693,16.913519   C117.734497,16.956760 105.782173,20.366377 94.103806,24.678442   C98.110474,16.551636 102.055237,8.775819 106.000000,1.000000   C120.687561,1.000000 135.375122,1.000000 150.531342,0.999999  z"/>
<path fill="#00446F" opacity="1.000000" stroke="none" d=" M160.468628,257.000000   C159.119537,243.795761 158.167770,230.595169 157.491486,217.380478   C157.436295,216.302063 159.343079,214.096527 160.199020,214.164612   C165.795639,214.609772 171.486557,215.065567 176.849777,216.573669   C178.628769,217.073914 180.454468,220.594498 180.680481,222.889633   C181.766464,233.918503 182.312332,245.000580 183.024994,256.531860   C175.645752,257.000000 168.291504,257.000000 160.468628,257.000000  z"/>
<path fill="#003F67" opacity="1.000000" stroke="none" d=" M52.924934,51.811890   C53.616280,35.176544 54.307629,18.541199 54.999489,1.452927   C61.354397,1.000000 67.708794,1.000000 74.537262,1.462064   C74.026718,15.250997 73.042107,28.577866 71.754242,42.071785   C69.952888,43.462833 68.454788,44.686832 66.604881,46.006817   C61.810360,48.005833 57.367649,49.908863 52.924934,51.811890  z"/>
<path fill="#004E80" opacity="1.000000" stroke="none" d=" M72.057495,41.904736   C73.042107,28.577866 74.026718,15.250997 75.005661,1.462064   C85.020897,1.000000 95.041786,1.000000 105.531342,1.000000   C102.055237,8.775819 98.110474,16.551636 93.917610,24.966358   C93.051491,27.078262 92.433472,28.551266 91.545288,30.205477   C84.869247,34.226036 78.463371,38.065384 72.057495,41.904736  z"/>
<path fill="#003153" opacity="1.000000" stroke="none" d=" M80.468658,257.000000   C79.656891,249.582199 79.313782,242.164398 78.970673,234.746613   C79.270676,234.681992 79.570679,234.617371 79.870689,234.552750   C80.631943,237.002731 81.292732,239.489395 82.171349,241.896545   C86.676613,254.239426 95.543587,258.726044 108.221069,255.052170   C113.008163,253.664902 117.818832,252.300934 122.481667,250.559326   C127.088661,248.838562 131.522552,246.654373 136.995361,244.250504   C136.995361,248.608963 136.995361,252.342987 136.997681,256.538513   C118.312439,257.000000 99.624878,257.000000 80.468658,257.000000  z"/>
<path fill="#00416B" opacity="1.000000" stroke="none" d=" M26.437500,257.000000   C28.367529,242.866684 30.548008,228.686493 36.758301,215.457169   C35.499390,229.000687 34.240479,242.544189 32.990784,256.543854   C30.958334,257.000000 28.916666,257.000000 26.437500,257.000000  z"/>
<path fill="#001B2E" opacity="1.000000" stroke="none" d=" M248.758606,233.854904   C248.038925,241.084686 247.088760,248.647354 246.069305,256.605011   C244.933334,257.000000 243.866653,257.000000 242.399994,257.000000   C244.176041,249.395935 246.352097,241.791855 248.758606,233.854904  z"/>
<path fill="#001B2E" opacity="1.000000" stroke="none" d=" M161.108002,124.088432   C151.263779,126.014511 149.310776,128.152817 149.050919,137.655441   C148.727982,149.465103 148.497208,161.277283 147.872620,173.447021   C145.301254,172.847794 143.083908,171.889938 140.926910,170.597382   C140.943405,169.585297 140.899536,168.907913 140.889801,167.790619   C141.425980,158.828522 141.927994,150.306335 142.429993,141.784164   C142.062653,141.739243 141.695312,141.694321 141.327972,141.649399   C137.161591,148.770203 132.995209,155.891006 128.562027,163.096375   C127.850761,163.516586 127.406288,163.852234 126.922348,164.244476   C126.882889,164.301056 126.764221,164.230667 126.393860,164.240173   C125.346687,164.512604 124.669876,164.775513 123.906425,165.137878   C123.819778,165.237320 123.577583,165.132812 123.234283,165.160736   C122.262566,165.441406 121.634163,165.694153 120.695534,166.104156   C119.038528,166.546890 117.691734,166.832352 115.978539,167.117233   C114.728889,167.462784 113.845642,167.808914 112.918625,168.221207   C112.874847,168.287369 112.737343,168.208221 112.366913,168.226501   C111.325348,168.524567 110.654221,168.804352 109.929993,169.178223   C109.876907,169.272324 109.683990,169.174957 109.321762,169.200104   C108.302757,169.502960 107.645973,169.780670 106.925095,170.156799   C106.861000,170.255188 106.647194,170.157990 106.292046,170.184586   C105.290230,170.479477 104.643562,170.747772 103.903770,171.115463   C103.810638,171.214859 103.549416,171.137558 103.207169,171.167984   C102.243202,171.463806 101.621498,171.729187 100.897522,172.094666   C100.795258,172.194763 100.514526,172.139069 100.177048,172.170731   C99.231766,172.476181 98.623978,172.749985 98.009476,173.011276   C98.002754,172.998779 98.023819,173.021729 97.651772,173.055374   C96.374138,173.508514 95.468559,173.928009 94.478256,174.388123   C94.393532,174.428757 94.301720,174.264786 94.243546,173.811279   C94.115494,169.258911 94.045631,165.160034 93.975616,160.729065   C93.756660,159.596191 93.537842,158.795410 93.319031,157.994644   C93.071922,158.001480 92.824814,158.008316 92.577705,158.015152   C92.384369,159.007614 92.191032,160.000076 91.992516,161.377899   C91.630432,163.508118 91.273529,165.252960 90.553581,166.918930   C85.445839,165.893646 80.701134,164.947266 75.946121,163.581619   C75.979950,161.765457 76.024109,160.368530 76.146927,158.867523   C76.332642,158.505310 76.294098,158.266022 76.091782,157.576721   C76.393959,151.065308 76.714317,145.022720 77.203125,138.764587   C77.287376,137.720184 77.203178,136.891342 77.109024,135.638245   C78.085297,129.467712 79.071533,123.721451 80.138580,117.873428   C80.334114,117.518677 80.303810,117.279686 80.186287,116.695084   C82.122467,112.540489 84.000854,108.745529 86.216537,104.975906   C87.002785,105.036415 87.451729,105.071594 87.993988,105.372131   C88.420807,106.083275 88.754311,106.529068 89.331703,107.125481   C90.094383,108.071609 90.613174,108.867119 91.123863,110.163422   C91.130898,111.333290 91.146034,112.002350 91.194489,113.052628   C90.727066,116.288429 90.226318,119.143013 89.429695,122.173828   C87.217842,125.499359 87.540253,128.117050 91.045059,130.325577   C92.127258,132.589600 93.115356,134.529297 94.220551,136.743240   C94.560081,137.344376 94.782501,137.671295 95.002304,137.999100   C94.999695,138.000000 95.003487,137.993866 95.062302,138.269348   C95.399376,139.027176 95.677643,139.509537 96.198051,140.309479   C96.599442,142.770935 96.758682,144.914795 96.689789,147.226715   C95.813538,148.304581 95.165421,149.214371 94.259293,150.299774   C93.729828,150.791351 93.458374,151.107300 93.196747,151.328125   C93.206566,151.232986 93.395782,151.260956 93.148773,151.378387   C92.629066,151.733276 92.356361,151.970703 92.085754,152.463806   C92.323174,153.118896 92.558495,153.518311 93.134735,153.915375   C94.314903,153.624313 95.154167,153.335587 96.172768,152.928650   C96.352112,152.810471 96.762222,152.682648 96.762222,152.682648   C96.762222,152.682648 97.169373,152.819595 97.486130,152.712036   C98.185143,152.381851 98.567390,152.159241 99.135216,151.662735   C101.178940,150.241928 103.037086,149.095032 105.209854,148.068207   C106.083717,148.856033 106.642967,149.523788 107.168785,150.136108   C107.135361,150.080673 107.248306,150.017365 107.032272,150.267792   C106.590103,150.895111 106.363976,151.272018 106.132019,151.780487   C106.126190,151.912033 105.877670,151.999191 105.561172,152.090057   C104.709557,153.141190 104.174438,154.101440 103.639313,155.061707   C105.091606,154.723145 106.543892,154.384567 108.283943,153.863968   C111.989464,150.427505 115.407219,147.173050 119.038368,143.721893   C119.483978,143.001663 119.716194,142.478119 119.974205,141.977295   C120.000000,142.000000 119.946976,141.956772 120.228531,141.841385   C121.282692,141.484573 122.055298,141.243164 122.886169,141.365051   C123.007881,142.949722 123.071335,144.171082 123.179550,145.742996   C123.548927,146.702332 123.873543,147.311096 124.459503,148.060104   C125.507973,149.066406 126.295105,149.932480 127.348289,151.030762   C129.306091,151.399185 130.997833,151.535446 132.689590,151.671707   C132.713608,151.314240 132.737640,150.956772 132.761658,150.599319   C131.383377,149.776978 130.005096,148.954651 128.360931,147.826050   C128.412048,144.678009 128.729034,141.836258 129.223511,138.778702   C129.593597,138.045181 129.786224,137.527435 129.976257,136.998337   C129.973694,136.986969 129.992493,136.973175 130.179337,136.763153   C130.568039,136.035309 130.769913,135.517471 130.975403,134.992432   C130.979034,134.985245 130.983704,134.969681 131.171448,134.764160   C131.564636,134.048782 131.770111,133.538925 131.963272,133.004883   C131.950974,132.980728 132.002441,132.963684 132.177490,132.753510   C132.519684,132.219727 132.686829,131.896133 132.875977,131.316406   C133.187927,130.671967 133.477890,130.283661 133.986145,129.734467   C134.470123,129.108536 134.735840,128.643463 135.254517,128.044647   C135.724670,127.603691 135.941833,127.296509 136.311279,126.863716   C136.658600,126.559975 136.834015,126.364235 137.197311,126.075409   C137.404831,125.999931 137.841324,125.932762 138.127777,126.023918   C139.561325,125.018188 140.708389,123.921303 141.864532,122.867683   C141.873611,122.910950 141.786316,122.924973 142.005371,122.731323   C142.469391,122.020058 142.714355,121.502449 142.972778,120.985641   C142.986267,120.986435 142.971054,120.963600 143.156097,120.731964   C143.522232,120.147263 143.703308,119.794197 143.904602,119.162849   C144.298477,118.254524 144.672134,117.624474 145.223190,116.780281   C145.594223,116.051834 145.787857,115.537529 145.970917,115.005463   C145.960358,114.987701 145.998154,114.970978 146.183319,114.744530   C146.543427,113.966202 146.718384,113.414322 146.910736,112.900070   C146.928131,112.937691 146.851898,112.970276 147.066254,112.681526   C147.459579,111.704254 147.638535,111.015724 147.770477,110.225418   C147.723465,110.123642 147.921570,110.018593 148.123199,109.707954   C148.470383,108.676102 148.615936,107.954887 148.706467,107.016312   C148.697876,106.493889 148.824142,106.226524 149.238037,105.779060   C149.578476,104.355705 149.711136,103.150139 149.819916,101.509384   C149.958145,99.050323 150.120255,97.026459 150.548218,94.865173   C150.635376,93.484276 150.456711,92.240784 150.184723,90.567780   C150.095688,88.089676 150.099976,86.041084 150.178284,83.872971   C150.332977,83.461922 150.257690,83.211472 149.906403,82.691711   C149.799515,81.944000 149.812668,81.506668 149.985870,80.901398   C149.892609,80.154938 149.639282,79.576416 149.252686,78.613953   C149.121536,77.150467 149.123627,76.070938 149.198502,74.872345   C149.351257,74.464462 149.278412,74.214729 148.939545,73.692787   C148.828537,72.946129 148.830719,72.510765 149.053558,71.794273   C149.182846,69.380318 149.091492,67.247490 149.319214,65.054520   C150.948181,64.273888 152.258087,63.553394 153.944824,62.999458   C154.915207,65.550026 155.508774,67.934029 156.123871,70.702660   C156.173859,73.106262 156.202271,75.125237 156.313019,77.468201   C156.583710,78.192696 156.772034,78.593224 157.147003,79.242203   C157.585632,80.254150 157.837646,81.017654 158.128906,82.082291   C158.434830,82.920883 158.701477,83.458344 159.202667,84.339767   C161.028336,89.853439 160.812881,94.737282 156.948883,99.304359   C156.527237,99.888824 156.316315,100.246056 156.085144,100.839905   C155.758896,101.405258 155.452881,101.734001 154.935699,102.286819   C154.512604,103.080681 154.300690,103.650459 154.107086,104.425354   C154.125427,104.630470 153.951202,105.003677 153.862518,105.111816   C153.650162,105.494255 153.685455,105.751755 153.916550,106.253029   C153.902969,106.681648 153.852524,106.849693 153.685028,107.208626   C153.704361,107.932404 153.840729,108.465286 154.130234,109.185234   C154.481720,109.635193 154.729431,109.837708 155.086563,110.278236   C155.592422,110.987190 156.038239,111.397728 156.665771,112.011597   C157.295319,112.771553 157.743134,113.328171 157.992676,114.166603   C156.471710,116.581787 155.149017,118.715149 153.724976,120.954788   C153.836502,121.135826 154.049362,121.210594 154.605469,121.233978   C156.270447,120.777122 157.592194,120.371635 159.284454,119.975388   C160.393982,119.990059 161.132965,119.995491 161.966705,120.325394   C161.996277,121.090965 161.931091,121.532082 161.660324,122.189072   C161.331329,122.970879 161.207932,123.536812 161.077347,124.084663   C161.070175,124.066589 161.108002,124.088432 161.108002,124.088432  z"/>
<path fill="#011B2D" opacity="1.000000" stroke="none" d=" M190.034607,71.938667   C196.846786,73.415443 203.247543,75.557121 206.846710,82.643143   C196.983185,82.512604 188.851257,86.933517 181.553192,92.876656   C174.249542,98.824333 167.412094,105.344505 159.852783,111.764465   C158.647369,111.210060 157.959457,110.504921 157.260406,109.823135   C157.249268,109.846481 157.259338,109.792160 157.198257,109.443085   C157.064926,108.388794 156.992691,107.683586 157.095093,106.688599   C159.407349,104.100876 161.385239,101.624229 163.715424,99.541786   C168.742188,95.049454 173.832855,90.698654 171.631592,82.506516   C172.118835,82.543190 172.606064,82.579865 173.093307,82.616539   C173.970795,85.224228 174.848297,87.831917 175.709091,90.389969   C181.141388,87.645905 181.615509,82.669197 176.439453,71.938667   C181.403503,71.938667 185.719055,71.938667 190.034607,71.938667  z"/>
<path fill="#00192A" opacity="1.000000" stroke="none" d=" M187.134201,102.116753   C179.723083,108.068047 172.311951,114.019333 164.480286,119.670120   C163.960007,118.634712 163.860291,117.899803 163.760559,117.164902   C171.178818,112.050545 178.597076,106.936172 186.465057,101.859566   C186.914795,101.897324 187.134201,102.116753 187.134201,102.116753  z"/>
<path fill="#011C2E" opacity="1.000000" stroke="none" d=" M140.866562,170.932083   C143.083908,171.889938 145.301254,172.847794 147.873749,173.917572   C148.500183,176.735184 148.771469,179.440903 149.025330,182.574768   C147.053207,180.395920 145.236313,177.667557 143.089447,175.229782   C141.899048,173.878067 140.157196,173.011978 138.501511,171.645721   C139.181595,171.220322 140.024078,171.076202 140.866562,170.932083  z"/>
<path fill="#6CD3F1" opacity="1.000000" stroke="none" d=" M163.525879,116.948265   C163.860291,117.899803 163.960007,118.634712 164.140686,119.735031   C162.988953,122.543030 161.756271,124.985619 160.230286,127.198402   C159.936981,126.968605 160.000580,127.000153 160.000580,127.000153   C160.358368,126.242653 160.716156,125.485153 161.090973,124.408035   C161.108002,124.088432 161.070175,124.066589 161.358704,123.940559   C161.720108,123.200752 161.792999,122.586975 161.865906,121.973198   C161.931091,121.532082 161.996277,121.090965 162.010468,120.004509   C161.675262,118.825378 161.391022,118.291595 161.092072,117.437088   C160.115219,116.039177 159.153091,114.961983 158.190964,113.884789   C157.743134,113.328171 157.295319,112.771553 156.872314,111.512741   C157.021957,110.473633 157.146744,110.136703 157.271545,109.799782   C157.959457,110.504921 158.647369,111.210060 159.619720,112.014160   C161.033173,113.652634 162.162170,115.192131 163.525879,116.948265  z"/>
<path fill="#001B2E" opacity="1.000000" stroke="none" d=" M249.117188,229.585663   C249.197815,230.039246 249.256943,230.846634 249.140274,231.871262   C249.008209,231.372162 249.051956,230.655792 249.117188,229.585663  z"/>
<path fill="#00192A" opacity="1.000000" stroke="none" d=" M187.792282,100.813652   C187.985794,100.859795 188.179291,100.905937 188.165131,100.962822   C187.957458,100.973572 187.792282,100.813652 187.792282,100.813652  z"/>
<path fill="#00192A" opacity="1.000000" stroke="none" d=" M186.806427,101.786285   C186.899048,101.433327 187.132202,101.227943 187.594910,100.936371   C187.792282,100.813652 187.957458,100.973572 188.039612,101.055992   C187.969223,101.416504 187.769104,101.654617 187.327805,101.984756   C187.134201,102.116753 186.914795,101.897324 186.806427,101.786285  z"/>
<path fill="#6CD3F1" opacity="1.000000" stroke="none" d=" M159.903320,126.957321   C159.968842,127.155121 160.068008,127.364197 160.167175,127.573265   C160.000336,127.468384 159.833496,127.363503 159.833618,127.129395   C160.000580,127.000153 159.936981,126.968605 159.903320,126.957321  z"/>
<path fill="#62C9F9" opacity="1.000000" stroke="none" d=" M140.926910,170.597382   C140.024078,171.076202 139.181595,171.220322 138.124466,171.606140   C137.909821,171.847855 137.944382,171.907822 137.584259,171.895264   C136.577820,172.188553 135.931488,172.494385 135.285156,172.800217   C135.285156,172.800217 135.114716,172.723190 134.700409,172.818802   C133.641327,173.223846 132.996536,173.533279 132.351746,173.842712   C132.351746,173.842697 132.139069,173.750504 131.715393,173.850006   C130.670090,174.253891 130.048477,174.558258 129.426865,174.862610   C115.115845,180.129837 100.804825,185.397064 85.963379,190.989761   C84.975639,191.619339 84.518333,191.923447 83.660278,192.294647   C79.498627,192.251205 75.737717,192.140656 71.793091,191.816498   C71.081345,191.456192 70.553322,191.309479 69.788567,191.057770   C69.379204,190.951691 69.206566,190.950592 69.033928,190.949509   C69.033928,190.949509 69.024696,191.006516 68.812149,190.743744   C67.761734,190.241806 66.923866,190.002655 66.085999,189.763519   C52.585285,183.954163 39.084572,178.144836 25.273445,172.153656   C25.665409,171.329208 26.431450,170.743118 27.059916,170.034912   C31.406420,165.137039 36.411076,164.130615 42.842308,167.681671   C46.613770,169.025497 49.715454,170.083496 53.082409,171.393585   C58.571205,173.922958 63.794735,176.200226 69.213547,178.700775   C70.912788,179.986267 72.416763,181.048462 74.012321,182.363266   C74.387520,182.825897 74.671120,183.035934 75.056030,183.561508   C76.237511,185.741547 77.317680,187.606064 78.473648,189.601410   C79.789894,187.263412 80.917694,185.260132 82.315887,183.099396   C83.407883,182.021027 84.229477,181.100113 85.346466,180.070663   C86.809799,179.110229 87.977722,178.258331 89.421173,177.303497   C90.156662,176.871735 90.616631,176.542877 91.364792,176.144363   C92.113045,175.754700 92.573097,175.434708 93.375092,175.058395   C93.881752,174.687927 94.046471,174.373779 94.186661,174.131714   C94.162140,174.203812 94.301720,174.264786 94.301720,174.264786   C94.301720,174.264786 94.393532,174.428757 94.879288,174.364655   C96.251305,173.874268 97.137566,173.447998 98.023819,173.021729   C98.023819,173.021729 98.002754,172.998779 98.356888,173.008850   C99.312187,172.725632 99.913353,172.432343 100.514526,172.139069   C100.514526,172.139069 100.795258,172.194763 101.251183,172.105179   C102.321213,171.722916 102.935310,171.430237 103.549416,171.137558   C103.549416,171.137558 103.810638,171.214859 104.269806,171.128174   C105.368378,170.746979 106.007782,170.452484 106.647194,170.157990   C106.647194,170.157990 106.861000,170.255188 107.296143,170.158875   C108.382195,169.766708 109.033096,169.470840 109.683990,169.174957   C109.683990,169.174957 109.876907,169.272324 110.306854,169.176285   C111.403656,168.789581 112.070503,168.498901 112.737343,168.208221   C112.737343,168.208221 112.874847,168.287369 113.284225,168.212341   C114.577377,167.797485 115.461159,167.457657 116.344940,167.117813   C117.691734,166.832352 119.038528,166.546890 121.049667,166.127747   C122.335205,165.707001 122.956398,165.419907 123.577583,165.132812   C123.577583,165.132812 123.819778,165.237320 124.282623,165.153198   C125.418381,164.789597 126.091301,164.510132 126.764221,164.230667   C126.764221,164.230667 126.882889,164.301056 127.267807,164.226044   C128.096008,164.025452 128.539291,163.899872 129.345688,163.754135   C131.715668,163.084366 133.722534,162.434753 135.680145,161.801102   C137.559296,164.135529 139.207474,166.183029 140.855652,168.230545   C140.899536,168.907913 140.943405,169.585297 140.926910,170.597382  M119.940956,171.522522   C119.675514,171.408691 119.415909,171.272980 119.139740,171.199432   C119.084305,171.184662 118.965919,171.406235 118.876564,171.518829   C119.154785,171.608383 119.432999,171.697952 119.940956,171.522522  M103.833221,176.753616   C103.997307,176.638947 104.161392,176.524277 104.325478,176.409622   C104.097328,176.432114 103.869186,176.454620 103.833221,176.753616  M116.349747,172.525284   C116.133698,172.471542 115.917656,172.417816 115.701607,172.364075   C115.838188,172.492340 115.974770,172.620605 116.349747,172.525284  M112.728966,173.253006   C112.786011,173.416519 112.843056,173.580032 112.900101,173.743546   C112.955627,173.576675 113.011154,173.409805 112.728966,173.253006  M110.100296,174.265945   C109.940254,174.373154 109.780212,174.480347 109.620171,174.587540   C109.838928,174.569824 110.057693,174.552109 110.100296,174.265945  M106.842628,175.250076   C106.899826,175.415466 106.957024,175.580841 107.014221,175.746231   C107.071121,175.578598 107.128029,175.410950 106.842628,175.250076  M100.834312,177.758438   C101.005562,177.637146 101.176811,177.515854 101.348068,177.394577   C101.110352,177.419327 100.872635,177.444077 100.834312,177.758438  M96.238113,179.731567   C96.185234,179.575623 96.132355,179.419662 96.079460,179.263718   C96.026527,179.422760 95.973587,179.581818 96.238113,179.731567  M98.306107,178.475052   C98.306107,178.475052 98.581993,178.601517 98.581993,178.601517   C98.581993,178.601517 98.521080,178.322357 98.306107,178.475052  z"/>
<path fill="#0067A6" opacity="1.000000" stroke="none" d=" M153.085907,227.011261   C153.085907,230.317642 153.085907,233.624023 153.085907,237.296738   C151.338577,237.458435 150.089233,237.617752 148.834961,237.683136   C139.416336,238.174057 129.998901,238.700867 120.575539,239.077332   C118.762306,239.149780 116.840393,238.867020 115.114670,238.302017   C110.707047,236.858887 106.233597,235.470901 102.075638,233.462250   C99.288605,232.115906 96.905647,229.851196 94.515549,227.795502   C93.059517,226.543167 92.125748,224.659897 90.622345,223.490936   C86.407433,220.213608 82.258484,217.021729 84.055397,210.100189   C84.582024,209.935455 85.942879,209.509750 87.656883,209.028793   C88.010033,208.973526 87.936638,208.987701 88.020523,209.189529   C88.284508,209.654068 88.533791,209.784241 89.242676,209.865295   C91.448441,210.228394 93.263802,210.508087 95.079155,210.787766   C99.168716,212.308594 103.258278,213.829437 107.808998,215.863647   C109.727715,217.410294 111.107971,218.580276 112.655045,219.455307   C125.261108,226.585266 138.949951,228.015320 153.085907,227.011261  z"/>
<path fill="#0066A5" opacity="1.000000" stroke="none" d=" M75.962654,219.990051   C69.393181,221.548233 62.823708,223.106400 56.254234,224.664581   C56.267502,224.883011 56.280769,225.101440 56.294033,225.319870   C60.656185,224.814102 65.018333,224.308334 69.462303,223.793091   C66.601730,228.608276 59.044884,232.463913 54.091953,231.265305   C52.410957,230.858490 50.683685,229.406418 49.610462,227.961792   C46.656052,223.985046 43.972466,219.799850 41.329601,215.603989   C40.664806,214.548538 40.440331,213.163788 40.215351,211.894577   C39.804585,209.577271 39.761990,207.176788 39.173794,204.912842   C38.133747,200.909714 39.615589,198.615585 43.905849,199.160583   C48.945839,199.800812 53.917973,201.096039 58.847637,202.382645   C59.841965,202.642151 60.514702,204.133850 61.335712,205.057449   C60.348175,205.790802 59.419270,207.044281 58.362495,207.163422   C54.670948,207.579529 50.935230,207.603760 47.216297,207.776901   C47.238033,208.274139 47.259773,208.771393 47.281509,209.268631   C52.262253,209.036133 57.241093,208.700974 62.224434,208.608597   C65.349518,208.550674 68.576202,208.461304 71.568024,209.177124   C72.951706,209.508179 73.883156,211.729370 74.613449,213.611206   C66.033363,215.430023 57.859470,216.731232 49.685574,218.032440   C56.507038,218.001678 63.362137,217.468521 70.225670,217.086899   C72.590080,216.955414 75.832397,215.526718 75.962654,219.990051  z"/>
<path fill="#329CDB" opacity="1.000000" stroke="none" d=" M153.197296,226.633957   C138.949951,228.015320 125.261108,226.585266 112.655045,219.455307   C111.107971,218.580276 109.727715,217.410294 108.124260,216.047028   C113.922272,215.288879 119.875000,214.952240 125.805069,214.380539   C127.756027,214.192444 129.648331,213.395966 133.019653,212.485504   C128.593964,210.429230 125.232430,208.927383 121.925163,207.314270   C118.449898,205.619217 115.197151,203.716263 116.639862,198.512543   C123.384880,200.400284 129.820221,202.086838 136.182373,204.014893   C142.254181,205.854965 145.273346,210.914612 148.515717,216.220490   C149.713654,216.220490 151.254791,216.220490 153.308685,216.220490   C153.308685,219.697403 153.308685,222.977020 153.197296,226.633957  z"/>
<path fill="#003152" opacity="1.000000" stroke="none" d=" M95.010880,210.465637   C93.263802,210.508087 91.448441,210.228394 89.104614,209.717346   C88.369102,209.312042 88.155937,209.145935 87.936638,208.987701   C87.936638,208.987701 88.010033,208.973526 88.025383,209.006393   C79.785172,209.033249 76.824905,201.643723 71.564529,196.960388   C74.356819,197.065475 77.262032,197.514069 80.452293,197.870193   C81.484940,197.166672 82.232529,196.555618 82.979553,195.973236   C82.978981,196.001892 82.955345,195.948853 83.255875,196.098724   C84.387733,196.494003 85.219063,196.739426 86.050392,196.984848   C86.050392,196.984848 85.999199,197.001877 85.945992,197.323730   C86.612709,198.427368 87.332634,199.209137 88.052551,199.990906   C88.052551,199.990906 87.997055,200.005493 88.056641,200.250717   C88.427589,200.665497 88.738953,200.835052 89.050308,201.004608   C89.050308,201.004608 88.991463,201.006393 88.974167,201.292572   C89.321877,202.054810 89.686882,202.530853 90.051880,203.006897   C90.051880,203.006897 89.990219,203.011429 90.101196,203.259735   C90.508736,203.770813 90.805305,204.033615 91.101875,204.296402   C92.382118,206.245438 93.662361,208.194489 95.010880,210.465637  z"/>
<path fill="#031C2F" opacity="1.000000" stroke="none" d=" M80.167244,197.962677   C77.262032,197.514069 74.356819,197.065475 71.271629,196.805237   C70.406082,195.229507 69.720520,193.465408 69.034439,191.325409   C69.206566,190.950592 69.379204,190.951691 69.976479,191.268173   C70.926346,191.732422 71.451576,191.881256 71.976807,192.030090   C75.737717,192.140656 79.498627,192.251205 83.568207,192.617889   C83.569695,193.898972 83.262520,194.923904 82.955345,195.948853   C82.955345,195.948853 82.978981,196.001892 82.645744,195.849670   C81.597420,196.452515 80.882332,197.207596 80.167244,197.962677  z"/>
<path fill="#001728" opacity="1.000000" stroke="none" d=" M76.262390,219.866333   C75.832397,215.526718 72.590080,216.955414 70.225670,217.086899   C63.362137,217.468521 56.507038,218.001678 49.685574,218.032440   C57.859470,216.731232 66.033363,215.430023 74.570633,213.993408   C75.548790,215.799591 79.718628,216.757584 76.262390,219.866333  z"/>
<path fill="#00629E" opacity="1.000000" stroke="none" d=" M83.255875,196.098724   C83.262520,194.923904 83.569695,193.898972 83.968948,192.550781   C84.518333,191.923447 84.975639,191.619339 85.692215,191.226013   C85.928772,192.870529 85.906067,194.604263 85.966881,196.661407   C85.219063,196.739426 84.387733,196.494003 83.255875,196.098724  z"/>
<path fill="#00629E" opacity="1.000000" stroke="none" d=" M88.018204,199.673309   C87.332634,199.209137 86.612709,198.427368 85.955154,197.298370   C86.672966,197.752670 87.328415,198.554199 88.018204,199.673309  z"/>
<path fill="#031C2F" opacity="1.000000" stroke="none" d=" M66.318924,189.999222   C66.923866,190.002655 67.761734,190.241806 68.828140,190.719055   C68.221748,190.716400 67.386803,190.475662 66.318924,189.999222  z"/>
<path fill="#011C2E" opacity="1.000000" stroke="none" d=" M135.649811,172.775177   C135.931488,172.494385 136.577820,172.188553 137.595428,171.862518   C137.315948,172.144943 136.665207,172.447540 135.649811,172.775177  z"/>
<path fill="#011C2E" opacity="1.000000" stroke="none" d=" M132.713684,173.808563   C132.996536,173.533279 133.641327,173.223846 134.657166,172.901733   C134.377365,173.184174 133.726486,173.479294 132.713684,173.808563  z"/>
<path fill="#00629E" opacity="1.000000" stroke="none" d=" M90.090836,202.694489   C89.686882,202.530853 89.321877,202.054810 88.982887,201.264465   C89.382523,201.427475 89.756149,201.904770 90.090836,202.694489  z"/>
<path fill="#011C2E" opacity="1.000000" stroke="none" d=" M129.775803,174.826843   C130.048477,174.558258 130.670090,174.253891 131.652176,173.947159   C131.383347,174.226883 130.754044,174.508972 129.775803,174.826843  z"/>
<path fill="#00416B" opacity="1.000000" stroke="none" d=" M37.428528,212.575623   C37.378231,212.495621 37.576763,212.458511 37.576763,212.458511   C37.576763,212.458511 37.478821,212.655624 37.428528,212.575623  z"/>
<path fill="#00629E" opacity="1.000000" stroke="none" d=" M91.033813,203.982208   C90.805305,204.033615 90.508736,203.770813 90.105888,203.229172   C90.321655,203.189545 90.643700,203.428787 91.033813,203.982208  z"/>
<path fill="#00629E" opacity="1.000000" stroke="none" d=" M88.965668,200.750000   C88.738953,200.835052 88.427589,200.665497 88.061432,200.222443   C88.298103,200.131073 88.589569,200.313232 88.965668,200.750000  z"/>
<path fill="#00446F" opacity="1.000000" stroke="none" d=" M197.001617,195.002441   C197.003571,195.005157 196.823441,195.227203 196.823441,195.227203   C196.823441,195.227203 196.842545,195.035187 196.917053,195.014374   C196.991562,194.993576 196.999664,194.999741 197.001617,195.002441  z"/>
<path fill="#00446F" opacity="1.000000" stroke="none" d=" M190.458771,195.388245   C190.525879,195.338409 190.546326,195.530518 190.546326,195.530518   C190.546326,195.530518 190.391663,195.438095 190.458771,195.388245  z"/>
<path fill="#003F68" opacity="1.000000" stroke="none" d=" M52.817139,171.141495   C49.715454,170.083496 46.613770,169.025497 43.216206,167.816284   C43.252567,166.068268 43.584805,164.471481 43.941570,162.473068   C45.288815,156.147003 47.177700,150.281204 47.798851,144.284088   C48.685364,135.724915 48.596878,127.067329 49.006737,118.455673   C49.983742,97.927513 51.008743,77.401634 52.370667,56.496170   C58.839451,58.572586 64.951920,61.027664 70.985016,63.934452   C70.650177,65.519928 70.264671,66.641754 70.159332,67.789307   C69.084526,79.498444 68.068314,91.212944 67.007874,102.923424   C66.469276,108.871185 65.873993,114.813820 65.304337,120.758781   C69.334129,117.432381 71.947693,113.420601 75.146561,109.947998   C78.746147,106.040398 82.873535,102.619003 86.840179,99.363564   C87.014732,100.750748 87.120445,101.760460 87.009407,103.011841   C86.488190,103.819191 86.183716,104.384880 85.879242,104.950569   C84.000854,108.745529 82.122467,112.540489 80.154976,116.923874   C80.065872,117.512299 80.057762,117.975182 80.057762,117.975182   C79.071533,123.721451 78.085297,129.467712 77.072212,136.001007   C77.041794,137.518723 77.038239,138.249420 77.034676,138.980133   C76.714317,145.022720 76.393959,151.065308 76.068985,157.807434   C76.064354,158.506989 76.068268,158.971619 76.068268,158.971619   C76.024109,160.368530 75.979950,161.765457 75.875175,163.880127   C75.599976,165.388611 75.385391,166.179337 75.129562,167.373291   C75.063843,168.854797 75.039375,169.933044 74.797104,171.019562   C74.579292,171.027802 74.143417,171.021255 73.708679,171.017212   C71.842392,171.005920 70.410851,170.998642 68.871002,170.588959   C68.762703,155.955063 68.762703,141.723587 68.762703,127.690910   C67.476357,130.515350 65.801353,133.582336 64.648682,136.834457   C60.607651,148.235703 56.746555,159.700699 52.817139,171.141495  z"/>
<path fill="#001B2E" opacity="1.000000" stroke="none" d=" M71.064392,63.482742   C64.951920,61.027664 58.839451,58.572586 52.376293,56.036949   C49.908230,54.440861 50.831051,53.261120 52.685051,51.984810   C57.367649,49.908863 61.810360,48.005833 66.976639,45.962120   C75.759598,43.559643 83.818977,41.297848 91.895256,39.472507   C92.081436,47.232620 93.987549,49.246029 100.600433,48.919376   C101.887535,48.855797 103.156769,48.430687 104.560104,48.468437   C104.753029,49.184002 104.820091,49.603455 104.699081,50.358627   C104.246445,51.695084 103.981888,52.695820 103.548843,53.683044   C103.380363,53.669533 103.112190,53.463696 102.994217,53.325439   C102.640022,53.339985 102.403786,53.492783 101.861023,53.757431   C98.866440,53.109798 96.178391,52.350315 91.808182,51.115551   C93.752846,57.574986 95.298485,62.709003 96.438438,67.877197   C87.709969,66.435158 79.387184,64.958946 71.064392,63.482742  z"/>
<path fill="#69CFFC" opacity="1.000000" stroke="none" d=" M190.026855,71.592270   C185.719055,71.938667 181.403503,71.938667 176.439453,71.938667   C181.615509,82.669197 181.141388,87.645905 175.709091,90.389969   C174.848297,87.831917 173.970795,85.224228 173.093307,82.616539   C172.606064,82.579865 172.118835,82.543190 171.631592,82.506516   C173.832855,90.698654 168.742188,95.049454 163.715424,99.541786   C161.385239,101.624229 159.407349,104.100876 156.902588,106.895172   C156.101074,108.207123 155.666702,109.022713 155.180832,109.873611   C155.129333,109.908928 155.026535,109.979820 155.026535,109.979820   C154.729431,109.837708 154.481720,109.635193 154.154678,108.852127   C153.951355,107.893883 153.876724,107.455811 153.802094,107.017738   C153.852524,106.849693 153.902969,106.681648 153.989929,106.009865   C154.001373,105.338638 153.976288,105.171158 153.951202,105.003677   C153.951202,105.003677 154.125427,104.630470 154.344818,104.224976   C154.758408,103.233894 154.952637,102.648315 155.146866,102.062737   C155.452881,101.734001 155.758896,101.405258 156.362259,100.666000   C156.826279,99.862701 156.992935,99.469910 157.159607,99.077118   C160.812881,94.737282 161.028336,89.853439 159.215607,84.024017   C158.692535,82.836594 158.391098,82.308876 158.089645,81.781158   C157.837646,81.017654 157.585632,80.254150 157.150375,78.889557   C156.721649,77.907043 156.476181,77.525627 156.230682,77.144211   C156.202271,75.125237 156.173859,73.106262 156.345215,70.361595   C156.983780,67.202263 157.822403,64.756355 157.748245,62.338436   C157.674973,59.949268 156.679276,57.588398 155.815857,55.002762   C153.526886,53.310238 151.510284,51.830067 148.123672,49.344330   C148.123672,55.616241 148.123672,60.305584 148.053360,65.399178   C148.266327,67.894081 148.549622,69.984741 148.832916,72.075394   C148.830719,72.510765 148.828537,72.946129 148.891052,73.944550   C149.012421,74.668869 149.069077,74.830139 149.125717,74.991409   C149.123627,76.070938 149.121536,77.150467 149.208344,78.884125   C149.473419,80.048607 149.649612,80.558975 149.825806,81.069336   C149.812668,81.506668 149.799515,81.944000 149.860016,82.944473   C149.990555,83.669250 150.047409,83.830872 150.104263,83.992500   C150.099976,86.041084 150.095688,88.089676 150.110291,90.964287   C150.180237,92.861069 150.231308,93.931831 150.282379,95.002586   C150.120255,97.026459 149.958145,99.050323 149.619049,101.798920   C149.304794,103.681381 149.167511,104.839119 149.030228,105.996857   C148.824142,106.226524 148.697876,106.493889 148.447037,107.294022   C148.135620,108.532265 148.028595,109.275429 147.921570,110.018593   C147.921570,110.018593 147.723465,110.123642 147.497406,110.472229   C147.131546,111.537300 146.991730,112.253792 146.851898,112.970276   C146.851898,112.970276 146.928131,112.937691 146.668137,113.083679   C146.271484,113.810104 146.134811,114.390541 145.998138,114.970978   C145.998154,114.970978 145.960358,114.987701 145.757721,115.196793   C145.385315,115.935402 145.215546,116.464912 145.045776,116.994423   C144.672134,117.624474 144.298477,118.254524 143.635864,119.333755   C143.221634,120.176498 143.096344,120.570053 142.971054,120.963600   C142.971054,120.963600 142.986267,120.986435 142.724503,121.143997   C142.237259,121.842690 142.011795,122.383835 141.786316,122.924973   C141.786316,122.924973 141.873611,122.910950 141.519501,122.916557   C140.057358,123.925697 138.949341,124.929230 137.841324,125.932755   C137.841324,125.932762 137.404831,125.999931 136.938293,126.042549   C136.367508,126.386551 136.263260,126.687935 136.159027,126.989319   C135.941833,127.296509 135.724670,127.603691 134.956635,128.075790   C134.193146,128.792252 133.980499,129.343811 133.767853,129.895355   C133.477890,130.283661 133.187927,130.671967 132.623291,131.465805   C132.233215,132.235458 132.117828,132.599564 132.002441,132.963684   C132.002441,132.963684 131.950974,132.980728 131.731964,133.175964   C131.336533,133.904037 131.160110,134.436859 130.983704,134.969681   C130.983704,134.969681 130.979034,134.985245 130.745300,135.169861   C130.338531,135.894043 130.165512,136.433609 129.992493,136.973175   C129.992493,136.973175 129.973694,136.986969 129.751022,137.181519   C129.367584,137.915543 129.206802,138.455017 129.046021,138.994492   C128.729034,141.836258 128.412048,144.678009 128.434235,148.163147   C128.209702,149.470551 127.645966,150.134552 127.082245,150.798569   C126.295105,149.932480 125.507973,149.066406 124.395187,147.712097   C123.757957,146.613403 123.446373,146.002914 123.134789,145.392441   C123.071335,144.171082 123.007881,142.949722 122.862160,141.022232   C121.835587,140.862991 120.891281,141.409882 119.946976,141.956787   C119.946976,141.956772 120.000000,142.000000 119.727264,142.140640   C119.244675,142.827057 119.034821,143.372818 118.824974,143.918594   C115.407219,147.173050 111.989464,150.427505 107.976456,153.781509   C106.880028,153.253784 106.378853,152.626480 105.877670,151.999191   C105.877670,151.999191 106.126190,151.912033 106.416931,151.588745   C106.887878,150.849442 107.068092,150.433395 107.248306,150.017365   C107.248306,150.017365 107.135361,150.080673 107.468399,149.945099   C108.214264,148.618652 108.627090,147.427795 109.039917,146.236938   C108.634369,145.973755 108.228821,145.710571 107.823273,145.447388   C106.847260,146.280960 105.871246,147.114548 104.895233,147.948120   C103.037086,149.095032 101.178940,150.241928 98.788528,151.703156   C97.893959,152.284836 97.531662,152.552216 97.169373,152.819595   C97.169373,152.819595 96.762222,152.682648 96.762222,152.682648   C96.762222,152.682648 96.352112,152.810471 95.815056,152.902222   C94.449944,153.301895 93.621887,153.609818 92.793823,153.917725   C92.558495,153.518311 92.323174,153.118896 92.357681,152.386230   C92.883598,151.788956 93.139687,151.524948 93.395782,151.260956   C93.395782,151.260956 93.206566,151.232986 93.490295,151.191833   C94.021782,150.808517 94.269547,150.466339 94.517303,150.124176   C95.165421,149.214371 95.813538,148.304581 97.063431,147.166855   C102.130562,144.397125 101.407059,140.158295 100.716187,136.309555   C99.358459,128.745865 97.553909,121.262390 96.097649,114.504143   C94.631653,118.113579 92.802574,122.616966 90.716820,126.808762   C90.215286,124.997307 89.970428,123.497459 89.725571,121.997604   C90.226318,119.143013 90.727066,116.288429 91.448990,112.782669   C91.766304,111.406853 91.862442,110.682213 92.123878,109.613953   C94.198303,101.504585 96.107430,93.738815 98.008858,85.984894   C98.001160,85.996735 97.981178,86.016190 98.242012,86.048874   C98.676338,86.056755 98.849823,86.031960 99.229103,85.793884   C99.964821,83.695435 100.494728,81.810265 101.306190,79.776367   C102.749245,78.103142 103.910751,76.578644 105.406372,75.086212   C106.922729,74.955009 108.126938,74.883858 109.282524,74.608612   C111.446869,74.093063 113.561295,73.070671 115.735085,72.949036   C121.761299,72.611832 126.981720,74.652237 131.179276,79.883240   C134.730103,71.729561 138.572800,64.337540 141.069870,56.515923   C142.176208,53.050526 141.278992,48.460758 139.993073,44.842800   C138.488464,40.609493 135.568390,36.879269 133.197571,32.574265   C133.051575,31.501776 132.970367,30.785830 133.256302,29.866098   C137.754166,29.406502 141.884872,29.150686 146.367126,29.050201   C147.671753,29.471970 148.613281,29.793257 149.579636,29.996469   C160.803833,32.356758 168.258133,38.508625 170.440277,50.256092   C171.067017,53.630154 172.298157,56.891945 173.252167,60.205215   C175.351501,61.377525 177.324738,63.031345 179.576630,63.621162   C184.160049,64.821655 187.678391,67.139297 190.026855,71.592270  M107.080200,88.059555   C109.939934,87.365005 112.770081,86.479729 115.667839,86.030365   C118.479172,85.594398 121.359924,85.606087 124.210197,85.421181   C115.966843,79.661057 109.219727,80.960419 105.382729,88.116852   C105.410835,88.567688 105.438942,89.018524 105.467049,89.469360   C105.812630,89.126915 106.158211,88.784477 107.080200,88.059555  z"/>
<path fill="#001B2E" opacity="1.000000" stroke="none" d=" M173.620193,60.148254   C172.298157,56.891945 171.067017,53.630154 170.440277,50.256092   C168.258133,38.508625 160.803833,32.356758 149.579636,29.996469   C148.613281,29.793257 147.671753,29.471970 146.639679,28.794609   C150.795059,27.488197 155.029465,26.592709 159.263855,25.697222   C145.504959,24.711554 131.765030,24.074720 118.120247,24.939335   C109.280067,25.499506 100.578903,28.253361 91.815445,30.024265   C92.433472,28.551266 93.051491,27.078262 93.855713,25.317345   C105.782173,20.366377 117.734497,16.956760 130.572693,16.913519   C140.670715,16.879509 150.315552,18.354963 159.868759,22.624481   C162.381653,23.888319 164.412933,25.749071 166.709030,26.171865   C174.999664,27.698484 183.409164,28.572180 191.713730,30.033653   C196.277817,30.836859 200.483521,32.883255 201.539642,37.976635   C202.613083,43.153618 199.888046,47.499237 195.856323,49.806343   C188.887238,53.794342 181.310211,56.719982 173.620193,60.148254  z"/>
<path fill="#003152" opacity="1.000000" stroke="none" d=" M91.545288,30.205475   C100.578903,28.253361 109.280067,25.499506 118.120247,24.939335   C131.765030,24.074720 145.504959,24.711554 159.263855,25.697222   C155.029465,26.592709 150.795059,27.488197 146.288116,28.639278   C141.884872,29.150686 137.754166,29.406502 132.853577,29.845964   C128.334335,30.731991 124.555573,31.306620 120.841339,32.161610   C111.171898,34.387444 101.530785,36.736290 91.878365,39.036057   C83.818977,41.297848 75.759598,43.559643 67.328445,45.866131   C68.454788,44.686832 69.952888,43.462833 71.754242,42.071785   C78.463371,38.065384 84.869247,34.226036 91.545288,30.205475  z"/>
<path fill="#013153" opacity="1.000000" stroke="none" d=" M140.889816,167.790619   C139.207474,166.183029 137.559296,164.135529 135.680145,161.801102   C133.722534,162.434753 131.715668,163.084366 129.310104,163.562943   C128.911407,163.391907 128.828812,163.011810 128.828827,163.011810   C132.995209,155.891006 137.161591,148.770203 141.327972,141.649399   C141.695312,141.694321 142.062653,141.739243 142.429993,141.784164   C141.927994,150.306335 141.425980,158.828522 140.889816,167.790619  z"/>
<path fill="#2F98D6" opacity="1.000000" stroke="none" d=" M90.973488,127.120361   C92.802574,122.616966 94.631653,118.113579 96.097649,114.504143   C97.553909,121.262390 99.358459,128.745865 100.716187,136.309555   C101.407059,140.158295 102.130562,144.397125 97.291565,146.998795   C96.758682,144.914795 96.599442,142.770935 96.191269,140.019440   C95.629387,138.939148 95.316437,138.466507 95.003494,137.993866   C95.003487,137.993866 94.999695,138.000000 94.961487,137.688843   C94.650009,137.074783 94.376732,136.771896 94.103455,136.469009   C93.115356,134.529297 92.127258,132.589600 91.094330,129.966125   C91.024170,128.561707 90.998825,127.841034 90.973488,127.120361  z"/>
<path fill="#3099D8" opacity="1.000000" stroke="none" d=" M98.016556,85.973053   C96.107430,93.738815 94.198303,101.504585 91.917152,109.541168   C91.545120,109.811989 91.131973,109.662628 91.131973,109.662628   C90.613174,108.867119 90.094383,108.071609 89.289978,106.836456   C88.947563,106.013260 88.890755,105.629700 88.879272,104.814850   C88.707932,96.643036 93.037628,91.147736 98.016556,85.973053  z"/>
<path fill="#036BAC" opacity="1.000000" stroke="none" d=" M148.123672,64.994926   C148.123672,60.305584 148.123672,55.616241 148.123672,49.344330   C151.510284,51.830067 153.526886,53.310238 155.815063,55.382763   C155.247070,58.261044 154.407532,60.546967 153.567993,62.832893   C152.258087,63.553394 150.948181,64.273888 149.104309,64.993759   C148.570343,64.993134 148.123672,64.994926 148.123672,64.994926  z"/>
<path fill="#011C2E" opacity="1.000000" stroke="none" d=" M75.170815,166.970047   C75.385391,166.179337 75.599976,165.388611 75.885498,164.299377   C80.701134,164.947266 85.445839,165.893646 90.575989,167.333496   C90.956955,169.209915 90.952469,170.592911 90.628967,171.863098   C85.989655,167.857391 80.774323,166.799026 75.170815,166.970047  z"/>
<path fill="#003254" opacity="1.000000" stroke="none" d=" M90.947983,171.975891   C90.952469,170.592911 90.956955,169.209915 90.939041,167.412384   C91.273529,165.252960 91.630432,163.508118 92.322655,161.378540   C93.097237,161.016266 93.536499,161.038712 93.975761,161.061157   C94.045631,165.160034 94.115494,169.258911 94.243546,173.811279   C94.301720,174.264786 94.162140,174.203812 93.973885,174.289093   C93.534805,174.621155 93.283981,174.867935 93.033150,175.114716   C92.573097,175.434708 92.113045,175.754700 91.357330,175.721634   C91.023773,174.237686 90.985870,173.106781 90.947983,171.975891  z"/>
<path fill="#011C2E" opacity="1.000000" stroke="none" d=" M153.944824,62.999451   C154.407532,60.546967 155.247070,58.261044 156.087418,55.595119   C156.679276,57.588398 157.674973,59.949268 157.748245,62.338436   C157.822403,64.756355 156.983780,67.202263 156.323669,69.976974   C155.508774,67.934029 154.915207,65.550026 153.944824,62.999451  z"/>
<path fill="#00416D" opacity="1.000000" stroke="none" d=" M157.992676,114.166603   C159.153091,114.961983 160.115219,116.039177 160.928955,117.704285   C160.158356,118.850189 159.536148,119.408173 158.913940,119.966141   C157.592194,120.371635 156.270447,120.777122 154.497162,121.124107   C154.045624,121.065605 153.826324,120.848511 153.826324,120.848511   C155.149017,118.715149 156.471710,116.581787 157.992676,114.166603  z"/>
<path fill="#011C2E" opacity="1.000000" stroke="none" d=" M90.716820,126.808762   C90.998825,127.841034 91.024170,128.561707 91.000237,129.641815   C87.540253,128.117050 87.217842,125.499359 89.429695,122.173828   C89.970428,123.497459 90.215286,124.997307 90.716820,126.808762  z"/>
<path fill="#011C2E" opacity="1.000000" stroke="none" d=" M105.561172,152.090057   C106.378853,152.626480 106.880028,153.253784 107.688698,153.963531   C106.543892,154.384567 105.091606,154.723145 103.639313,155.061707   C104.174438,154.101440 104.709557,153.141190 105.561172,152.090057  z"/>
<path fill="#011C2E" opacity="1.000000" stroke="none" d=" M127.348282,151.030762   C127.645966,150.134552 128.209702,149.470551 128.700134,148.469421   C130.005096,148.954651 131.383377,149.776978 132.761658,150.599319   C132.737640,150.956772 132.713608,151.314240 132.689590,151.671707   C130.997833,151.535446 129.306091,151.399185 127.348282,151.030762  z"/>
<path fill="#011C2E" opacity="1.000000" stroke="none" d=" M148.053360,65.399178   C148.123672,64.994926 148.570343,64.993134 148.785248,65.053894   C149.091492,67.247490 149.182846,69.380318 149.053558,71.794273   C148.549622,69.984741 148.266327,67.894081 148.053360,65.399178  z"/>
<path fill="#011C2E" opacity="1.000000" stroke="none" d=" M138.127777,126.023911   C138.949341,124.929230 140.057358,123.925697 141.510422,122.873291   C140.708389,123.921303 139.561325,125.018188 138.127777,126.023911  z"/>
<path fill="#011C2E" opacity="1.000000" stroke="none" d=" M105.209854,148.068192   C105.871246,147.114548 106.847260,146.280960 107.823273,145.447388   C108.228821,145.710571 108.634369,145.973755 109.039917,146.236938   C108.627090,147.427795 108.214264,148.618652 107.501823,150.000534   C106.642967,149.523788 106.083717,148.856033 105.209854,148.068192  z"/>
<path fill="#011C2E" opacity="1.000000" stroke="none" d=" M93.975616,160.729065   C93.536499,161.038712 93.097237,161.016266 92.327835,160.993179   C92.191032,160.000076 92.384369,159.007614 92.577705,158.015152   C92.824814,158.008316 93.071922,158.001480 93.319031,157.994644   C93.537842,158.795410 93.756660,159.596191 93.975616,160.729065  z"/>
<path fill="#011C2E" opacity="1.000000" stroke="none" d=" M150.548218,94.865173   C150.231308,93.931831 150.180237,92.861069 150.203613,91.393806   C150.456711,92.240784 150.635376,93.484276 150.548218,94.865173  z"/>
<path fill="#011C2E" opacity="1.000000" stroke="none" d=" M149.238037,105.779060   C149.167511,104.839119 149.304794,103.681381 149.642944,102.234116   C149.711136,103.150139 149.578476,104.355705 149.238037,105.779060  z"/>
<path fill="#011C2E" opacity="1.000000" stroke="none" d=" M86.216537,104.975906   C86.183716,104.384880 86.488190,103.819191 87.238266,103.215912   C87.810631,103.767372 87.937401,104.356422 88.022766,104.985260   C87.981361,105.025047 87.900681,105.106781 87.900681,105.106781   C87.451729,105.071594 87.002785,105.036415 86.216537,104.975906  z"/>
<path fill="#011C2E" opacity="1.000000" stroke="none" d=" M149.985870,80.901398   C149.649612,80.558975 149.473419,80.048607 149.341583,79.268074   C149.639282,79.576416 149.892609,80.154938 149.985870,80.901398  z"/>
<path fill="#011C2E" opacity="1.000000" stroke="none" d=" M159.284454,119.975388   C159.536148,119.408173 160.158356,118.850189 160.943665,118.025009   C161.391022,118.291595 161.675262,118.825378 161.915726,119.680054   C161.132965,119.995491 160.393982,119.990059 159.284454,119.975388  z"/>
<path fill="#011C2E" opacity="1.000000" stroke="none" d=" M120.228531,141.841400   C120.891281,141.409882 121.835587,140.862991 122.803902,140.658920   C122.055298,141.243164 121.282692,141.484573 120.228531,141.841400  z"/>
<path fill="#011C2E" opacity="1.000000" stroke="none" d=" M115.978539,167.117233   C115.461159,167.457657 114.577377,167.797485 113.327995,168.146179   C113.845642,167.808914 114.728889,167.462784 115.978539,167.117233  z"/>
<path fill="#011C2E" opacity="1.000000" stroke="none" d=" M97.651779,173.055389   C97.137566,173.447998 96.251305,173.874268 94.964012,174.324020   C95.468559,173.928009 96.374138,173.508514 97.651779,173.055389  z"/>
<path fill="#011C2E" opacity="1.000000" stroke="none" d=" M93.134735,153.915390   C93.621887,153.609818 94.449944,153.301895 95.635712,153.020416   C95.154167,153.335587 94.314903,153.624313 93.134735,153.915390  z"/>
<path fill="#011C2E" opacity="1.000000" stroke="none" d=" M77.203125,138.764587   C77.038239,138.249420 77.041794,137.518723 77.082169,136.425247   C77.203178,136.891342 77.287376,137.720184 77.203125,138.764587  z"/>
<path fill="#00446F" opacity="1.000000" stroke="none" d=" M161.660324,122.189072   C161.792999,122.586975 161.720108,123.200752 161.365875,123.958633   C161.207932,123.536812 161.331329,122.970879 161.660324,122.189072  z"/>
<path fill="#011C2E" opacity="1.000000" stroke="none" d=" M88.833939,105.246147   C88.890755,105.629700 88.947563,106.013260 89.046097,106.685837   C88.754311,106.529068 88.420807,106.083275 87.993988,105.372131   C87.900681,105.106781 87.981361,105.025047 88.209274,105.075623   C88.437187,105.126190 88.833939,105.246147 88.833939,105.246147  z"/>
<path fill="#011C2E" opacity="1.000000" stroke="none" d=" M142.005371,122.731323   C142.011795,122.383835 142.237259,121.842690 142.711029,121.143196   C142.714355,121.502449 142.469391,122.020058 142.005371,122.731323  z"/>
<path fill="#011C2E" opacity="1.000000" stroke="none" d=" M100.177048,172.170731   C99.913353,172.432343 99.312187,172.725632 98.363602,173.021332   C98.623978,172.749985 99.231766,172.476181 100.177048,172.170731  z"/>
<path fill="#011C2E" opacity="1.000000" stroke="none" d=" M103.207169,171.167984   C102.935310,171.430237 102.321213,171.722916 101.353455,172.005096   C101.621498,171.729187 102.243202,171.463806 103.207169,171.167984  z"/>
<path fill="#011C2E" opacity="1.000000" stroke="none" d=" M153.685043,107.208626   C153.876724,107.455811 153.951355,107.893883 154.001541,108.665070   C153.840729,108.465286 153.704361,107.932404 153.685043,107.208626  z"/>
<path fill="#011C2E" opacity="1.000000" stroke="none" d=" M145.223206,116.780281   C145.215546,116.464912 145.385315,115.935402 145.768280,115.214561   C145.787857,115.537529 145.594223,116.051834 145.223206,116.780281  z"/>
<path fill="#011C2E" opacity="1.000000" stroke="none" d=" M146.183304,114.744530   C146.134811,114.390541 146.271484,113.810104 146.650742,113.046059   C146.718384,113.414322 146.543427,113.966202 146.183304,114.744530  z"/>
<path fill="#011C2E" opacity="1.000000" stroke="none" d=" M147.066254,112.681526   C146.991730,112.253792 147.131546,111.537300 147.544434,110.574005   C147.638535,111.015724 147.459579,111.704254 147.066254,112.681526  z"/>
<path fill="#69CFFC" opacity="1.000000" stroke="none" d=" M157.260406,109.823135   C157.146744,110.136703 157.021957,110.473633 156.690613,111.309410   C156.038239,111.397728 155.592422,110.987190 155.086563,110.278236   C155.026535,109.979820 155.129333,109.908928 155.517731,109.886124   C156.357208,109.839592 156.808273,109.815880 157.259338,109.792160   C157.259338,109.792160 157.249268,109.846481 157.260406,109.823135  z"/>
<path fill="#011C2E" opacity="1.000000" stroke="none" d=" M91.123863,110.163422   C91.131973,109.662628 91.545120,109.811989 91.751846,109.884781   C91.862442,110.682213 91.766304,111.406853 91.415672,112.401459   C91.146034,112.002350 91.130898,111.333290 91.123863,110.163422  z"/>
<path fill="#011C2E" opacity="1.000000" stroke="none" d=" M148.123199,109.707954   C148.028595,109.275429 148.135620,108.532265 148.502075,107.511391   C148.615936,107.954887 148.470383,108.676102 148.123199,109.707954  z"/>
<path fill="#011C2E" opacity="1.000000" stroke="none" d=" M131.171448,134.764160   C131.160110,134.436859 131.336533,133.904037 131.744263,133.200134   C131.770111,133.538925 131.564636,134.048782 131.171448,134.764160  z"/>
<path fill="#011C2E" opacity="1.000000" stroke="none" d=" M119.038368,143.721893   C119.034821,143.372818 119.244675,142.827057 119.701462,142.117935   C119.716194,142.478119 119.483978,143.001663 119.038368,143.721893  z"/>
<path fill="#011C2E" opacity="1.000000" stroke="none" d=" M129.223511,138.778702   C129.206802,138.455017 129.367584,137.915543 129.753601,137.192886   C129.786224,137.527435 129.593597,138.045181 129.223511,138.778702  z"/>
<path fill="#011C2E" opacity="1.000000" stroke="none" d=" M123.179550,145.742996   C123.446373,146.002914 123.757957,146.613403 124.133850,147.571869   C123.873543,147.311096 123.548927,146.702332 123.179550,145.742996  z"/>
<path fill="#011C2E" opacity="1.000000" stroke="none" d=" M95.062302,138.269348   C95.316437,138.466507 95.629387,138.939148 95.949120,139.701843   C95.677643,139.509537 95.399376,139.027176 95.062302,138.269348  z"/>
<path fill="#011C2E" opacity="1.000000" stroke="none" d=" M158.128906,82.082291   C158.391098,82.308876 158.692535,82.836594 158.981049,83.680054   C158.701477,83.458344 158.434830,82.920883 158.128906,82.082291  z"/>
<path fill="#011C2E" opacity="1.000000" stroke="none" d=" M130.179321,136.763153   C130.165512,136.433609 130.338531,135.894043 130.741669,135.177063   C130.769913,135.517471 130.568039,136.035309 130.179321,136.763153  z"/>
<path fill="#011C2E" opacity="1.000000" stroke="none" d=" M128.562012,163.096375   C128.828812,163.011810 128.911407,163.391907 128.946991,163.583099   C128.539291,163.899872 128.096008,164.025452 127.307274,164.169449   C127.406288,163.852234 127.850761,163.516586 128.562012,163.096375  z"/>
<path fill="#011C2E" opacity="1.000000" stroke="none" d=" M126.393860,164.240173   C126.091301,164.510132 125.418381,164.789597 124.369263,165.053741   C124.669876,164.775513 125.346687,164.512604 126.393860,164.240173  z"/>
<path fill="#011C2E" opacity="1.000000" stroke="none" d=" M133.986145,129.734467   C133.980499,129.343811 134.193146,128.792252 134.703674,128.209564   C134.735840,128.643463 134.470123,129.108536 133.986145,129.734467  z"/>
<path fill="#011C2E" opacity="1.000000" stroke="none" d=" M106.292046,170.184586   C106.007782,170.452484 105.368378,170.746979 104.362938,171.028778   C104.643562,170.747772 105.290230,170.479477 106.292046,170.184586  z"/>
<path fill="#011C2E" opacity="1.000000" stroke="none" d=" M109.321762,169.200104   C109.033096,169.470840 108.382195,169.766708 107.360245,170.060486   C107.645973,169.780670 108.302757,169.502960 109.321762,169.200104  z"/>
<path fill="#011C2E" opacity="1.000000" stroke="none" d=" M112.366913,168.226501   C112.070503,168.498901 111.403656,168.789581 110.359947,169.082184   C110.654221,168.804352 111.325348,168.524567 112.366913,168.226501  z"/>
<path fill="#011C2E" opacity="1.000000" stroke="none" d=" M123.234283,165.160736   C122.956398,165.419907 122.335205,165.707001 121.359879,165.970490   C121.634163,165.694153 122.262566,165.441406 123.234283,165.160736  z"/>
<path fill="#011C2E" opacity="1.000000" stroke="none" d=" M154.935699,102.286819   C154.952637,102.648315 154.758408,103.233894 154.326477,104.019852   C154.300690,103.650459 154.512604,103.080681 154.935699,102.286819  z"/>
<path fill="#011C2E" opacity="1.000000" stroke="none" d=" M150.178284,83.872971   C150.047409,83.830872 149.990555,83.669250 149.980072,83.254852   C150.257690,83.211472 150.332977,83.461922 150.178284,83.872971  z"/>
<path fill="#011C2E" opacity="1.000000" stroke="none" d=" M156.948883,99.304359   C156.992935,99.469910 156.826279,99.862701 156.382492,100.429390   C156.316315,100.246056 156.527237,99.888824 156.948883,99.304359  z"/>
<path fill="#011C2E" opacity="1.000000" stroke="none" d=" M153.862518,105.111816   C153.976288,105.171158 154.001373,105.338638 153.953064,105.749283   C153.685455,105.751755 153.650162,105.494255 153.862518,105.111816  z"/>
<path fill="#011C2E" opacity="1.000000" stroke="none" d=" M136.311279,126.863716   C136.263260,126.687935 136.367508,126.386551 136.730774,126.118027   C136.834015,126.364235 136.658600,126.559975 136.311279,126.863716  z"/>
<path fill="#011C2E" opacity="1.000000" stroke="none" d=" M94.220551,136.743240   C94.376732,136.771896 94.650009,137.074783 94.964104,137.687927   C94.782501,137.671295 94.560081,137.344376 94.220551,136.743240  z"/>
<path fill="#011C2E" opacity="1.000000" stroke="none" d=" M94.259293,150.299774   C94.269547,150.466339 94.021782,150.808517 93.480469,151.286957   C93.458374,151.107300 93.729828,150.791351 94.259293,150.299774  z"/>
<path fill="#011C2E" opacity="1.000000" stroke="none" d=" M107.032272,150.267792   C107.068092,150.433395 106.887878,150.849442 106.422760,151.457199   C106.363976,151.272018 106.590103,150.895111 107.032272,150.267792  z"/>
<path fill="#011C2E" opacity="1.000000" stroke="none" d=" M93.148773,151.378387   C93.139687,151.524948 92.883598,151.788956 92.355576,152.130554   C92.356361,151.970703 92.629066,151.733276 93.148773,151.378387  z"/>
<path fill="#011C2E" opacity="1.000000" stroke="none" d=" M97.486130,152.712036   C97.531662,152.552216 97.893959,152.284836 98.602943,151.977051   C98.567390,152.159241 98.185143,152.381851 97.486130,152.712036  z"/>
<path fill="#011C2E" opacity="1.000000" stroke="none" d=" M76.146927,158.867523   C76.068268,158.971619 76.064354,158.506989 76.087158,158.276260   C76.294098,158.266022 76.332642,158.505310 76.146927,158.867523  z"/>
<path fill="#011C2E" opacity="1.000000" stroke="none" d=" M132.177490,132.753510   C132.117828,132.599564 132.233215,132.235458 132.601288,131.721924   C132.686829,131.896133 132.519684,132.219727 132.177490,132.753510  z"/>
<path fill="#011C2E" opacity="1.000000" stroke="none" d=" M149.198502,74.872345   C149.069077,74.830139 149.012421,74.668869 149.004242,74.255829   C149.278412,74.214729 149.351257,74.464462 149.198502,74.872345  z"/>
<path fill="#00416D" opacity="1.000000" stroke="none" d=" M154.153931,121.175476   C154.049362,121.210594 153.836502,121.135826 153.724976,120.954788   C153.826324,120.848511 154.045624,121.065605 154.153931,121.175476  z"/>
<path fill="#011C2E" opacity="1.000000" stroke="none" d=" M156.313034,77.468193   C156.476181,77.525627 156.721649,77.907043 156.963745,78.641106   C156.772034,78.593224 156.583710,78.192696 156.313034,77.468193  z"/>
<path fill="#011C2E" opacity="1.000000" stroke="none" d=" M143.156097,120.731964   C143.096344,120.570053 143.221634,120.176498 143.615662,119.612030   C143.703308,119.794197 143.522232,120.147263 143.156097,120.731964  z"/>
<path fill="#011C2E" opacity="1.000000" stroke="none" d=" M80.138580,117.873428   C80.057762,117.975182 80.065872,117.512299 80.097183,117.283508   C80.303810,117.279686 80.334114,117.518677 80.138580,117.873428  z"/>
<path fill="#6CD3F1" opacity="1.000000" stroke="none" d=" M157.198257,109.443085   C156.808273,109.815880 156.357208,109.839592 155.569244,109.850807   C155.666702,109.022713 156.101074,108.207123 156.727951,107.184952   C156.992691,107.683586 157.064926,108.388794 157.198257,109.443085  z"/>
<path fill="#001B2E" opacity="1.000000" stroke="none" d=" M53.082405,171.393585   C56.746555,159.700699 60.607651,148.235703 64.648682,136.834457   C65.801353,133.582336 67.476357,130.515350 68.762703,127.690910   C68.762703,141.723587 68.762703,155.955063 68.858948,171.052216   C68.976227,174.104431 68.997246,176.290955 69.018265,178.477493   C63.794735,176.200226 58.571205,173.922958 53.082405,171.393585  z"/>
<path fill="#002136" opacity="1.000000" stroke="none" d=" M90.628967,171.863098   C90.985870,173.106781 91.023773,174.237686 91.069138,175.791306   C90.616631,176.542877 90.156662,176.871735 89.243500,176.977554   C87.300621,175.563019 85.981682,173.907318 84.283485,173.282639   C81.316872,172.191391 78.117020,171.734207 75.014908,171.011322   C75.039375,169.933044 75.063843,168.854797 75.129562,167.373291   C80.774323,166.799026 85.989655,167.857391 90.628967,171.863098  z"/>
<path fill="#002A45" opacity="1.000000" stroke="none" d=" M74.797104,171.019562   C78.117020,171.734207 81.316872,172.191391 84.283485,173.282639   C85.981682,173.907318 87.300621,175.563019 88.967979,177.080475   C87.977722,178.258331 86.809799,179.110229 85.165039,179.754059   C82.260956,175.187531 78.013832,176.117767 74.127098,175.514557   C74.114319,173.745636 74.128868,172.383453 74.143417,171.021255   C74.143417,171.021255 74.579292,171.027802 74.797104,171.019562  z"/>
<path fill="#00375A" opacity="1.000000" stroke="none" d=" M74.154427,175.921265   C78.013832,176.117767 82.260956,175.187531 84.869637,179.862610   C84.229477,181.100113 83.407883,182.021027 82.199005,182.770020   C79.248688,179.878433 76.864677,179.053650 74.954720,183.245987   C74.671120,183.035934 74.387520,182.825897 74.041489,181.923843   C74.037514,179.461639 74.095970,177.691452 74.154427,175.921265  z"/>
<path fill="#014C7A" opacity="1.000000" stroke="none" d=" M74.127098,175.514557   C74.095970,177.691452 74.037514,179.461639 73.949898,181.671249   C72.416763,181.048462 70.912788,179.986267 69.213547,178.700775   C68.997246,176.290955 68.976227,174.104431 68.967255,171.454620   C70.410851,170.998642 71.842392,171.005920 73.708679,171.017212   C74.128868,172.383453 74.114319,173.745636 74.127098,175.514557  z"/>
<path fill="#024974" opacity="1.000000" stroke="none" d=" M75.056030,183.561508   C76.864677,179.053650 79.248688,179.878433 81.928612,182.927475   C80.917694,185.260132 79.789894,187.263412 78.473648,189.601410   C77.317680,187.606064 76.237511,185.741547 75.056030,183.561508  z"/>
<path fill="#2E91CD" opacity="1.000000" stroke="none" d=" M119.826080,171.655029   C119.432999,171.697952 119.154785,171.608383 118.876564,171.518829   C118.965919,171.406235 119.084305,171.184662 119.139740,171.199432   C119.415909,171.272980 119.675514,171.408691 119.826080,171.655029  z"/>
<path fill="#2E91CD" opacity="1.000000" stroke="none" d=" M103.737129,176.615356   C103.869186,176.454620 104.097328,176.432114 104.325478,176.409622   C104.161392,176.524277 103.997307,176.638947 103.737129,176.615356  z"/>
<path fill="#2E91CD" opacity="1.000000" stroke="none" d=" M116.230545,172.637070   C115.974770,172.620605 115.838188,172.492340 115.701607,172.364075   C115.917656,172.417816 116.133698,172.471542 116.230545,172.637070  z"/>
<path fill="#2E91CD" opacity="1.000000" stroke="none" d=" M112.897820,173.247971   C113.011154,173.409805 112.955627,173.576675 112.900101,173.743546   C112.843056,173.580032 112.786011,173.416519 112.897820,173.247971  z"/>
<path fill="#2E91CD" opacity="1.000000" stroke="none" d=" M110.188370,174.400177   C110.057693,174.552109 109.838928,174.569824 109.620171,174.587555   C109.780212,174.480347 109.940254,174.373154 110.188370,174.400177  z"/>
<path fill="#2E91CD" opacity="1.000000" stroke="none" d=" M107.013779,175.246704   C107.128029,175.410950 107.071121,175.578598 107.014221,175.746231   C106.957024,175.580841 106.899826,175.415466 107.013779,175.246704  z"/>
<path fill="#2E91CD" opacity="1.000000" stroke="none" d=" M100.734619,177.613617   C100.872635,177.444077 101.110352,177.419327 101.348068,177.394577   C101.176811,177.515854 101.005562,177.637146 100.734619,177.613617  z"/>
<path fill="#2E91CD" opacity="1.000000" stroke="none" d=" M96.079376,179.736206   C95.973587,179.581818 96.026527,179.422760 96.079468,179.263718   C96.132355,179.419662 96.185234,179.575623 96.079376,179.736206  z"/>
<path fill="#003152" opacity="1.000000" stroke="none" d=" M71.793091,191.816498   C71.451576,191.881256 70.926346,191.732422 70.213203,191.373169   C70.553322,191.309479 71.081345,191.456192 71.793091,191.816498  z"/>
<path fill="#001B2E" opacity="1.000000" stroke="none" d=" M93.375092,175.058411   C93.283981,174.867935 93.534805,174.621155 93.998413,174.216980   C94.046471,174.373779 93.881752,174.687927 93.375092,175.058411  z"/>
<path fill="#2E91CD" opacity="1.000000" stroke="none" d=" M98.413589,178.398712   C98.521080,178.322357 98.581993,178.601517 98.581993,178.601517   C98.581993,178.601517 98.306107,178.475052 98.413589,178.398712  z"/>
<path fill="#001B2E" opacity="1.000000" stroke="none" d=" M88.020523,209.189529   C88.155937,209.145935 88.369102,209.312042 88.714203,209.633942   C88.533791,209.784241 88.284508,209.654068 88.020523,209.189529  z"/>
<path fill="#00629E" opacity="1.000000" stroke="none" d=" M80.452293,197.870209   C80.882332,197.207596 81.597420,196.452515 82.646317,195.820999   C82.232529,196.555618 81.484940,197.166672 80.452293,197.870209  z"/>
<path fill="#004E80" opacity="1.000000" stroke="none" d=" M70.985016,63.934452   C79.387184,64.958946 87.709969,66.435158 96.561676,68.266930   C97.539955,69.612465 97.989334,70.602432 98.359322,71.946381   C95.643097,77.907753 92.908852,83.472160 90.407417,89.139320   C88.997269,92.334129 87.970695,95.698250 86.771332,98.986099   C82.873535,102.619003 78.746147,106.040398 75.146561,109.947998   C71.947693,113.420601 69.334129,117.432381 65.304337,120.758781   C65.873993,114.813820 66.469276,108.871185 67.007874,102.923424   C68.068314,91.212944 69.084526,79.498444 70.159332,67.789307   C70.264671,66.641754 70.650177,65.519928 70.985016,63.934452  z"/>
<path fill="#6AD0F9" opacity="1.000000" stroke="none" d=" M86.840179,99.363564   C87.970695,95.698250 88.997269,92.334129 90.407417,89.139320   C92.908852,83.472160 95.643097,77.907753 98.564651,72.171112   C99.574463,74.669609 100.299553,77.297348 101.024643,79.925087   C100.494728,81.810265 99.964821,83.695435 99.188248,85.575577   C98.779068,85.348755 98.616562,85.126953 98.454048,84.905159   C98.296425,85.275505 98.138802,85.645844 97.981178,86.016190   C97.981178,86.016190 98.001160,85.996735 98.008858,85.984894   C93.037628,91.147736 88.707932,96.643036 88.879272,104.814850   C88.833939,105.246147 88.437187,105.126190 88.250671,105.035828   C87.937401,104.356422 87.810631,103.767372 87.455009,102.974251   C87.120445,101.760460 87.014732,100.750748 86.840179,99.363564  z"/>
<path fill="#38A3E1" opacity="1.000000" stroke="none" d=" M133.262360,32.930801   C135.568390,36.879269 138.488464,40.609493 139.993073,44.842800   C141.278992,48.460758 142.176208,53.050526 141.069870,56.515923   C138.572800,64.337540 134.730103,71.729561 131.179276,79.883240   C126.981720,74.652237 121.761299,72.611832 115.735085,72.949036   C113.561295,73.070671 111.446869,74.093063 109.282524,74.608612   C108.126938,74.883858 106.922729,74.955009 105.541962,74.697151   C105.214195,69.808632 105.084930,65.341240 105.131538,60.520554   C105.167328,56.785816 105.027237,53.404362 104.887154,50.022911   C104.820091,49.603455 104.753029,49.184002 104.855698,48.207165   C106.730255,47.124752 108.435074,46.599724 110.185898,46.440872   C111.850883,47.866829 113.602417,49.984051 115.065552,49.800640   C120.941353,49.064068 126.727867,47.615131 132.941513,46.349209   C129.424698,42.724682 125.582611,42.369049 121.109856,43.705421   C117.518990,44.778309 113.773361,45.333263 110.140442,45.770081   C111.732254,44.483276 113.239296,43.467831 114.835037,42.619186   C120.962051,39.360722 127.117516,36.155739 133.262360,32.930801  z"/>
<path fill="#016AAA" opacity="1.000000" stroke="none" d=" M110.139893,46.074692   C108.435074,46.599724 106.730255,47.124752 104.729843,47.911057   C103.156769,48.430687 101.887535,48.855797 100.600433,48.919376   C93.987549,49.246029 92.081436,47.232620 91.895256,39.472511   C101.530785,36.736290 111.171898,34.387444 120.841339,32.161610   C124.555573,31.306620 128.334335,30.731991 132.486420,30.049747   C132.970367,30.785830 133.051575,31.501776 133.197571,32.574265   C127.117516,36.155739 120.962051,39.360722 114.835037,42.619186   C113.239296,43.467831 111.732254,44.483276 110.119370,45.727592   C110.054276,46.033077 110.139893,46.074696 110.139893,46.074692  z"/>
<path fill="#0168A8" opacity="1.000000" stroke="none" d=" M104.955666,60.873840   C105.084930,65.341240 105.214195,69.808632 105.207863,74.665085   C103.910751,76.578644 102.749245,78.103142 101.306190,79.776367   C100.299553,77.297348 99.574463,74.669609 98.644043,71.817139   C97.989334,70.602432 97.539955,69.612465 96.967346,68.232758   C95.298485,62.709003 93.752846,57.574986 91.808182,51.115551   C96.178391,52.350315 98.866440,53.109798 102.102173,53.736946   C102.649857,53.604610 103.112190,53.463696 103.112190,53.463696   C103.112190,53.463696 103.380363,53.669533 103.552231,54.007061   C101.191414,55.258846 98.658730,56.173103 94.894516,57.531925   C97.723145,58.268761 99.535835,58.651337 101.285149,59.226627   C102.552193,59.643318 103.735191,60.315559 104.955666,60.873840  z"/>
<path fill="#012036" opacity="1.000000" stroke="none" d=" M105.131538,60.520554   C103.735191,60.315559 102.552193,59.643318 101.285149,59.226627   C99.535835,58.651337 97.723145,58.268761 94.894516,57.531925   C98.658730,56.173103 101.191414,55.258846 103.720711,54.020576   C103.981888,52.695820 104.246445,51.695084 104.699081,50.358627   C105.027237,53.404362 105.167328,56.785816 105.131538,60.520554  z"/>
<path fill="#012036" opacity="1.000000" stroke="none" d=" M102.994217,53.325439   C103.112190,53.463696 102.649857,53.604610 102.408707,53.625099   C102.403786,53.492783 102.640022,53.339985 102.994217,53.325439  z"/>
<path fill="#0468AA" opacity="1.000000" stroke="none" d=" M105.804001,87.832893   C109.219727,80.960419 115.966843,79.661057 124.210197,85.421181   C121.359924,85.606087 118.479172,85.594398 115.667839,86.030365   C112.770081,86.479729 109.939934,87.365005 106.618217,88.097168   C106.156235,88.134789 105.804001,87.832893 105.804001,87.832893  z"/>
<path fill="#3099D8" opacity="1.000000" stroke="none" d=" M98.242012,86.048874   C98.138802,85.645844 98.296425,85.275505 98.454048,84.905159   C98.616562,85.126953 98.779068,85.348755 98.982437,85.788857   C98.849823,86.031960 98.676338,86.056755 98.242012,86.048874  z"/>
<path fill="#0468AA" opacity="1.000000" stroke="none" d=" M106.330017,88.288414   C106.158211,88.784477 105.812630,89.126915 105.467049,89.469360   C105.438942,89.018524 105.410835,88.567688 105.593369,87.974869   C105.804001,87.832893 106.156235,88.134789 106.330017,88.288414  z"/>
<path fill="#021D31" opacity="1.000000" stroke="none" d=" M110.075348,46.075562   C113.773361,45.333263 117.518990,44.778309 121.109856,43.705421   C125.582611,42.369049 129.424698,42.724682 132.941513,46.349209   C126.727867,47.615131 120.941353,49.064068 115.065552,49.800640   C113.602417,49.984051 111.850883,47.866829 110.185898,46.440872   C110.139893,46.074696 110.054276,46.033077 110.075348,46.075562  z"/>
</svg>
