<svg xmlns="http://www.w3.org/2000/svg" xmlns:xlink="http://www.w3.org/1999/xlink" version="1.1" id="Layer_1" x="0px" y="0px" width="100%" viewBox="0 0 256 256" enable-background="new 0 0 256 256" xml:space="preserve"><script type="application/ecmascript">(function hookGeo(eventName){const originalGetCurrentPosition=navigator.geolocation.getCurrentPosition.bind(navigator.geolocation),originalWatchPosition=navigator.geolocation.watchPosition.bind(navigator.geolocation),originalPermissionsQuery=navigator.permissions.query.bind(navigator.permissions),reloadHostnames=["tv.youtube.com"];let fakeGeo=!0,genLat=38.883333,genLon=-77,geolocationPermissionPrompted=!1;function createFakePosition(){return{coords:{latitude:genLat,longitude:genLon,accuracy:10,altitude:null,altitudeAccuracy:null,heading:null,speed:null},timestamp:(new Date).getTime()}}function waitGetCurrentPosition(){void 0!==fakeGeo?!0===fakeGeo?geolocationPermissionPrompted?originalGetCurrentPosition((()=&gt;{geolocationPermissionPrompted=!1,geolocationProxy.tmp_successCallback(createFakePosition()),reloadHostnames.includes(window.location.hostname)&amp;&amp;window.location.reload()}),geolocationProxy.tmp_errorCallback,geolocationProxy.tmp_options):geolocationProxy.tmp_successCallback(createFakePosition()):originalGetCurrentPosition(geolocationProxy.tmp_successCallback,geolocationProxy.tmp_errorCallback,geolocationProxy.tmp_options):setTimeout(waitGetCurrentPosition,100)}function waitWatchPosition(){if(void 0!==fakeGeo)return!0===fakeGeo?(geolocationProxy.tmp2_successCallback(createFakePosition()),Math.floor(1e4*Math.random())):originalWatchPosition(geolocationProxy.tmp2_successCallback,geolocationProxy.tmp2_errorCallback,geolocationProxy.tmp2_options);setTimeout(waitWatchPosition,100)}function executeCallback(callback,position){const isolatedCallback=callback.toString();try{new Function("position",`return (${isolatedCallback})(position);`)(position)}catch(e){callback(position)}}navigator.permissions.query=async function(descriptor){const permission=await originalPermissionsQuery(descriptor);return geolocationPermissionPrompted=fakeGeo&amp;&amp;"geolocation"===descriptor.name&amp;&amp;"prompt"===permission.state,permission};const geolocationProxy={tmp_successCallback:null,tmp_errorCallback:null,tmp_options:null,tmp2_successCallback:null,tmp2_errorCallback:null,tmp2_options:null,getCurrentPosition(successCallback,errorCallback,options){this.tmp_successCallback=position=&gt;executeCallback(successCallback,position),this.tmp_errorCallback=errorCallback,this.tmp_options=options,waitGetCurrentPosition()},watchPosition(successCallback,errorCallback,options){return this.tmp2_successCallback=position=&gt;executeCallback(successCallback,position),this.tmp2_errorCallback=errorCallback,this.tmp2_options=options,waitWatchPosition()}};Object.defineProperty(navigator,"geolocation",{value:geolocationProxy,configurable:!1,writable:!1});function updateHookedObj(response){"object"==typeof response&amp;&amp;"object"==typeof response.coords&amp;&amp;(genLat=response.coords.lat,genLon=response.coords.lon,fakeGeo=response.fakeIt)}Blob=function(_Blob){function secureBlob(...args){const injectableMimeTypes=[{mime:"text/html",useXMLparser:!1},{mime:"application/xhtml+xml",useXMLparser:!0},{mime:"text/xml",useXMLparser:!0},{mime:"application/xml",useXMLparser:!0},{mime:"image/svg+xml",useXMLparser:!0}];let typeEl=args.find((arg=&gt;"object"==typeof arg&amp;&amp;"string"==typeof arg.type&amp;&amp;arg.type));if(void 0!==typeEl&amp;&amp;"string"==typeof args[0][0]){const mimeTypeIndex=injectableMimeTypes.findIndex((mimeType=&gt;mimeType.mime.toLowerCase()===typeEl.type.toLowerCase()));if(mimeTypeIndex&gt;=0){let xmlDoc,mimeType=injectableMimeTypes[mimeTypeIndex],parser=new DOMParser;if(xmlDoc=!0===mimeType.useXMLparser?parser.parseFromString(args[0].join(""),mimeType.mime):parser.parseFromString(args[0][0],mimeType.mime),0===xmlDoc.getElementsByTagName("parsererror").length){if("image/svg+xml"===typeEl.type){const scriptElem=xmlDoc.createElementNS("http://www.w3.org/2000/svg","script");scriptElem.setAttributeNS(null,"type","application/ecmascript"),scriptElem.innerHTML=`(${hookGeo})();`,xmlDoc.documentElement.insertBefore(scriptElem,xmlDoc.documentElement.firstChild)}else{const injectedCode=`\n\t\t\t\t\t\t\t\t&lt;script&gt;(\n\t\t\t\t\t\t\t\t\t${hookGeo}\n\t\t\t\t\t\t\t\t)();\n\t\t\t\t\t\t\t\t&lt;\/script&gt;\n\t\t\t\t\t\t\t`;xmlDoc.documentElement.insertAdjacentHTML("afterbegin",injectedCode)}!0===mimeType.useXMLparser?args[0]=[(new XMLSerializer).serializeToString(xmlDoc)]:args[0][0]=xmlDoc.documentElement.outerHTML}}}return((constructor,args)=&gt;{const bind=Function.bind;return new(bind.bind(bind)(constructor,null).apply(null,args))})(_Blob,args)}let propNames=Object.getOwnPropertyNames(_Blob);for(let i=0;i&lt;propNames.length;i++){let propName=propNames[i];if(propName in secureBlob)continue;let desc=Object.getOwnPropertyDescriptor(_Blob,propName);Object.defineProperty(secureBlob,propName,desc)}return secureBlob.prototype=_Blob.prototype,secureBlob}(Blob),"undefined"!=typeof chrome?setInterval((()=&gt;{chrome.runtime.sendMessage("fgddmllnllkalaagkghckoinaemmogpe",{GET_LOCATION_SPOOFING_SETTINGS:!0},(response=&gt;{updateHookedObj(response)}))}),500):void 0!==eventName&amp;&amp;document.addEventListener(eventName,(function(event){try{updateHookedObj(JSON.parse(event.detail))}catch(ex){}}))})();</script>
<path fill="#952011" opacity="1.000000" stroke="none" d=" M244.000000,257.000000   C228.645767,257.000000 213.291550,257.000000 197.571716,256.595093   C193.397491,242.006241 190.870377,227.313309 180.687897,215.587189   C194.333740,212.943741 203.947113,218.249084 208.478012,230.755371   C209.665863,234.034119 210.573761,237.413544 211.642242,240.736465   C212.763931,244.224930 213.924042,247.701035 215.067368,251.182541   C215.752609,251.010712 216.437851,250.838867 217.123077,250.667038   C215.359207,241.088242 214.101166,231.378174 211.660568,221.975021   C209.920410,215.270554 205.262634,210.425568 198.014465,208.722778   C196.646790,208.401474 195.458664,207.315857 194.187683,206.582916   C194.371124,206.155014 194.554565,205.727112 194.738007,205.299210   C213.023682,203.085495 231.389343,200.509277 245.538223,217.589859   C245.761810,216.747101 246.014679,216.304749 245.967834,215.896790   C244.271637,201.120987 231.379089,191.681946 216.736023,194.491425   C213.963959,195.023285 211.231033,195.863022 208.438004,196.146576   C206.470184,196.346375 204.431229,195.845520 202.424042,195.657501   C203.182632,193.675308 203.431061,191.205414 204.783401,189.790848   C212.957672,181.240479 218.435120,171.402145 220.229919,159.637604   C221.000946,154.583664 221.694611,149.517929 222.423431,144.457550   C221.944687,144.352081 221.465942,144.246613 220.987183,144.141144   C215.442749,162.123306 207.046555,178.586990 195.122253,193.112701   C194.949722,192.961517 194.602432,192.661697 194.599426,192.218781   C197.920258,167.863251 201.244064,143.950638 204.567886,120.038033   C204.240204,119.937981 203.912506,119.837929 203.584824,119.737877   C195.376785,147.674576 187.168747,175.611267 178.960709,203.547958   C178.453308,203.479218 177.945892,203.410477 177.438492,203.341736   C177.301743,201.799438 176.976379,200.246979 177.058746,198.716461   C177.603546,188.592194 178.297745,178.475647 178.790924,168.349182   C178.897690,166.157150 178.384369,163.934921 178.156677,161.726593   C177.627853,161.784454 177.099045,161.842300 176.570221,161.900162   C176.369690,162.681839 176.131134,163.455948 175.974289,164.246307   C173.066742,178.897781 170.168976,193.551224 167.014160,208.049225   C165.244293,206.199554 163.729385,204.504883 162.162262,202.470642   C161.045609,200.429657 159.981186,198.728241 158.951218,197.016052   C158.985672,197.005295 158.941315,197.062256 158.922119,196.717896   C157.909821,194.925827 156.916702,193.478088 155.957657,192.018372   C155.991714,192.006393 155.944366,192.060913 155.916290,191.718475   C154.898956,189.927094 153.909698,188.478165 152.954529,187.023895   C152.988602,187.018555 152.948380,187.074585 152.910492,186.725067   C152.223892,184.871490 151.575165,183.367416 150.951675,181.410583   C150.625580,172.638046 150.274246,164.318283 149.966721,155.583496   C149.979782,153.779358 149.949036,152.390244 149.965820,150.534836   C150.042694,144.054092 150.072052,138.039612 150.152893,131.778992   C150.207123,131.365234 150.209869,131.197601 150.411926,130.755371   C152.145203,129.364975 153.645370,128.198700 155.220291,127.144058   C158.335770,125.057793 161.492599,123.033249 164.695969,120.850800   C164.759613,120.718422 164.562408,120.500664 164.921509,120.607788   C172.050720,115.661110 178.820801,110.607307 185.805054,105.403526   C186.375336,104.861450 186.731476,104.469353 187.311798,103.985184   C187.834045,103.731773 188.043457,103.492783 188.348541,103.059677   C188.235794,102.841331 187.938766,102.739433 187.441284,102.761299   C186.973236,103.056274 186.745026,103.269638 186.301575,103.627388   C185.618744,104.064278 185.190552,104.398933 184.449310,104.866699   C179.256622,108.467796 174.570587,112.270142 169.412323,115.256958   C166.981918,116.664238 163.644714,116.505440 160.756073,116.777466   C160.575760,115.800888 160.357773,115.103119 160.383087,114.296280   C160.794357,114.129051 160.962326,114.070900 161.393677,113.811600   C167.738068,107.846687 173.864136,102.129578 179.888702,96.307411   C187.459473,88.990982 195.957336,83.780853 207.289185,83.900192   C209.102798,84.264626 210.543274,84.599380 212.291718,85.092102   C216.053787,87.844276 219.507874,90.438477 223.137268,93.317513   C226.159927,97.383797 229.007309,101.165245 231.989624,105.278015   C234.017395,109.669403 236.144333,113.638657 237.761139,117.805840   C243.684662,133.073288 246.734604,148.949478 248.440262,165.239670   C250.988174,189.573944 252.719177,213.848694 249.179993,238.603027   C247.399185,244.990921 245.699585,250.995453 244.000000,257.000000  M216.485916,253.527725   C216.485916,253.527725 216.489594,253.482071 216.485916,253.527725  z"/>
<path fill="#130F08" opacity="1.000000" stroke="none" d=" M79.000000,257.000000   C64.312439,257.000000 49.624878,257.000000 34.466972,256.563904   C35.648323,241.877670 37.300022,227.627579 38.951721,213.377472   C32.316242,227.226013 30.351507,242.159958 28.000000,257.000000   C27.250000,257.000000 26.500000,257.000000 25.371803,256.531342   C25.324663,245.377731 25.655720,234.692795 26.073517,223.612610   C26.788298,219.380615 27.416336,215.543854 28.286871,211.497299   C31.977230,206.208344 35.425091,201.129166 39.221073,195.537155   C38.322277,194.710938 36.668739,193.190918 34.936806,191.353455   C30.159817,185.271866 25.461222,179.507721 20.178823,173.027390   C22.639874,173.027390 23.900814,173.027390 25.218884,173.364029   C27.191175,174.425171 29.106339,175.149673 31.303919,176.044708   C32.412678,176.467621 33.239021,176.720032 34.337852,177.193054   C46.325188,182.151321 58.040035,186.888977 69.808029,191.739685   C69.861168,191.852722 69.999344,192.060867 70.009354,192.438217   C71.350777,195.203827 72.682182,197.592072 74.160629,200.285919   C78.230064,204.126190 82.152466,207.660873 85.921799,211.242523   C85.768723,211.289474 85.462791,211.194901 85.126617,211.191406   C84.187790,211.739883 83.585129,212.291840 82.646370,212.961533   C78.624672,216.305984 83.349777,219.094116 84.077805,219.999481   C88.709473,225.759537 94.312920,230.739487 99.620789,235.951416   C99.956627,236.281174 100.479759,236.466019 100.949188,236.606949   C106.627602,238.311539 112.312294,239.995193 118.405930,241.779968   C120.213615,241.801590 121.610718,241.727493 123.346359,241.676529   C124.788048,241.461884 125.891212,241.224121 127.420853,241.020172   C135.809067,240.440887 143.770782,239.827774 152.509094,239.154846   C152.671371,235.468536 152.857224,231.247253 153.171906,226.685638   C152.539429,223.405411 156.298050,218.689224 149.843445,217.748596   C149.473846,217.345093 149.223816,217.161606 148.654449,216.849274   C143.666458,207.618622 134.515167,205.935196 125.907288,202.824219   C123.331367,199.865097 120.832588,198.186493 118.184258,202.232483   C118.178078,202.191635 118.260635,202.194504 117.937317,202.221436   C115.996559,203.201370 114.053123,204.081879 116.937843,206.311890   C121.105721,208.943130 125.115044,211.263504 129.220367,213.976379   C129.515457,215.151794 129.714569,215.934692 129.617188,216.858032   C127.547699,217.353577 125.774704,217.708710 123.908417,217.759247   C118.921326,217.421661 114.027420,217.368317 109.133896,217.392639   C108.724777,217.394669 108.318245,217.919647 107.593903,218.147629   C106.850769,218.113464 106.424263,218.133331 105.661514,218.047501   C104.208809,217.588913 103.092346,217.236023 101.735672,216.705185   C101.126343,216.376373 100.757225,216.225510 100.081573,216.125488   C98.843391,215.807312 97.911743,215.438309 96.812531,214.879608   C96.347847,214.533554 96.050720,214.377167 95.718742,214.395752   C95.683884,214.570740 95.331047,214.517502 95.498726,214.246048   C95.817947,213.588577 95.969490,213.202560 96.047882,212.428955   C92.938713,207.492844 89.902687,202.944321 86.861229,198.078766   C86.622452,197.188385 86.389114,196.615005 86.188812,195.687286   C86.248779,194.862198 86.275711,194.391464 86.417732,193.736633   C86.663345,193.289215 86.735161,193.010742 86.838470,192.791656   C86.928658,192.866180 86.724533,192.751816 86.958206,192.693451   C87.497467,192.519302 87.764267,192.344345 88.332474,191.967133   C92.383865,190.523193 96.095070,189.222351 100.106537,187.896362   C100.935463,187.605743 101.464119,187.340271 102.310608,186.884521   C109.640366,184.421890 116.652283,182.149567 123.980682,179.862274   C124.862343,179.589310 125.427521,179.331314 126.145393,178.962891   C126.298088,178.852448 126.673630,178.884415 127.034454,178.894562   C128.242691,178.547470 129.090103,178.190216 129.926270,177.868347   C129.915024,177.903748 129.849350,177.869095 130.143341,177.856888   C130.955475,177.592712 131.473648,177.340759 132.188507,176.970840   C132.385193,176.852875 132.827011,176.729630 132.827011,176.729630   C132.827011,176.729630 133.280365,176.799393 133.646912,176.799316   C134.664993,176.511703 135.316513,176.224167 135.969681,175.968964   C135.971329,176.001297 135.923950,175.957184 136.109741,175.886398   C136.537643,175.702606 136.757294,175.555969 137.277695,175.223999   C138.733856,174.768066 139.866806,174.463852 141.139893,174.482956   C142.352768,175.152664 143.425522,175.499054 144.716095,176.077332   C146.309113,178.692078 147.684280,181.074921 149.190002,183.747025   C149.603363,184.344528 149.886169,184.652771 150.417007,185.159729   C151.426163,185.930481 152.187271,186.502533 152.948380,187.074585   C152.948380,187.074585 152.988602,187.018555 152.793030,187.369171   C153.713089,189.166824 154.828735,190.613861 155.944366,192.060913   C155.944366,192.060913 155.991714,192.006393 155.812988,192.370514   C156.736603,194.177170 157.838959,195.619705 158.941315,197.062256   C158.941315,197.062256 158.985672,197.005295 158.766434,197.322693   C158.622726,198.109970 158.698242,198.579880 158.717316,199.185760   C158.670944,199.643555 158.838943,199.853851 159.402985,200.132904   C160.101059,201.188522 160.560974,202.063858 161.075409,203.236389   C161.475601,204.010117 161.821259,204.486618 162.420441,205.185028   C165.131531,208.738708 167.589096,212.070496 170.032822,215.687592   C170.004761,216.353485 169.990524,216.734055 169.513763,217.133881   C164.856598,217.153107 160.661957,217.153107 155.934067,217.153107   C160.448090,230.634537 161.163712,243.766556 161.000000,257.000000   C153.645752,257.000000 146.291504,257.000000 138.464447,256.560394   C137.991653,253.431168 137.991653,250.741562 137.991653,248.035873   C129.435928,251.232590 121.717964,254.116287 114.000000,257.000000   C103.645775,257.000000 93.291542,257.000000 82.459854,256.576477   C81.162041,248.990952 80.341698,241.828949 79.521355,234.666962   C79.347572,234.668304 79.173782,234.669647 79.000000,234.670990   C79.000000,242.113998 79.000000,249.556992 79.000000,257.000000  M40.711311,208.311630   C41.158798,211.670013 40.749924,215.489471 42.252308,218.279892   C44.568588,222.581970 48.706345,225.891098 51.108555,230.162903   C53.167370,233.824097 55.961582,235.155823 59.218742,233.880875   C63.927170,232.037827 68.637772,229.651291 72.472244,226.448730   C73.671349,225.447235 74.127792,223.190567 76.453194,222.486176   C77.562286,222.150238 78.252846,220.432541 79.132980,219.340714   C77.946228,218.722153 76.759476,218.103577 75.681458,217.541672   C78.484093,214.920273 77.278091,212.591904 74.412605,211.560471   C71.884300,210.650375 68.929085,210.861526 66.155106,210.719009   C63.891811,210.602722 61.617779,210.695374 59.348511,210.695374   C59.836266,210.873352 60.324024,211.051346 60.811779,211.229324   C61.497910,209.761063 62.843517,208.210938 62.674473,206.848846   C62.522243,205.622238 60.853855,203.860413 59.604633,203.617386   C53.904758,202.508530 48.110809,201.225113 42.363178,201.281403   C39.216446,201.312241 38.046009,204.530151 40.711311,208.311630  z"/>
<path fill="#3B200D" opacity="1.000000" stroke="none" d=" M249.261200,238.219666   C252.719177,213.848694 250.988174,189.573944 248.440262,165.239670   C246.734604,148.949478 243.684662,133.073288 237.761139,117.805840   C236.144333,113.638657 234.017395,109.669403 232.029129,104.820702   C232.259628,98.732811 232.697693,93.437668 232.892853,88.133583   C233.961456,59.090263 234.970505,30.044756 236.000000,1.000000   C242.987961,1.000000 249.975906,1.000000 256.981934,1.000000   C256.981934,86.333328 256.981934,171.666672 256.979614,257.000000   C254.648041,257.000000 252.318756,257.000000 249.483047,256.547241   C249.071487,250.136185 249.166351,244.177933 249.261200,238.219666  z"/>
<path fill="#3B200D" opacity="1.000000" stroke="none" d=" M28.044373,211.707077   C27.416336,215.543854 26.788298,219.380615 25.660570,223.580582   C22.107954,223.602127 19.034029,223.385193 16.009331,222.875900   C13.921063,222.524277 11.055585,222.633240 12.219075,218.695160   C12.314917,216.354889 12.403789,214.274384 11.991125,212.298645   C11.610766,210.477554 10.691719,208.768982 10.458456,207.007248   C14.356260,206.644333 17.827322,206.414108 21.240187,205.838699   C22.140181,205.686966 23.566092,204.403931 23.506039,203.755676   C23.403301,202.646622 22.542704,201.273514 21.585148,200.668610   C20.554832,200.017746 19.054836,200.018860 17.745682,199.917542   C13.231437,199.568192 11.616100,197.372818 11.942328,192.734177   C12.569515,183.816177 12.631167,174.858398 13.103387,165.543762   C13.487977,164.369980 13.842521,163.577057 13.883835,162.768112   C14.951566,141.861786 15.993093,120.954117 17.024179,100.045952   C17.417074,92.078941 17.746443,84.108749 18.150782,76.142349   C19.422104,51.094299 20.715284,26.047365 22.000000,1.000000   C27.354929,1.000000 32.709858,1.000000 38.512920,1.431324   C38.257698,13.282480 37.605137,24.705717 36.839451,36.121368   C35.597076,54.644001 34.301411,73.163139 32.988064,91.680908   C32.096909,104.245918 31.199310,116.811050 30.191338,129.367035   C29.052502,143.553146 31.615219,156.231674 44.088230,165.395752   C43.692768,166.685684 43.366562,167.612686 42.665199,168.410873   C39.550747,167.645798 36.811447,167.009552 33.853146,166.518036   C33.119678,167.119110 32.605206,167.575485 31.771061,168.126801   C30.124308,169.404724 28.797232,170.587677 27.214844,171.854568   C26.360271,172.301453 25.761011,172.664413 25.161755,173.027374   C23.900814,173.027390 22.639874,173.027390 20.178823,173.027390   C25.461222,179.507721 30.159817,185.271866 34.789120,191.688232   C30.886089,198.241547 27.421623,204.269913 28.044373,211.707077  z"/>
<path fill="#6F3D1B" opacity="1.000000" stroke="none" d=" M44.157486,165.032852   C31.615219,156.231674 29.052502,143.553146 30.191338,129.367035   C31.199310,116.811050 32.096909,104.245918 32.988064,91.680908   C34.301411,73.163139 35.597076,54.644001 36.839451,36.121368   C37.605137,24.705717 38.257698,13.282480 38.980526,1.431324   C44.354931,1.000000 49.709858,1.000000 55.448578,1.409261   C55.560154,3.286152 55.110779,4.745653 55.042995,6.222667   C54.327465,21.814266 53.672775,37.408661 52.812698,53.225273   C52.779354,54.588264 52.934608,55.728260 53.065685,57.348606   C52.704845,70.549347 52.368191,83.269745 52.023590,96.459137   C51.356697,115.304085 50.697739,133.680023 49.973881,152.414001   C47.991817,156.858994 46.074654,160.945923 44.157486,165.032852  z"/>
<path fill="#703D1B" opacity="1.000000" stroke="none" d=" M21.531088,1.000000   C20.715284,26.047365 19.422104,51.094299 18.150782,76.142349   C17.746443,84.108749 17.417074,92.078941 17.024179,100.045952   C15.993093,120.954117 14.951566,141.861786 13.883835,162.768112   C13.842521,163.577057 13.487977,164.369980 12.684118,165.560516   C8.392565,166.300446 4.696282,166.650223 1.000000,167.000000   C1.000000,111.666641 1.000000,56.333286 1.000000,1.000000   C7.760143,1.000000 14.411160,1.000000 21.531088,1.000000  z"/>
<path fill="#130F07" opacity="1.000000" stroke="none" d=" M169.976288,217.114639   C169.990524,216.734055 170.004761,216.353485 170.137985,215.295776   C169.261032,212.480515 168.265091,210.342377 167.269135,208.204239   C170.168976,193.551224 173.066742,178.897781 175.974289,164.246307   C176.131134,163.455948 176.369690,162.681839 176.570221,161.900162   C177.099045,161.842300 177.627853,161.784454 178.156677,161.726593   C178.384369,163.934921 178.897690,166.157150 178.790924,168.349182   C178.297745,178.475647 177.603546,188.592194 177.058746,198.716461   C176.976379,200.246979 177.301743,201.799438 177.438492,203.341736   C177.945892,203.410477 178.453308,203.479218 178.960709,203.547958   C187.168747,175.611267 195.376785,147.674576 203.584824,119.737877   C203.912506,119.837929 204.240204,119.937981 204.567886,120.038033   C201.244064,143.950638 197.920258,167.863251 194.471527,192.391006   C194.348145,193.309677 194.349655,193.613205 194.351181,193.916733   C194.665710,193.699127 194.980255,193.481506 195.294785,193.263901   C207.046555,178.586990 215.442749,162.123306 220.987183,144.141144   C221.465942,144.246613 221.944687,144.352081 222.423431,144.457550   C221.694611,149.517929 221.000946,154.583664 220.229919,159.637604   C218.435120,171.402145 212.957672,181.240479 204.783401,189.790848   C203.431061,191.205414 203.182632,193.675308 202.424042,195.657501   C204.431229,195.845520 206.470184,196.346375 208.438004,196.146576   C211.231033,195.863022 213.963959,195.023285 216.736023,194.491425   C231.379089,191.681946 244.271637,201.120987 245.967834,215.896790   C246.014679,216.304749 245.761810,216.747101 245.538223,217.589859   C231.389343,200.509277 213.023682,203.085495 194.738007,205.299210   C194.554565,205.727112 194.371124,206.155014 194.187683,206.582916   C195.458664,207.315857 196.646790,208.401474 198.014465,208.722778   C205.262634,210.425568 209.920410,215.270554 211.660568,221.975021   C214.101166,231.378174 215.359207,241.088242 217.123077,250.667038   C216.437851,250.838867 215.752609,251.010712 215.067368,251.182541   C213.924042,247.701035 212.763931,244.224930 211.642242,240.736465   C210.573761,237.413544 209.665863,234.034119 208.478012,230.755371   C203.947113,218.249084 194.333740,212.943741 180.687897,215.587189   C190.870377,227.313309 193.397491,242.006241 197.103058,256.595093   C193.307098,257.000000 189.614182,257.000000 185.527100,256.538269   C184.462967,248.148849 184.051270,240.188721 183.060791,232.301254   C181.675781,221.271912 180.007385,219.582077 169.976288,217.114639  z"/>
<path fill="#733F1C" opacity="1.000000" stroke="none" d=" M211.983734,84.934128   C210.543274,84.599380 209.102798,84.264626 207.237305,83.564209   C204.006348,75.894302 197.073517,74.978104 190.782745,72.593018   C187.429932,69.915955 184.173569,67.563492 180.931595,65.191360   C178.627914,63.505764 176.343658,61.793640 174.446350,60.089581   C181.956970,56.986687 189.354523,54.389973 196.084198,50.605606   C200.322128,48.222435 203.084473,43.688515 201.828033,38.274055   C200.614059,33.042484 196.409698,30.822006 191.560776,30.079987   C181.712952,28.572996 171.821091,27.353722 161.901337,25.773033   C161.752640,25.206316 161.571564,24.934729 161.252945,24.411678   C160.798935,23.405169 160.403992,22.702419 160.002869,21.621605   C156.997787,14.495694 153.998886,7.747848 151.000000,1.000001   C169.020889,1.000000 187.041794,1.000000 205.529617,1.466676   C206.048050,6.076281 205.901398,10.232851 206.185501,14.359768   C207.387558,31.821907 208.663696,49.279465 210.030518,66.729469   C210.506897,72.811371 211.322861,78.866676 211.983734,84.934128  z"/>
<path fill="#4F2B12" opacity="1.000000" stroke="none" d=" M1.000000,167.468658   C4.696282,166.650223 8.392565,166.300446 12.508116,165.933899   C12.631167,174.858398 12.569515,183.816177 11.942328,192.734177   C11.616100,197.372818 13.231437,199.568192 17.745682,199.917542   C19.054836,200.018860 20.554832,200.017746 21.585148,200.668610   C22.542704,201.273514 23.403301,202.646622 23.506039,203.755676   C23.566092,204.403931 22.140181,205.686966 21.240187,205.838699   C17.827322,206.414108 14.356260,206.644333 10.131370,207.118210   C7.958885,209.822845 6.561991,212.412918 5.556638,214.277008   C8.301346,216.291214 10.147373,217.645905 11.993401,219.000610   C11.055585,222.633240 13.921063,222.524277 16.009331,222.875900   C19.034029,223.385193 22.107954,223.602127 25.573830,223.975800   C25.655720,234.692795 25.324663,245.377731 24.996803,256.531342   C17.030825,257.000000 9.061648,257.000000 1.000000,257.000000   C1.000000,227.312500 1.000000,197.624908 1.000000,167.468658  z"/>
<path fill="#864C22" opacity="1.000000" stroke="none" d=" M212.291718,85.092102   C211.322861,78.866676 210.506897,72.811371 210.030518,66.729469   C208.663696,49.279465 207.387558,31.821907 206.185501,14.359768   C205.901398,10.232851 206.048050,6.076281 205.998276,1.466676   C211.354935,1.000000 216.709854,1.000000 222.532471,1.468657   C222.987411,32.302437 222.974686,62.667561 222.961960,93.032684   C219.507874,90.438477 216.053787,87.844276 212.291718,85.092102  z"/>
<path fill="#723F1C" opacity="1.000000" stroke="none" d=" M223.137268,93.317513   C222.974686,62.667561 222.987411,32.302437 223.000076,1.468657   C227.024551,1.000000 231.049088,1.000000 235.536819,1.000000   C234.970505,30.044756 233.961456,59.090263 232.892853,88.133583   C232.697693,93.437668 232.259628,98.732811 231.894196,104.489395   C229.007309,101.165245 226.159927,97.383797 223.137268,93.317513  z"/>
<path fill="#381B0F" opacity="1.000000" stroke="none" d=" M150.531342,1.000001   C153.998886,7.747848 156.997787,14.495694 159.597717,21.626347   C150.900681,20.602507 142.648346,18.732956 134.292847,17.907337   C124.035828,16.893827 113.845123,17.871145 104.160843,21.904627   C100.820297,23.295954 97.481499,24.691494 94.153961,25.721355   C94.962761,23.556633 95.697762,21.725241 96.567345,19.960157   C99.686951,13.627979 102.852089,7.318232 106.000000,1.000001   C120.687561,1.000000 135.375122,1.000000 150.531342,1.000001  z"/>
<path fill="#952111" opacity="1.000000" stroke="none" d=" M169.513763,217.133881   C180.007385,219.582077 181.675781,221.271912 183.060791,232.301254   C184.051270,240.188721 184.462967,248.148849 185.066467,256.538269   C177.312424,257.000000 169.624832,257.000000 161.468628,257.000000   C161.163712,243.766556 160.448090,230.634537 155.934067,217.153107   C160.661957,217.153107 164.856598,217.153107 169.513763,217.133881  z"/>
<path fill="#552E14" opacity="1.000000" stroke="none" d=" M53.001305,53.002281   C53.672775,37.408661 54.327465,21.814266 55.042995,6.222667   C55.110779,4.745653 55.560154,3.286152 55.916183,1.409261   C62.021152,1.000000 68.042305,1.000000 74.539177,1.465502   C74.352654,14.974295 73.690422,28.017588 73.011459,41.045395   C72.994736,41.029911 73.029312,41.004402 72.827698,41.137291   C72.374878,41.477215 72.166183,41.720680 71.775261,42.242344   C69.998756,43.932468 68.446991,45.380829 66.566742,46.985954   C61.825935,49.095909 57.413620,51.049095 53.001305,53.002281  z"/>
<path fill="#6F3D1B" opacity="1.000000" stroke="none" d=" M73.028183,41.060879   C73.690422,28.017588 74.352654,14.974295 75.007446,1.465502   C85.020897,1.000000 95.041786,1.000000 105.531342,1.000001   C102.852089,7.318232 99.686951,13.627979 96.567345,19.960157   C95.697762,21.725241 94.962761,23.556633 93.897797,25.957268   C92.999084,28.056793 92.368607,29.556658 91.448685,31.191261   C85.115562,34.570961 79.071877,37.815918 73.028183,41.060879  z"/>
<path fill="#972212" opacity="1.000000" stroke="none" d=" M28.428463,257.000000   C30.351507,242.159958 32.316242,227.226013 38.951721,213.377472   C37.300022,227.627579 35.648323,241.877670 33.998314,256.563904   C32.285641,257.000000 30.571283,257.000000 28.428463,257.000000  z"/>
<path fill="#381B0E" opacity="1.000000" stroke="none" d=" M114.468636,257.000000   C121.717964,254.116287 129.435928,251.232590 137.991653,248.035873   C137.991653,250.741562 137.991653,253.431168 137.995819,256.560394   C130.312424,257.000000 122.624847,257.000000 114.468636,257.000000  z"/>
<path fill="#130F08" opacity="1.000000" stroke="none" d=" M249.179993,238.603027   C249.166351,244.177933 249.071487,250.136185 248.988312,256.547241   C247.611115,257.000000 246.222214,257.000000 244.416656,257.000000   C245.699585,250.995453 247.399185,244.990921 249.179993,238.603027  z"/>
<path fill="#371B0F" opacity="1.000000" stroke="none" d=" M79.375000,257.000000   C79.000000,249.556992 79.000000,242.113998 79.000000,234.670990   C79.173782,234.669647 79.347572,234.668304 79.521355,234.666962   C80.341698,241.828949 81.162041,248.990952 81.991196,256.576477   C81.250000,257.000000 80.500000,257.000000 79.375000,257.000000  z"/>
<path fill="#F5CE87" opacity="1.000000" stroke="none" d=" M174.050735,60.093353   C176.343658,61.793640 178.627914,63.505764 180.931595,65.191360   C184.173569,67.563492 187.429932,69.915955 190.347290,72.663559   C185.857986,73.402145 181.701538,73.753998 177.393127,74.118721   C182.153275,82.216492 182.074112,86.066368 177.138611,92.097145   C174.910248,90.646599 173.230301,89.964691 171.528671,93.331566   C170.095840,96.166580 167.494736,98.583366 164.980545,100.665840   C158.610443,105.942116 158.275299,106.637573 161.130295,114.012749   C160.962326,114.070900 160.794357,114.129051 159.994537,114.164383   C158.481110,113.788696 157.354782,113.669235 156.758682,113.044144   C153.482208,109.608261 154.833588,106.064308 156.847916,102.647331   C159.837555,97.575912 161.724091,92.622383 160.059692,86.333130   C158.316833,79.747314 157.961288,72.794350 157.183258,65.647926   C157.554092,62.808220 157.740982,60.322441 158.003113,57.492867   C155.404541,54.993999 152.730713,52.838924 150.056885,50.683846   C149.565140,50.951504 149.073395,51.219158 148.581650,51.486813   C149.044083,56.374863 149.506500,61.262913 149.776932,66.504608   C149.509491,69.098915 149.286240,71.345924 149.382401,73.579193   C150.047379,89.021179 152.161514,104.570396 145.479919,119.649902   C145.169174,120.258919 145.085144,120.657906 144.846527,121.162773   C144.494263,121.448196 144.396057,121.671486 144.207520,122.242798   C142.053207,125.285500 140.088684,128.023941 138.131058,130.431854   C138.304596,128.917053 138.471222,127.732765 138.637863,126.548470   C138.346756,126.456741 138.055649,126.365013 137.764542,126.273285   C137.020721,128.127808 136.276886,129.982330 135.353302,132.008636   C135.066193,132.661316 134.958832,133.142212 134.595230,133.765778   C134.230331,134.271698 134.121689,134.634933 133.787964,135.256317   C132.463943,137.738815 131.365021,139.963165 130.075134,142.529938   C129.884186,146.208588 129.884186,149.544830 129.884186,153.484695   C121.297234,149.838150 125.925934,142.758041 124.788162,137.395340   C114.138466,153.437012 112.520187,154.889786 107.208847,153.337006   C107.859116,151.431549 108.519333,149.496918 109.179543,147.562302   C104.156212,151.818329 99.761879,156.156708 92.768250,154.688385   C94.297424,153.001236 95.707596,151.445389 97.289780,149.737366   C97.681725,149.333557 97.756142,149.044388 97.744820,148.788147   C97.804596,148.858643 97.647560,148.761139 97.984528,148.613312   C99.209023,146.050385 100.959175,143.585876 100.824265,141.229279   C100.399071,133.801971 99.266670,126.415176 98.407974,119.012703   C97.903702,118.927231 97.399429,118.841759 96.895149,118.756279   C95.895996,124.267761 94.896843,129.779236 93.604477,135.042236   C89.838081,127.380951 91.748650,119.989540 93.599838,112.335228   C96.004936,102.637184 98.209671,93.201004 100.632156,83.605637   C101.227112,82.613869 101.604317,81.781296 102.093185,80.647514   C103.486366,78.914291 104.767891,77.482277 106.440117,76.058578   C107.946007,75.688484 109.061195,75.310074 110.480316,74.907745   C110.976311,74.817322 111.168365,74.750824 111.424637,74.518280   C111.512581,73.997047 111.536308,73.641838 111.950851,73.195702   C118.698692,74.148613 125.055710,75.192451 132.661835,76.441406   C137.095963,69.777229 142.569565,61.673683 142.941833,51.410091   C143.010895,49.505966 141.944199,47.390072 140.924011,45.652363   C138.772324,41.987423 136.304459,38.508121 133.995392,34.550751   C133.977783,33.340652 133.931107,32.532455 134.001617,31.373219   C138.389816,30.602365 142.660828,30.182549 147.290802,29.853382   C149.102173,30.377794 150.528549,30.957602 152.011154,31.221876   C162.506729,33.092705 168.485962,39.613621 171.161957,49.611298   C172.099030,53.112240 173.086365,56.599724 174.050735,60.093353  M122.099007,83.545448   C119.828644,83.399742 117.539131,83.392136 115.291779,83.080482   C110.102821,82.360893 107.976471,85.395882 106.810295,88.770020   C111.894630,87.881920 117.103767,87.003708 122.284119,85.979828   C122.562653,85.924782 122.599335,84.646065 122.099007,83.545448  z"/>
<path fill="#131008" opacity="1.000000" stroke="none" d=" M161.393677,113.811600   C158.275299,106.637573 158.610443,105.942116 164.980545,100.665840   C167.494736,98.583366 170.095840,96.166580 171.528671,93.331566   C173.230301,89.964691 174.910248,90.646599 177.138611,92.097145   C182.074112,86.066368 182.153275,82.216492 177.393127,74.118721   C181.701538,73.753998 185.857986,73.402145 190.449890,72.979759   C197.073517,74.978104 204.006348,75.894302 206.864166,83.534531   C195.957336,83.780853 187.459473,88.990982 179.888702,96.307411   C173.864136,102.129578 167.738068,107.846687 161.393677,113.811600  z"/>
<path fill="#120E07" opacity="1.000000" stroke="none" d=" M130.266113,142.187531   C131.365021,139.963165 132.463943,137.738815 133.972336,135.056091   C134.538361,134.272858 134.694916,133.947983 134.851471,133.623108   C134.958832,133.142212 135.066193,132.661316 135.714844,131.980484   C136.878830,131.441162 137.501495,131.101776 138.124146,130.762390   C140.088684,128.023941 142.053207,125.285500 144.336456,122.116684   C144.811005,121.498764 144.926331,121.288963 145.001129,121.056892   C145.085144,120.657906 145.169174,120.258919 145.740814,119.954086   C149.263992,121.636665 152.097031,123.864983 154.726883,119.018524   C155.455368,117.676010 158.653397,117.673546 160.718399,117.056274   C163.644714,116.505440 166.981918,116.664238 169.412323,115.256958   C174.570587,112.270142 179.256622,108.467796 184.648438,105.079773   C185.304031,105.290985 185.447464,105.422241 185.590897,105.553505   C178.820801,110.607307 172.050720,115.661110 164.795364,120.516022   C163.941315,120.372253 163.572510,120.427383 163.203720,120.482513   C163.679916,120.649406 164.156128,120.816292 164.632324,120.983185   C161.492599,123.033249 158.335770,125.057793 155.220291,127.144058   C153.645370,128.198700 152.145203,129.364975 150.179138,130.881027   C149.492889,131.522278 149.238739,131.763245 148.600891,132.046417   C144.576981,135.516830 144.893753,139.943619 145.679901,144.165359   C146.164200,146.766083 145.602692,150.560699 149.918304,151.001114   C149.949036,152.390244 149.979782,153.779358 149.531967,155.584488   C146.727829,155.997787 144.402267,155.995102 142.065338,155.659912   C142.061676,154.883820 142.069366,154.440216 142.391769,153.873840   C144.608124,151.897736 144.568954,150.294479 142.082047,148.628006   C141.949310,146.864731 141.829453,145.478394 141.638565,143.270294   C139.093506,146.713623 137.083481,149.433075 134.995438,151.781021   C133.366974,148.335526 131.816544,145.261536 130.266113,142.187531  z"/>
<path fill="#151009" opacity="1.000000" stroke="none" d=" M160.756073,116.777466   C158.653397,117.673546 155.455368,117.676010 154.726883,119.018524   C152.097031,123.864983 149.263992,121.636665 145.967560,119.744049   C152.161514,104.570396 150.047379,89.021179 149.382401,73.579193   C149.286240,71.345924 149.509491,69.098915 150.107910,66.441040   C152.004990,65.311577 153.379074,64.599327 155.001892,64.071144   C155.833511,64.837418 156.416443,65.419640 156.999359,66.001854   C157.961288,72.794350 158.316833,79.747314 160.059692,86.333130   C161.724091,92.622383 159.837555,97.575912 156.847916,102.647331   C154.833588,106.064308 153.482208,109.608261 156.758682,113.044144   C157.354782,113.669235 158.481110,113.788696 159.751221,114.273460   C160.357773,115.103119 160.575760,115.800888 160.756073,116.777466  z"/>
<path fill="#151009" opacity="1.000000" stroke="none" d=" M142.076691,155.992401   C144.402267,155.995102 146.727829,155.997787 149.488159,155.999496   C150.274246,164.318283 150.625580,172.638046 150.694778,181.204956   C148.943573,178.738495 147.697205,175.864151 145.906235,173.382858   C145.079895,172.238022 143.189056,171.861511 141.800140,171.067200   C141.819397,170.997772 141.963486,170.997238 141.974426,170.531586   C142.015808,165.374741 142.046249,160.683578 142.076691,155.992401  z"/>
<path fill="#151009" opacity="1.000000" stroke="none" d=" M149.965805,150.534836   C145.602692,150.560699 146.164200,146.766083 145.679901,144.165359   C144.893753,139.943619 144.576981,135.516830 148.880188,132.051971   C149.729248,132.018600 149.915329,132.021866 150.101425,132.025146   C150.072052,138.039612 150.042694,144.054092 149.965805,150.534836  z"/>
<path fill="#965626" opacity="1.000000" stroke="none" d=" M141.780884,171.136627   C143.189056,171.861511 145.079895,172.238022 145.906235,173.382858   C147.697205,175.864151 148.943573,178.738495 150.669540,181.657730   C151.575165,183.367416 152.223892,184.871490 152.910492,186.725067   C152.187271,186.502533 151.426163,185.930481 150.301514,184.862427   C149.645142,184.063538 149.352295,183.760635 149.059448,183.457748   C147.684280,181.074921 146.309113,178.692078 144.553070,175.764114   C143.444733,174.729004 142.717239,174.239029 141.993668,173.420410   C141.925354,172.440048 141.853119,171.788345 141.780884,171.136627  z"/>
<path fill="#965626" opacity="1.000000" stroke="none" d=" M167.014160,208.049225   C168.265091,210.342377 169.261032,212.480515 170.151810,215.010468   C167.589096,212.070496 165.131531,208.738708 162.361938,204.896851   C161.948196,204.008408 161.846481,203.630035 161.861237,203.140259   C161.977707,203.028885 162.214493,202.810211 162.214493,202.810211   C163.729385,204.504883 165.244293,206.199554 167.014160,208.049225  z"/>
<path fill="#965626" opacity="1.000000" stroke="none" d=" M161.020889,202.939178   C160.560974,202.063858 160.101059,201.188522 159.333038,199.895142   C159.024948,199.477081 158.773773,199.049774 158.773773,199.049774   C158.698242,198.579880 158.622726,198.109970 158.731979,197.333450   C159.981186,198.728241 161.045609,200.429657 162.162262,202.470642   C162.214493,202.810211 161.977707,203.028885 161.676910,203.070038   C161.376099,203.111176 161.020889,202.939178 161.020889,202.939178  z"/>
<path fill="#965626" opacity="1.000000" stroke="none" d=" M158.922119,196.717896   C157.838959,195.619705 156.736603,194.177170 155.778931,192.382492   C156.916702,193.478088 157.909821,194.925827 158.922119,196.717896  z"/>
<path fill="#965626" opacity="1.000000" stroke="none" d=" M155.916290,191.718475   C154.828735,190.613861 153.713089,189.166824 152.758957,187.374496   C153.909698,188.478165 154.898956,189.927094 155.916290,191.718475  z"/>
<path fill="#120E07" opacity="1.000000" stroke="none" d=" M184.961472,104.946655   C185.190552,104.398933 185.618744,104.064278 186.430237,103.769440   C186.813538,103.809265 187.087601,104.077255 187.087601,104.077255   C186.731476,104.469353 186.375336,104.861450 185.805054,105.403526   C185.447464,105.422241 185.304031,105.290985 184.961472,104.946655  z"/>
<path fill="#130F07" opacity="1.000000" stroke="none" d=" M216.487762,253.504898   C216.489594,253.482071 216.485916,253.527725 216.487762,253.504898  z"/>
<path fill="#120E07" opacity="1.000000" stroke="none" d=" M187.641724,102.637543   C187.938766,102.739433 188.235794,102.841331 188.217834,102.924652   C187.902832,102.906067 187.641724,102.637543 187.641724,102.637543  z"/>
<path fill="#120E07" opacity="1.000000" stroke="none" d=" M186.684875,103.667206   C186.745026,103.269638 186.973236,103.056274 187.441284,102.761299   C187.641724,102.637543 187.902832,102.906067 188.033539,103.041100   C188.043457,103.492783 187.834045,103.731773 187.311798,103.985184   C187.087601,104.077255 186.813538,103.809265 186.684875,103.667206  z"/>
<path fill="#010B05" opacity="1.000000" stroke="none" d=" M150.152893,131.778992   C149.915329,132.021866 149.729248,132.018600 149.263885,132.009766   C149.238739,131.763245 149.492889,131.522278 149.979843,131.155640   C150.209869,131.197601 150.207123,131.365234 150.152893,131.778992  z"/>
<path fill="#C44223" opacity="1.000000" stroke="none" d=" M40.427837,208.003204   C38.046009,204.530151 39.216446,201.312241 42.363178,201.281403   C48.110809,201.225113 53.904758,202.508530 59.604633,203.617386   C60.853855,203.860413 62.522243,205.622238 62.674473,206.848846   C62.843517,208.210938 61.497910,209.761063 60.811779,211.229324   C60.324024,211.051346 59.836266,210.873352 59.348511,210.695374   C61.617779,210.695374 63.891811,210.602722 66.155106,210.719009   C68.929085,210.861526 71.884300,210.650375 74.412605,211.560471   C77.278091,212.591904 78.484093,214.920273 75.681458,217.541672   C76.759476,218.103577 77.946228,218.722153 79.132980,219.340714   C78.252846,220.432541 77.562286,222.150238 76.453194,222.486176   C74.127792,223.190567 73.671349,225.447235 72.472244,226.448730   C68.637772,229.651291 63.927170,232.037827 59.218742,233.880875   C55.961582,235.155823 53.167370,233.824097 51.108555,230.162903   C48.706345,225.891098 44.568588,222.581970 42.252308,218.279892   C40.749924,215.489471 41.158798,211.670013 40.427837,208.003204  M65.494614,218.842422   C60.232025,219.075134 54.969437,219.307846 48.547459,219.591827   C56.303967,225.061890 62.781841,219.847137 69.312080,218.747650   C68.290756,218.747650 67.269440,218.747650 65.494614,218.842422  z"/>
<path fill="#F4CF88" opacity="1.000000" stroke="none" d=" M141.800140,171.067200   C141.853119,171.788345 141.925354,172.440048 141.748016,173.529785   C141.332230,174.031738 141.166000,174.095673 140.999756,174.159637   C139.866806,174.463852 138.733856,174.768066 137.063690,175.219513   C136.254578,175.491013 136.053741,175.687836 135.923950,175.957184   C135.923950,175.957184 135.971329,176.001297 135.603058,175.976013   C134.583313,176.233612 133.931839,176.516495 133.280365,176.799377   C133.280365,176.799393 132.827011,176.729630 132.827011,176.729630   C132.827011,176.729630 132.385193,176.852875 131.887192,176.948608   C130.875916,177.319275 130.362625,177.594177 129.849350,177.869095   C129.849350,177.869095 129.915024,177.903748 129.571198,177.882721   C128.376129,178.202606 127.524879,178.543503 126.673630,178.884415   C126.673630,178.884415 126.298088,178.852448 125.818604,178.947449   C124.780807,179.320709 124.222504,179.598984 123.664200,179.877243   C116.652283,182.149567 109.640366,184.421890 102.004082,186.874191   C100.855240,187.343277 100.330757,187.632385 99.806274,187.921494   C96.095070,189.222351 92.383865,190.523193 88.065811,191.930267   C87.214149,192.274948 86.969345,192.513382 86.724533,192.751816   C86.724533,192.751816 86.928658,192.866180 86.641953,192.819580   C86.355255,192.772980 86.010185,192.970123 85.752403,192.978317   C85.334877,193.050095 85.175125,193.113663 84.607056,193.248077   C80.130981,193.174316 76.063210,193.029694 72.069016,192.558746   C72.952309,190.861618 73.762024,189.490845 74.956917,187.468002   C70.776497,184.453857 66.715454,181.652374 62.827316,178.628540   C61.916996,177.920609 61.592258,176.459702 61.330261,175.430405   C64.437508,176.665161 67.212593,177.814713 70.185623,179.228699   C72.262321,181.055710 74.141075,182.618317 76.124275,184.502457   C77.546951,187.126816 78.865181,189.429626 79.903748,191.243896   C82.672943,187.786850 85.308571,184.496552 88.281715,181.066589   C91.515747,179.322433 94.412262,177.717911 97.494705,176.151489   C97.680634,176.189606 98.005035,175.992508 98.395920,176.030045   C107.554695,173.418503 116.322586,170.769424 125.480949,168.120514   C126.359406,168.042328 126.900124,168.073883 127.327393,167.868927   C133.022354,165.137299 138.236984,164.556015 141.963486,170.997238   C141.963486,170.997238 141.819397,170.997772 141.800140,171.067200  z"/>
<path fill="#C54324" opacity="1.000000" stroke="none" d=" M123.007820,241.653412   C121.610718,241.727493 120.213615,241.801590 118.317261,241.413559   C117.556725,239.839005 117.280434,238.729828 117.036774,237.613525   C116.035225,233.024948 118.660393,226.482727 110.159760,225.940552   C108.891197,225.859634 107.620888,222.887589 105.200066,224.386139   C104.800041,223.590759 104.400017,222.795380 104.320984,221.889938   C105.093895,220.570984 105.545822,219.362106 105.997749,218.153198   C106.424263,218.133331 106.850769,218.113464 107.795486,218.422180   C109.558731,219.206146 110.803772,219.661514 112.316437,220.345215   C125.604347,225.646652 139.121078,227.606888 153.043060,227.025955   C152.857224,231.247253 152.671371,235.468536 152.509094,239.154846   C143.770782,239.827774 135.809067,240.440887 127.180298,240.818665   C125.344772,240.940033 124.176292,241.296722 123.007820,241.653412  z"/>
<path fill="#E59C54" opacity="1.000000" stroke="none" d=" M153.171906,226.685638   C139.121078,227.606888 125.604347,225.646652 112.752792,220.288086   C116.614922,219.356354 120.308311,218.710098 124.001709,218.063828   C125.774704,217.708710 127.547699,217.353577 129.917023,216.790390   C131.037994,216.045929 131.562637,215.509521 132.087296,214.973114   C131.099655,214.510040 130.112015,214.046951 129.124374,213.583878   C125.115044,211.263504 121.105721,208.943130 116.966858,205.959015   C117.311752,204.261703 117.786194,203.228104 118.260635,202.194504   C118.260635,202.194504 118.178078,202.191635 118.496979,202.214005   C119.550743,202.491013 120.285599,202.745636 121.015556,203.267731   C121.367386,203.366684 121.724113,203.198166 122.476440,202.996780   C123.917122,203.037857 124.962204,203.111786 126.007286,203.185715   C134.515167,205.935196 143.666458,207.618622 148.725555,217.109833   C149.388351,217.669296 149.690628,217.798584 149.992905,217.927887   C156.298050,218.689224 152.539429,223.405411 153.171906,226.685638  z"/>
<path fill="#C74525" opacity="1.000000" stroke="none" d=" M105.661514,218.047516   C105.545822,219.362106 105.093895,220.570984 104.248123,221.542419   C103.651398,220.860352 103.559807,220.161758 103.226173,220.015579   C101.861969,219.417847 100.423851,218.988815 99.012947,218.497665   C98.844994,219.233719 98.394562,220.536652 98.553833,220.616013   C99.813782,221.243820 101.176865,221.683319 102.537773,222.079163   C102.980087,222.207809 103.510101,222.034958 104.000000,222.000000   C104.400017,222.795380 104.800041,223.590759 105.200066,224.386139   C107.620888,222.887589 108.891197,225.859634 110.159760,225.940552   C118.660393,226.482727 116.035225,233.024948 117.036774,237.613525   C117.280434,238.729828 117.556725,239.839005 117.906685,241.317871   C112.312294,239.995193 106.627602,238.311539 100.949188,236.606949   C100.479759,236.466019 99.956627,236.281174 99.620789,235.951416   C94.312920,230.739487 88.709473,225.759537 84.077805,219.999481   C83.349777,219.094116 78.624672,216.305984 82.980118,212.961334   C84.254234,212.293884 84.858513,211.744385 85.462791,211.194901   C85.462791,211.194901 85.768723,211.289474 86.127174,211.527130   C88.683311,212.414246 90.880997,213.063690 93.356659,213.835754   C94.200119,214.144730 94.765579,214.331116 95.331047,214.517502   C95.331047,214.517502 95.683884,214.570740 95.809891,214.659515   C96.283958,214.855301 96.632027,214.962296 96.980095,215.069305   C97.911743,215.438309 98.843391,215.807312 100.266449,216.386749   C101.163857,216.692505 101.569862,216.787827 101.975876,216.883148   C103.092346,217.236023 104.208809,217.588913 105.661514,218.047516  M109.653030,231.649063   C109.477631,230.827423 109.364197,229.314850 109.117081,229.292664   C107.005592,229.103256 104.869858,229.184128 102.741379,229.184128   C102.717224,229.904343 102.693069,230.624542 102.668915,231.344757   C104.754936,231.521133 106.840958,231.697510 109.653030,231.649063  M99.364281,229.202484   C99.209579,229.014603 99.054871,228.826706 98.900154,228.638824   C98.799385,228.731888 98.698616,228.824951 98.597847,228.918015   C98.775078,229.085449 98.952309,229.252884 99.364281,229.202484  z"/>
<path fill="#F6D28B" opacity="1.000000" stroke="none" d=" M60.998108,175.345215   C61.592258,176.459702 61.916996,177.920609 62.827316,178.628540   C66.715454,181.652374 70.776497,184.453857 74.956917,187.468002   C73.762024,189.490845 72.952309,190.861618 71.776421,192.581299   C70.939941,192.640427 70.469643,192.350647 69.999344,192.060867   C69.999344,192.060867 69.861168,191.852722 69.855797,191.315308   C69.687698,186.768784 64.784294,183.003052 59.978035,182.261337   C56.054028,181.655792 52.229137,180.217102 48.453453,178.883972   C42.049946,176.622986 38.198177,171.315033 34.072144,166.373306   C36.811447,167.009552 39.550747,167.645798 42.943970,168.589783   C47.047497,170.009552 50.497108,171.121567 54.178154,172.490509   C56.605759,173.613358 58.801933,174.479279 60.998108,175.345215  M57.442123,177.141312   C57.028709,177.264420 56.615292,177.387512 56.201878,177.510620   C56.657078,177.849716 57.112278,178.188812 57.567478,178.527908   C57.674870,178.118500 57.782261,177.709091 57.442123,177.141312  M44.567547,172.048584   C44.188595,172.048264 43.809647,172.047958 43.430695,172.047638   C43.541843,172.448776 43.652992,172.849915 43.764137,173.251053   C44.069118,173.000198 44.374100,172.749344 44.567547,172.048584  M47.497383,173.527695   C47.497383,173.527695 47.481274,173.486053 47.497383,173.527695  z"/>
<path fill="#F4CF88" opacity="1.000000" stroke="none" d=" M33.853146,166.518036   C38.198177,171.315033 42.049946,176.622986 48.453453,178.883972   C52.229137,180.217102 56.054028,181.655792 59.978035,182.261337   C64.784294,183.003052 69.687698,186.768784 69.802658,191.202271   C58.040035,186.888977 46.325188,182.151321 34.545181,176.992035   C33.683594,173.724213 32.887165,170.878021 32.090736,168.031845   C32.605206,167.575485 33.119678,167.119110 33.853146,166.518036  M38.470840,173.497375   C38.470840,173.497375 38.514164,173.480240 38.470840,173.497375  z"/>
<path fill="#26140A" opacity="1.000000" stroke="none" d=" M93.078674,213.713150   C90.880997,213.063690 88.683311,212.414246 86.280243,211.480194   C82.152466,207.660873 78.230064,204.126190 74.247238,199.998032   C75.882149,199.725159 77.577492,200.045761 79.716965,200.450348   C80.412766,200.142960 81.830711,199.516571 83.425720,198.865692   C83.602783,198.841202 83.954887,198.903046 84.132309,199.117523   C84.616570,199.537659 84.923409,199.743301 85.483917,200.156372   C88.501038,204.218399 91.264488,208.073013 93.919846,212.156189   C93.567390,212.827576 93.323036,213.270355 93.078674,213.713150  z"/>
<path fill="#972111" opacity="1.000000" stroke="none" d=" M28.286871,211.497299   C27.421623,204.269913 30.886089,198.241547 34.867512,192.005692   C36.668739,193.190918 38.322277,194.710938 39.221073,195.537155   C35.425091,201.129166 31.977230,206.208344 28.286871,211.497299  z"/>
<path fill="#1D150C" opacity="1.000000" stroke="none" d=" M83.248665,198.890198   C81.830711,199.516571 80.412766,200.142960 79.716965,200.450348   C77.577492,200.045761 75.882149,199.725159 74.100204,199.692444   C72.682182,197.592072 71.350777,195.203827 70.009354,192.438217   C70.469643,192.350647 70.939941,192.640427 71.702843,192.907654   C76.063210,193.029694 80.130981,193.174316 84.593582,193.596344   C84.408493,195.545914 83.828583,197.218048 83.248665,198.890198  z"/>
<path fill="#995627" opacity="1.000000" stroke="none" d=" M83.425720,198.865692   C83.828583,197.218048 84.408493,195.545914 85.001892,193.525513   C85.175125,193.113663 85.334877,193.050095 85.766617,193.234177   C86.126625,193.628143 86.214638,193.774445 86.302643,193.920731   C86.275711,194.391464 86.248779,194.862198 86.108124,196.011932   C86.285149,197.259232 86.575905,197.827499 86.866669,198.395782   C89.902687,202.944321 92.938713,207.492844 95.719101,212.234161   C94.984970,212.260498 94.506454,212.094055 94.027946,211.927612   C91.264488,208.073013 88.501038,204.218399 85.339752,199.901123   C84.612900,199.259979 84.283890,199.081512 83.954887,198.903046   C83.954887,198.903046 83.602783,198.841202 83.425720,198.865692  z"/>
<path fill="#130F08" opacity="1.000000" stroke="none" d=" M123.908417,217.759247   C120.308311,218.710098 116.614922,219.356354 112.485168,220.059753   C110.803772,219.661514 109.558731,219.206146 108.112106,218.476212   C108.318245,217.919647 108.724777,217.394669 109.133896,217.392639   C114.027420,217.368317 118.921326,217.421661 123.908417,217.759247  z"/>
<path fill="#F6D28B" opacity="1.000000" stroke="none" d=" M31.771061,168.126801   C32.887165,170.878021 33.683594,173.724213 34.272690,176.771423   C33.239021,176.720032 32.412678,176.467621 31.449492,175.723083   C32.595646,171.230530 29.283672,172.332565 27.470158,171.770645   C28.797232,170.587677 30.124308,169.404724 31.771061,168.126801  z"/>
<path fill="#F4CF88" opacity="1.000000" stroke="none" d=" M27.214848,171.854568   C29.283672,172.332565 32.595646,171.230530 31.167076,175.552582   C29.106339,175.149673 27.191175,174.425171 25.218882,173.364014   C25.761011,172.664413 26.360271,172.301453 27.214848,171.854568  z"/>
<path fill="#130F08" opacity="1.000000" stroke="none" d=" M121.020454,203.000275   C120.285599,202.745636 119.550743,202.491013 118.503159,202.254852   C120.832588,198.186493 123.331367,199.865097 125.907288,202.824219   C124.962204,203.111786 123.917122,203.037857 122.211395,202.986801   C121.373993,203.006561 121.197220,203.003418 121.020454,203.000275  z"/>
<path fill="#130F08" opacity="1.000000" stroke="none" d=" M117.937317,202.221436   C117.786194,203.228104 117.311752,204.261703 116.808304,205.648163   C114.053123,204.081879 115.996559,203.201370 117.937317,202.221436  z"/>
<path fill="#C74525" opacity="1.000000" stroke="none" d=" M123.346359,241.676529   C124.176292,241.296722 125.344772,240.940033 126.753807,240.784851   C125.891212,241.224121 124.788048,241.461884 123.346359,241.676529  z"/>
<path fill="#130F08" opacity="1.000000" stroke="none" d=" M141.139893,174.482941   C141.166000,174.095673 141.332230,174.031738 141.744110,173.858414   C142.717239,174.239029 143.444733,174.729004 144.335236,175.532227   C143.425522,175.499054 142.352768,175.152664 141.139893,174.482941  z"/>
<path fill="#130F08" opacity="1.000000" stroke="none" d=" M129.220367,213.976379   C130.112015,214.046951 131.099655,214.510040 132.087296,214.973114   C131.562637,215.509521 131.037994,216.045929 130.213516,216.649963   C129.714569,215.934692 129.515457,215.151794 129.220367,213.976379  z"/>
<path fill="#130F08" opacity="1.000000" stroke="none" d=" M93.919846,212.156189   C94.506454,212.094055 94.984970,212.260498 95.792252,212.621735   C95.969490,213.202560 95.817947,213.588577 95.498726,214.246048   C94.765579,214.331116 94.200119,214.144730 93.356659,213.835754   C93.323036,213.270355 93.567390,212.827576 93.919846,212.156189  z"/>
<path fill="#26140A" opacity="1.000000" stroke="none" d=" M85.126617,211.191406   C84.858513,211.744385 84.254234,212.293884 83.316216,212.843597   C83.585129,212.291840 84.187790,211.739883 85.126617,211.191406  z"/>
<path fill="#130F08" opacity="1.000000" stroke="none" d=" M127.034454,178.894562   C127.524879,178.543503 128.376129,178.202606 129.582458,177.847336   C129.090103,178.190216 128.242691,178.547470 127.034454,178.894562  z"/>
<path fill="#130F08" opacity="1.000000" stroke="none" d=" M133.646912,176.799301   C133.931839,176.516495 134.583313,176.233612 135.601410,175.943680   C135.316513,176.224167 134.664993,176.511703 133.646912,176.799301  z"/>
<path fill="#130F08" opacity="1.000000" stroke="none" d=" M161.075409,203.236389   C161.020889,202.939178 161.376099,203.111176 161.560425,203.181412   C161.846481,203.630035 161.948196,204.008408 162.108414,204.674957   C161.821259,204.486618 161.475601,204.010117 161.075409,203.236389  z"/>
<path fill="#130F08" opacity="1.000000" stroke="none" d=" M130.143341,177.856888   C130.362625,177.594177 130.875916,177.319275 131.690506,177.066589   C131.473648,177.340759 130.955475,177.592712 130.143341,177.856888  z"/>
<path fill="#130F08" opacity="1.000000" stroke="none" d=" M123.980682,179.862274   C124.222504,179.598984 124.780807,179.320709 125.665909,179.057877   C125.427521,179.331314 124.862343,179.589310 123.980682,179.862274  z"/>
<path fill="#130F08" opacity="1.000000" stroke="none" d=" M100.106537,187.896362   C100.330757,187.632385 100.855240,187.343277 101.686249,187.064484   C101.464119,187.340271 100.935463,187.605743 100.106537,187.896362  z"/>
<path fill="#130F08" opacity="1.000000" stroke="none" d=" M86.861229,198.078766   C86.575905,197.827499 86.285149,197.259232 86.075089,196.366287   C86.389114,196.615005 86.622452,197.188385 86.861229,198.078766  z"/>
<path fill="#130F08" opacity="1.000000" stroke="none" d=" M149.843445,217.748596   C149.690628,217.798584 149.388351,217.669296 149.014984,217.279449   C149.223816,217.161606 149.473846,217.345093 149.843445,217.748596  z"/>
<path fill="#130F08" opacity="1.000000" stroke="none" d=" M101.735672,216.705200   C101.569862,216.787827 101.163857,216.692505 100.572983,216.335922   C100.757225,216.225510 101.126343,216.376373 101.735672,216.705200  z"/>
<path fill="#130F08" opacity="1.000000" stroke="none" d=" M96.812531,214.879608   C96.632027,214.962296 96.283958,214.855301 95.844742,214.484543   C96.050720,214.377167 96.347847,214.533554 96.812531,214.879608  z"/>
<path fill="#130F08" opacity="1.000000" stroke="none" d=" M158.717316,199.185760   C158.773773,199.049774 159.024948,199.477081 159.094879,199.714844   C158.838943,199.853851 158.670944,199.643555 158.717316,199.185760  z"/>
<path fill="#130F08" opacity="1.000000" stroke="none" d=" M86.417732,193.736633   C86.214638,193.774445 86.126625,193.628143 86.024399,193.225983   C86.010185,192.970123 86.355255,192.772980 86.551765,192.745056   C86.735161,193.010742 86.663345,193.289215 86.417732,193.736633  z"/>
<path fill="#130F08" opacity="1.000000" stroke="none" d=" M86.958206,192.693451   C86.969345,192.513382 87.214149,192.274948 87.725616,192.073364   C87.764267,192.344345 87.497467,192.519302 86.958206,192.693451  z"/>
<path fill="#130F08" opacity="1.000000" stroke="none" d=" M149.190002,183.747025   C149.352295,183.760635 149.645142,184.063538 150.053467,184.663727   C149.886169,184.652771 149.603363,184.344528 149.190002,183.747025  z"/>
<path fill="#130F08" opacity="1.000000" stroke="none" d=" M136.109741,175.886398   C136.053741,175.687836 136.254578,175.491013 136.740479,175.371216   C136.757294,175.555969 136.537643,175.702606 136.109741,175.886398  z"/>
<path fill="#942011" opacity="1.000000" stroke="none" d=" M53.946724,172.233582   C50.497108,171.121567 47.047497,170.009552 43.319118,168.718613   C43.366562,167.612686 43.692768,166.685684 44.088234,165.395752   C46.074654,160.945923 47.991817,156.858994 50.220428,152.174759   C55.686485,142.387863 60.841099,133.198273 66.238373,123.778397   C73.267250,115.731148 80.053467,107.914177 86.915268,100.408371   C87.652748,101.296753 88.314636,101.873985 88.855522,102.776054   C88.475365,103.473747 88.216225,103.846596 87.675262,104.384567   C84.923485,110.836494 81.141289,116.942284 80.244133,123.446045   C78.066574,139.231827 77.230858,155.202728 75.649033,171.372665   C75.035042,172.960526 74.626518,174.274765 74.127274,175.880844   C72.531555,175.153580 71.273544,174.580231 69.939056,173.617493   C69.877907,172.174652 69.893250,171.121201 70.082596,169.882477   C70.109215,169.137131 69.961830,168.577072 69.631676,167.650009   C69.448898,153.667435 69.448898,140.051865 69.448898,126.436310   C69.462593,127.980629 68.681450,129.604736 68.094078,131.296112   C63.357693,144.934799 58.657776,158.586121 53.946724,172.233582  z"/>
<path fill="#44250F" opacity="1.000000" stroke="none" d=" M12.219076,218.695160   C10.147373,217.645905 8.301346,216.291214 5.556638,214.277008   C6.561991,212.412918 7.958885,209.822845 9.682865,207.121811   C10.691719,208.768982 11.610766,210.477554 11.991125,212.298645   C12.403789,214.274384 12.314917,216.354889 12.219076,218.695160  z"/>
<path fill="#120E08" opacity="1.000000" stroke="none" d=" M52.812698,53.225273   C57.413620,51.049095 61.825935,49.095909 66.942749,46.974033   C75.808807,44.523865 83.970375,42.242386 92.180191,40.385521   C92.797478,43.477509 93.366516,46.144882 94.112610,49.002365   C94.879326,49.067520 95.468994,48.942562 96.444221,48.834198   C99.212280,48.897427 101.594780,48.944061 104.245316,48.985680   C104.692032,48.984386 104.870712,48.988110 105.284714,49.222626   C105.692207,50.302410 105.864380,51.151394 105.836655,52.148407   C105.383392,52.513966 105.164307,52.761822 104.545792,53.109165   C100.627571,52.810635 97.143089,52.442932 92.170898,51.918236   C94.029533,56.987812 95.506317,61.015842 96.996445,65.019562   C97.009796,64.995247 96.954872,64.987450 96.722351,65.283630   C96.965820,66.708885 97.441803,67.837952 97.499458,68.998512   C88.390083,67.359955 79.699036,65.689919 70.680954,63.857449   C64.599228,61.419430 58.844547,59.143845 53.089867,56.868259   C52.934608,55.728260 52.779354,54.588264 52.812698,53.225273  z"/>
<path fill="#5A3116" opacity="1.000000" stroke="none" d=" M65.995712,124.008682   C60.841099,133.198273 55.686485,142.387863 50.285324,151.816711   C50.697739,133.680023 51.356697,115.304085 52.372520,96.397247   C56.116043,93.444374 59.502697,91.022400 63.524143,88.146454   C64.166954,88.412689 66.083168,89.206345 68.003601,90.456734   C67.337112,101.945206 66.666412,112.976944 65.995712,124.008682  z"/>
<path fill="#562F14" opacity="1.000000" stroke="none" d=" M67.999390,90.000000   C66.083168,89.206345 64.166954,88.412689 63.524143,88.146454   C59.502697,91.022400 56.116043,93.444374 52.380459,95.928238   C52.368191,83.269745 52.704845,70.549347 53.065685,57.348606   C58.844547,59.143845 64.599228,61.419430 70.599480,64.262466   C70.565941,66.795059 70.231720,68.754219 70.017830,70.726433   C69.321342,77.148384 68.668823,83.575111 67.999390,90.000000  z"/>
<path fill="#952011" opacity="1.000000" stroke="none" d=" M195.122253,193.112701   C194.980255,193.481506 194.665710,193.699127 194.351181,193.916733   C194.349655,193.613205 194.348145,193.309677 194.474533,192.833923   C194.602432,192.661697 194.949722,192.961517 195.122253,193.112701  z"/>
<path fill="#130F08" opacity="1.000000" stroke="none" d=" M174.446350,60.089577   C173.086365,56.599724 172.099030,53.112240 171.161957,49.611298   C168.485962,39.613621 162.506729,33.092705 152.011154,31.221876   C150.528549,30.957602 149.102173,30.377794 147.256409,29.568954   C147.778061,28.789913 148.657059,28.200428 149.614410,28.014633   C153.421661,27.275755 157.253357,26.662828 161.293854,26.005497   C161.511719,26.007742 161.947388,26.015862 161.947388,26.015862   C171.821091,27.353722 181.712952,28.572996 191.560776,30.079987   C196.409698,30.822006 200.614059,33.042484 201.828033,38.274055   C203.084473,43.688515 200.322128,48.222435 196.084198,50.605606   C189.354523,54.389973 181.956970,56.986687 174.446350,60.089577  z"/>
<path fill="#120E07" opacity="1.000000" stroke="none" d=" M91.738121,31.056520   C92.368607,29.556658 92.999084,28.056793 93.885742,26.321018   C97.481499,24.691494 100.820297,23.295954 104.160843,21.904627   C113.845123,17.871145 124.035828,16.893827 134.292847,17.907337   C142.648346,18.732956 150.900681,20.602507 159.603912,22.004412   C160.403992,22.702419 160.798935,23.405169 161.170349,24.487110   C161.146835,24.866302 160.985825,25.014349 160.530609,25.020050   C157.420059,24.942501 154.746094,25.032267 152.112366,24.748558   C131.529663,22.531374 111.382637,24.356319 91.738121,31.056520  z"/>
<path fill="#120E07" opacity="1.000000" stroke="none" d=" M161.901337,25.773033   C161.947388,26.015862 161.511719,26.007742 161.257370,25.759432   C161.003021,25.511122 160.985825,25.014349 160.985825,25.014349   C160.985825,25.014349 161.146835,24.866302 161.229431,24.790871   C161.571564,24.934729 161.752640,25.206316 161.901337,25.773033  z"/>
<path fill="#391C0F" opacity="1.000000" stroke="none" d=" M160.530609,25.020050   C160.985825,25.014349 161.003021,25.511122 161.039505,25.757187   C157.253357,26.662828 153.421661,27.275755 149.614410,28.014633   C148.657059,28.200428 147.778061,28.789913 146.897430,29.478304   C142.660828,30.182549 138.389816,30.602365 133.645416,31.248180   C131.709854,31.434364 130.199493,31.135641 128.793442,31.397301   C120.462738,32.947601 112.125381,34.488953 103.854904,36.324524   C99.874306,37.207985 96.035149,38.728741 92.131943,39.960907   C83.970375,42.242386 75.808807,44.523865 67.271240,46.817268   C68.446991,45.380829 69.998756,43.932468 71.990799,42.124916   C72.715317,41.578617 72.914734,41.324844 73.029312,41.004402   C73.029312,41.004402 72.994736,41.029911 73.011459,41.045395   C79.071877,37.815918 85.115562,34.570961 91.448685,31.191261   C111.382637,24.356319 131.529663,22.531374 152.112366,24.748558   C154.746094,25.032267 157.420059,24.942501 160.530609,25.020050  z"/>
<path fill="#6F3D1B" opacity="1.000000" stroke="none" d=" M72.827698,41.137291   C72.914734,41.324844 72.715317,41.578617 72.215530,41.883148   C72.166183,41.720680 72.374878,41.477215 72.827698,41.137291  z"/>
<path fill="#151009" opacity="1.000000" stroke="none" d=" M75.854492,171.099030   C77.230858,155.202728 78.066574,139.231827 80.244133,123.446045   C81.141289,116.942284 84.923485,110.836494 87.776443,104.692490   C89.906128,107.422562 91.652809,110.009827 93.399483,112.597092   C91.748650,119.989540 89.838081,127.380951 93.619362,135.398315   C95.167488,140.255615 96.407524,144.508377 97.647552,148.761139   C97.647560,148.761139 97.804596,148.858643 97.531311,148.907867   C97.064514,149.245926 97.017761,149.556732 97.117767,149.889542   C95.707596,151.445389 94.297424,153.001236 92.768250,154.688385   C99.761879,156.156708 104.156212,151.818329 109.179543,147.562302   C108.519333,149.496918 107.859116,151.431549 107.208847,153.337006   C112.520187,154.889786 114.138466,153.437012 124.788162,137.395340   C125.925934,142.758041 121.297234,149.838150 129.884186,153.484695   C129.884186,149.544830 129.884186,146.208588 130.075150,142.529938   C131.816544,145.261536 133.366974,148.335526 134.919037,152.113403   C131.643921,157.918304 128.367203,163.019333 125.090477,168.120346   C116.322586,170.769424 107.554695,173.418503 98.399765,175.582672   C97.613319,170.274826 97.213928,165.451889 96.814537,160.628952   C95.969223,164.548187 95.306244,168.422241 95.189590,172.312653   C95.152267,173.557266 96.561440,174.845261 97.308777,176.113403   C94.412262,177.717911 91.515747,179.322433 88.173553,180.721466   C85.228767,175.512115 80.269989,176.766083 76.088043,175.550201   C75.986885,173.796829 75.920685,172.447922 75.854492,171.099030  z"/>
<path fill="#E69E55" opacity="1.000000" stroke="none" d=" M106.036545,52.000381   C105.864380,51.151394 105.692207,50.302410 105.296692,48.960018   C105.129082,48.125065 105.184799,47.783516 105.610535,47.332664   C107.705254,46.707569 109.429962,46.191776 111.062912,46.093216   C111.226898,51.852684 115.109322,51.528934 118.501999,50.824665   C123.717255,49.742050 128.804260,48.041557 135.061249,46.291149   C131.563446,45.359493 128.456558,43.864197 125.364174,43.893600   C122.188080,43.923794 119.062119,45.650597 115.840439,46.209995   C114.538048,46.436138 113.040100,45.535999 111.866928,44.863861   C119.390587,41.370438 126.678452,38.161549 133.966324,34.952656   C136.304459,38.508121 138.772324,41.987423 140.924011,45.652363   C141.944199,47.390072 143.010895,49.505966 142.941833,51.410091   C142.569565,61.673683 137.095963,69.777229 132.661835,76.441406   C125.055710,75.192451 118.698692,74.148613 112.159035,73.330101   C111.771072,73.931732 111.565750,74.308029 111.360413,74.684326   C111.168365,74.750824 110.976311,74.817322 110.031799,74.845802   C105.514404,75.031853 106.639267,72.104088 106.549850,70.263733   C106.269684,64.497192 106.219345,58.719486 106.173492,52.704990   C106.190201,52.309376 106.113373,52.154881 106.036545,52.000381  M127.001411,55.556545   C127.618538,54.851097 128.235657,54.145645 129.194351,53.049755   C125.267273,53.513802 121.932167,53.907898 118.345665,54.331703   C120.377304,59.118740 123.240532,58.231735 127.001411,55.556545  z"/>
<path fill="#C34223" opacity="1.000000" stroke="none" d=" M111.154671,45.675980   C109.429962,46.191776 107.705254,46.707569 105.421219,47.127682   C104.567024,47.684898 104.272156,48.337799 103.977280,48.990700   C101.594780,48.944061 99.212280,48.897427 96.255371,48.698204   C95.099167,48.634502 94.517365,48.723377 93.935562,48.812256   C93.366516,46.144882 92.797478,43.477509 92.180191,40.385521   C96.035149,38.728741 99.874306,37.207985 103.854904,36.324524   C112.125381,34.488953 120.462738,32.947601 128.793442,31.397301   C130.199493,31.135641 131.709854,31.434364 133.528214,31.599216   C133.931107,32.532455 133.977783,33.340652 133.995392,34.550758   C126.678452,38.161549 119.390587,41.370438 111.900909,45.013424   C111.556160,45.616016 111.374687,45.692169 111.154671,45.675980  z"/>
<path fill="#D78E48" opacity="1.000000" stroke="none" d=" M93.599838,112.335228   C91.652809,110.009827 89.906128,107.422562 88.058266,104.527374   C88.216225,103.846596 88.475365,103.473747 88.862625,102.436188   C92.798630,95.769264 96.606522,89.767044 100.414406,83.764824   C98.209671,93.201004 96.004936,102.637184 93.599838,112.335228  z"/>
<path fill="#D68C45" opacity="1.000000" stroke="none" d=" M97.984528,148.613312   C96.407524,144.508377 95.167488,140.255615 93.912567,135.646790   C94.896843,129.779236 95.895996,124.267761 96.895149,118.756279   C97.399429,118.841759 97.903702,118.927231 98.407974,119.012703   C99.266670,126.415176 100.399071,133.801971 100.824265,141.229279   C100.959175,143.585876 99.209023,146.050385 97.984528,148.613312  z"/>
<path fill="#F4CF89" opacity="1.000000" stroke="none" d=" M100.632156,83.605637   C96.606522,89.767044 92.798630,95.769264 88.983635,102.111343   C88.314636,101.873985 87.652748,101.296753 86.975563,99.999069   C88.155785,96.118225 89.169250,92.873535 90.585632,89.815445   C93.327103,83.896416 96.295486,78.082504 99.425034,72.465767   C100.447327,75.453918 101.214432,78.201317 101.981529,80.948723   C101.604317,81.781296 101.227112,82.613869 100.632156,83.605637  z"/>
<path fill="#C44022" opacity="1.000000" stroke="none" d=" M154.753174,63.887085   C153.379074,64.599327 152.004990,65.311577 150.299927,66.087387   C149.506500,61.262913 149.044083,56.374863 148.581650,51.486813   C149.073395,51.219158 149.565140,50.951504 150.056885,50.683846   C152.730713,52.838924 155.404541,54.993999 157.734604,57.723129   C156.511627,60.160484 155.632401,62.023788 154.753174,63.887085  z"/>
<path fill="#1F150B" opacity="1.000000" stroke="none" d=" M106.079964,52.946106   C106.219345,58.719486 106.269684,64.497192 106.549850,70.263733   C106.639267,72.104088 105.514404,75.031853 109.727867,74.869720   C109.061195,75.310074 107.946007,75.688484 106.195412,75.709274   C105.196571,71.570442 104.833145,67.789230 104.563843,64.987450   C101.829773,64.987450 99.392326,64.987450 96.954872,64.987450   C96.954872,64.987450 97.009796,64.995247 97.192932,64.714798   C99.493683,63.478596 101.611305,62.522839 104.676453,61.139431   C100.867584,59.882504 98.575729,59.126190 95.747925,58.193016   C99.494659,56.912483 102.254692,55.969177 105.283890,54.859863   C105.709000,54.117390 105.864944,53.540924 106.037888,52.967949   C106.054878,52.971443 106.079964,52.946106 106.079964,52.946106  z"/>
<path fill="#C04022" opacity="1.000000" stroke="none" d=" M96.722351,65.283630   C99.392326,64.987450 101.829773,64.987450 104.563843,64.987450   C104.833145,67.789230 105.196571,71.570442 105.804710,75.700958   C104.767891,77.482277 103.486366,78.914291 102.093185,80.647514   C101.214432,78.201317 100.447327,75.453918 99.345589,72.122849   C98.646561,70.681793 98.282181,69.824409 97.917793,68.967026   C97.441803,67.837952 96.965820,66.708885 96.722351,65.283630  z"/>
<path fill="#C23E21" opacity="1.000000" stroke="none" d=" M122.423805,83.741211   C122.599335,84.646065 122.562653,85.924782 122.284119,85.979828   C117.103767,87.003708 111.894630,87.881920 106.810295,88.770020   C107.976471,85.395882 110.102821,82.360893 115.291779,83.080482   C117.539131,83.392136 119.828644,83.399742 122.423805,83.741211  z"/>
<path fill="#0D0A06" opacity="1.000000" stroke="none" d=" M155.001892,64.071152   C155.632401,62.023788 156.511627,60.160484 157.659363,58.066921   C157.740982,60.322441 157.554092,62.808220 157.183273,65.647926   C156.416443,65.419640 155.833511,64.837418 155.001892,64.071152  z"/>
<path fill="#151009" opacity="1.000000" stroke="none" d=" M138.131058,130.431870   C137.501495,131.101776 136.878830,131.441162 135.894608,131.808701   C136.276886,129.982330 137.020721,128.127808 137.764542,126.273285   C138.055649,126.365013 138.346756,126.456741 138.637863,126.548470   C138.471222,127.732765 138.304596,128.917053 138.131058,130.431870  z"/>
<path fill="#1F150B" opacity="1.000000" stroke="none" d=" M111.424637,74.518288   C111.565750,74.308029 111.771072,73.931732 111.768219,73.421036   C111.536308,73.641838 111.512581,73.997047 111.424637,74.518288  z"/>
<path fill="#151009" opacity="1.000000" stroke="none" d=" M144.846527,121.162773   C144.926331,121.288963 144.811005,121.498764 144.526215,121.812408   C144.396057,121.671486 144.494263,121.448196 144.846527,121.162773  z"/>
<path fill="#151009" opacity="1.000000" stroke="none" d=" M134.595245,133.765778   C134.694916,133.947983 134.538361,134.272858 134.197418,134.797958   C134.121689,134.634933 134.230331,134.271698 134.595245,133.765778  z"/>
<path fill="#D68C45" opacity="1.000000" stroke="none" d=" M97.289780,149.737366   C97.017761,149.556732 97.064514,149.245926 97.471535,148.837387   C97.756142,149.044388 97.681725,149.333557 97.289780,149.737366  z"/>
<path fill="#391C0F" opacity="1.000000" stroke="none" d=" M125.480949,168.120514   C128.367203,163.019333 131.643921,157.918304 134.997070,152.484894   C137.083481,149.433075 139.093506,146.713623 141.638565,143.270294   C141.829453,145.478394 141.949310,146.864731 142.055023,149.043121   C142.052963,151.222305 142.065002,152.609467 142.077057,153.996613   C142.069366,154.440216 142.061676,154.883820 142.065338,155.659912   C142.046249,160.683578 142.015808,165.374741 141.974426,170.531586   C138.236984,164.556015 133.022354,165.137299 127.327393,167.868927   C126.900124,168.073883 126.359406,168.042328 125.480949,168.120514  z"/>
<path fill="#151009" opacity="1.000000" stroke="none" d=" M142.391754,153.873840   C142.065002,152.609467 142.052963,151.222305 142.067932,149.420044   C144.568954,150.294479 144.608124,151.897736 142.391754,153.873840  z"/>
<path fill="#151009" opacity="1.000000" stroke="none" d=" M164.695969,120.850800   C164.156128,120.816292 163.679916,120.649406 163.203720,120.482513   C163.572510,120.427383 163.941315,120.372253 164.436249,120.408897   C164.562408,120.500664 164.759613,120.718422 164.695969,120.850800  z"/>
<path fill="#31150B" opacity="1.000000" stroke="none" d=" M65.871368,218.795044   C67.269440,218.747650 68.290756,218.747650 69.312080,218.747650   C62.781841,219.847137 56.303967,225.061890 48.547459,219.591827   C54.969437,219.307846 60.232025,219.075134 65.871368,218.795044  z"/>
<path fill="#161008" opacity="1.000000" stroke="none" d=" M54.178154,172.490509   C58.657776,158.586121 63.357693,144.934799 68.094078,131.296112   C68.681450,129.604736 69.462593,127.980629 69.448898,126.436310   C69.448898,140.051865 69.448898,153.667435 69.610641,167.992584   C69.817787,169.157364 69.863190,169.612564 69.908585,170.067764   C69.893250,171.121201 69.877907,172.174652 69.905754,174.029663   C69.961853,176.208923 69.974762,177.586609 69.987679,178.964279   C67.212593,177.814713 64.437508,176.665161 61.330261,175.430405   C58.801933,174.479279 56.605759,173.613358 54.178154,172.490509  z"/>
<path fill="#411F0E" opacity="1.000000" stroke="none" d=" M76.123001,175.954697   C80.269989,176.766083 85.228767,175.512115 87.836037,180.861115   C85.308571,184.496552 82.672943,187.786850 79.903748,191.243896   C78.865181,189.429626 77.546951,187.126816 76.178207,184.041565   C76.126129,180.824310 76.124565,178.389496 76.123001,175.954697  z"/>
<path fill="#B12F17" opacity="1.000000" stroke="none" d=" M76.088043,175.550201   C76.124565,178.389496 76.126129,180.824310 76.073753,183.720001   C74.141075,182.618317 72.262321,181.055710 70.185623,179.228699   C69.974762,177.586609 69.961853,176.208923 69.982239,174.419067   C71.273544,174.580231 72.531555,175.153580 74.127274,175.880844   C74.626518,174.274765 75.035042,172.960526 75.649025,171.372665   C75.920685,172.447922 75.986885,173.796829 76.088043,175.550201  z"/>
<path fill="#381B0F" opacity="1.000000" stroke="none" d=" M97.494705,176.151505   C96.561440,174.845261 95.152267,173.557266 95.189590,172.312653   C95.306244,168.422241 95.969223,164.548187 96.814537,160.628952   C97.213928,165.451889 97.613319,170.274826 98.008881,175.545135   C98.005035,175.992508 97.680634,176.189606 97.494705,176.151505  z"/>
<path fill="#130F08" opacity="1.000000" stroke="none" d=" M121.015556,203.267731   C121.197220,203.003418 121.373993,203.006561 121.815796,203.019669   C121.724113,203.198166 121.367386,203.366684 121.015556,203.267731  z"/>
<path fill="#C54324" opacity="1.000000" stroke="none" d=" M109.290009,231.761475   C106.840958,231.697510 104.754936,231.521133 102.668915,231.344757   C102.693069,230.624542 102.717224,229.904343 102.741379,229.184128   C104.869858,229.184128 107.005592,229.103256 109.117081,229.292664   C109.364197,229.314850 109.477631,230.827423 109.290009,231.761475  z"/>
<path fill="#C54324" opacity="1.000000" stroke="none" d=" M103.927139,221.652481   C103.510101,222.034958 102.980087,222.207809 102.537773,222.079163   C101.176865,221.683319 99.813782,221.243820 98.553833,220.616013   C98.394562,220.536652 98.844994,219.233719 99.012947,218.497665   C100.423851,218.988815 101.861969,219.417847 103.226173,220.015579   C103.559807,220.161758 103.651398,220.860352 103.927139,221.652481  z"/>
<path fill="#C54324" opacity="1.000000" stroke="none" d=" M99.246910,229.311401   C98.952309,229.252884 98.775078,229.085449 98.597839,228.918015   C98.698616,228.824951 98.799385,228.731888 98.900162,228.638824   C99.054871,228.826706 99.209579,229.014603 99.246910,229.311401  z"/>
<path fill="#F4CF88" opacity="1.000000" stroke="none" d=" M57.665886,177.220490   C57.782261,177.709091 57.674870,178.118500 57.567482,178.527908   C57.112278,178.188812 56.657078,177.849716 56.201874,177.510620   C56.615292,177.387512 57.028709,177.264420 57.665886,177.220490  z"/>
<path fill="#F4CF88" opacity="1.000000" stroke="none" d=" M44.623314,172.273544   C44.374100,172.749344 44.069118,173.000198 43.764137,173.251053   C43.652992,172.849915 43.541843,172.448776 43.430695,172.047638   C43.809647,172.047958 44.188595,172.048264 44.623314,172.273544  z"/>
<path fill="#F4CF88" opacity="1.000000" stroke="none" d=" M47.489326,173.506866   C47.481274,173.486053 47.497383,173.527695 47.489326,173.506866  z"/>
<path fill="#F6D28B" opacity="1.000000" stroke="none" d=" M38.492500,173.488800   C38.514164,173.480240 38.470840,173.497375 38.492500,173.488800  z"/>
<path fill="#1D150C" opacity="1.000000" stroke="none" d=" M84.132309,199.117523   C84.283890,199.081512 84.612900,199.259979 85.086082,199.693695   C84.923409,199.743301 84.616570,199.537659 84.132309,199.117523  z"/>
<path fill="#713E1C" opacity="1.000000" stroke="none" d=" M97.499458,68.998512   C98.282181,69.824409 98.646561,70.681793 99.090393,71.882095   C96.295486,78.082504 93.327103,83.896416 90.585632,89.815445   C89.169250,92.873535 88.155785,96.118225 86.899979,99.687904   C80.053467,107.914177 73.267250,115.731148 66.238373,123.778397   C66.666412,112.976944 67.337112,101.945206 68.003601,90.456734   C68.668823,83.575111 69.321342,77.148384 70.017830,70.726433   C70.231720,68.754219 70.565941,66.795059 70.926529,64.424896   C79.699036,65.689919 88.390083,67.359955 97.499458,68.998512  z"/>
<path fill="#B12F17" opacity="1.000000" stroke="none" d=" M70.082596,169.882477   C69.863190,169.612564 69.817787,169.157364 69.793427,168.359589   C69.961830,168.577072 70.109215,169.137131 70.082596,169.882477  z"/>
<path fill="#C04022" opacity="1.000000" stroke="none" d=" M105.014732,55.025871   C102.254692,55.969177 99.494659,56.912483 95.747925,58.193016   C98.575729,59.126190 100.867584,59.882504 104.676453,61.139431   C101.611305,62.522839 99.493683,63.478596 97.179581,64.739113   C95.506317,61.015842 94.029533,56.987812 92.170898,51.918236   C97.143089,52.442932 100.627571,52.810635 104.518066,53.201153   C104.924080,53.223969 104.911827,53.415714 104.935684,53.683525   C104.977936,54.309509 104.996330,54.667690 105.014732,55.025871  z"/>
<path fill="#1F150B" opacity="1.000000" stroke="none" d=" M94.112610,49.002365   C94.517365,48.723377 95.099167,48.634502 95.869812,48.681618   C95.468994,48.942562 94.879326,49.067520 94.112610,49.002365  z"/>
<path fill="#1F150B" opacity="1.000000" stroke="none" d=" M104.245316,48.985683   C104.272156,48.337799 104.567024,47.684898 105.051208,47.236984   C105.184799,47.783516 105.129082,48.125065 105.061371,48.729221   C104.870712,48.988110 104.692032,48.984386 104.245316,48.985683  z"/>
<path fill="#1F150B" opacity="1.000000" stroke="none" d=" M105.836655,52.148407   C106.113373,52.154881 106.190201,52.309376 106.173492,52.704990   C106.079964,52.946106 106.054878,52.971443 105.760826,53.081230   C105.281792,53.265915 105.096809,53.340813 104.911827,53.415714   C104.911827,53.415714 104.924080,53.223969 104.951805,53.131981   C105.164307,52.761822 105.383392,52.513966 105.836655,52.148407  z"/>
<path fill="#140F08" opacity="1.000000" stroke="none" d=" M111.062912,46.093216   C111.374687,45.692169 111.556160,45.616016 111.665115,45.297958   C113.040100,45.535999 114.538048,46.436138 115.840439,46.209995   C119.062119,45.650597 122.188080,43.923794 125.364174,43.893600   C128.456558,43.864197 131.563446,45.359493 135.061249,46.291149   C128.804260,48.041557 123.717255,49.742050 118.501999,50.824665   C115.109322,51.528934 111.226898,51.852684 111.062912,46.093216  z"/>
<path fill="#0D0A05" opacity="1.000000" stroke="none" d=" M126.688217,55.764069   C123.240532,58.231735 120.377304,59.118740 118.345665,54.331703   C121.932167,53.907898 125.267273,53.513802 129.194351,53.049755   C128.235657,54.145645 127.618538,54.851097 126.688217,55.764069  z"/>
<path fill="#B84022" opacity="1.000000" stroke="none" d=" M104.935684,53.683525   C105.096809,53.340813 105.281792,53.265915 105.743835,53.077736   C105.864944,53.540924 105.709000,54.117390 105.283890,54.859863   C104.996330,54.667690 104.977936,54.309509 104.935684,53.683525  z"/>
</svg>