<?xml version="1.0" encoding="UTF-8"?>
<svg version="1.1" xmlns="http://www.w3.org/2000/svg" width="256" height="256">
<path d="M0 0 C84.48 0 168.96 0 256 0 C256 84.48 256 168.96 256 256 C171.52 256 87.04 256 0 256 C0 171.52 0 87.04 0 0 Z " fill="#002E4D" transform="translate(0,0)"/>
<path d="M0 0 C35.31 0 70.62 0 107 0 C107 84.48 107 168.96 107 256 C86.21 256 65.42 256 44 256 C42.35 247.75 40.7 239.5 39 231 C36.80457408 221.5938523 36.80457408 221.5938523 33 217 C33 216.34 33 215.68 33 215 C31.68 214.34 30.36 213.68 29 213 C29 212.67 29 212.34 29 212 C44.37614171 211.29753667 44.37614171 211.29753667 50 215 C55.28636509 220.99345851 57.35206668 227.93338306 59.8125 235.4375 C60.21919922 236.64599609 60.62589844 237.85449219 61.04492188 239.09960938 C62.04054363 242.06304824 63.0251847 245.02966546 64 248 C64.48172198 227.48231536 64.48172198 227.48231536 55.875 209.5 C52.262417 206.6099336 48.83532171 206.68849596 44.375 206.4375 C43.66859375 206.39431641 42.9621875 206.35113281 42.234375 206.30664062 C40.48981463 206.20055249 38.74493303 206.09977111 37 206 C38.56621019 202.86757962 41.6659631 202.50321149 44.8125 201.4375 C46.05644531 201.00308594 47.30039063 200.56867188 48.58203125 200.12109375 C57.9629844 197.04414112 70.85604101 195.71820176 80.1875 199.5625 C85.64829086 202.62054288 90.53260787 206.7989118 94 212 C92.78957394 204.37431583 90.49207065 197.52186101 84.19140625 192.58203125 C78.09587784 188.95093153 71.95593924 188.07032793 65 189 C60.95733467 190.12466481 57.00834737 191.50956052 53.06982422 192.95336914 C51.06306462 193.68273013 49.03285264 194.34688309 47 195 C46.34 194.67 45.68 194.34 45 194 C45.47308594 193.56171875 45.94617188 193.1234375 46.43359375 192.671875 C63.32076347 176.47599292 73.41779938 155.55266156 74 132 C73.79246094 132.81339844 73.58492187 133.62679687 73.37109375 134.46484375 C67.19150335 157.45085155 56.5503697 176.94150615 41 195 C39.68980978 192.37961955 40.2260672 191.44350668 40.96875 188.63671875 C41.3258606 187.23981812 41.3258606 187.23981812 41.69018555 185.81469727 C41.95742432 184.78272217 42.22466309 183.75074707 42.5 182.6875 C45.28347451 171.54282295 47.57331696 160.34996813 49.6875 149.0625 C49.9033374 147.91652847 49.9033374 147.91652847 50.12353516 146.74740601 C52.23246557 135.52262387 54.15767923 124.27140345 56 113 C49.94065951 131.82615234 43.96160526 150.63720418 38.80981445 169.73535156 C36.57023643 178.01233385 34.1921969 186.23674908 31.6875 194.4375 C31.19878418 196.05543457 31.19878418 196.05543457 30.70019531 197.70605469 C29.15204536 202.7210295 27.5586874 207.41010845 25 212 C24.67 212 24.34 212 24 212 C23.9114883 206.39215138 24.23862957 201.00427635 24.875 195.4375 C25.88635603 186.05813648 26.53526888 176.66322292 27.125 167.25 C27.16929138 166.54326141 27.21358276 165.83652283 27.25921631 165.10836792 C27.51096087 161.07253283 27.75756629 157.0364044 28 153 C26.56797901 160.29421302 25.14473403 167.59009907 23.72753906 174.88720703 C23.24452744 177.36871977 22.75951795 179.8498445 22.27246094 182.33056641 C21.57219595 185.89905963 20.87915865 189.4688925 20.1875 193.0390625 C19.96876221 194.14553131 19.75002441 195.25200012 19.5246582 196.39199829 C19.32445068 197.43262421 19.12424316 198.47325012 18.91796875 199.54541016 C18.65149536 200.91108627 18.65149536 200.91108627 18.37963867 202.30435181 C17.9670624 205.23387548 17.93625034 208.04537301 18 211 C13.69304366 207.284995 11.20147056 202.60189491 8.375 197.75 C7.31635732 195.95759259 6.25644099 194.16593689 5.1953125 192.375 C4.66454102 191.4778125 4.13376953 190.580625 3.58691406 189.65625 C1.19547841 185.65335463 -1.26918525 181.69794379 -3.75 177.75 C-4.18006348 177.06518555 -4.61012695 176.38037109 -5.05322266 175.67480469 C-6.0339326 174.11556101 -7.01670235 172.5576131 -8 171 C-13.23109492 171.59370801 -17.97607234 172.81630952 -22.953125 174.546875 C-23.69399353 174.79995422 -24.43486206 175.05303345 -25.19818115 175.31378174 C-26.75898402 175.84871365 -28.3187256 176.38675121 -29.87744141 176.92773438 C-32.22657075 177.74188005 -34.57969527 178.54351321 -36.93359375 179.34375 C-46.25732023 182.53966175 -55.54499369 185.77152688 -64.0625 190.8125 C-69.2244416 192.89924235 -74.22275313 192.9609804 -79.50830078 191.13208008 C-80.39501465 190.74431396 -81.28172852 190.35654785 -82.1953125 189.95703125 C-83.24315918 189.50473145 -84.29100586 189.05243164 -85.37060547 188.58642578 C-86.56830566 188.06290527 -87.76600586 187.53938477 -89 187 C-90.41622296 186.39295167 -91.83308612 185.78739536 -93.25048828 185.18310547 C-97.92022692 183.19208183 -102.58528883 181.19026807 -107.25 179.1875 C-108.88148603 178.48757335 -110.51299628 177.78770317 -112.14453125 177.08789062 C-116.09663325 175.39257674 -120.04840839 173.69650318 -124 172 C-124 169 -124 169 -122.6796875 167.578125 C-122.08414063 167.13984375 -121.48859375 166.7015625 -120.875 166.25 C-120.29492188 165.80140625 -119.71484375 165.3528125 -119.1171875 164.890625 C-113.15510995 162.38259238 -104.90632295 167.06464169 -99.25 169.1875 C-98.21617188 169.56197266 -97.18234375 169.93644531 -96.1171875 170.32226562 C-87.4770058 173.54873146 -78.2909687 177.06354696 -73 185 C-72.01 185.99 -72.01 185.99 -71 187 C-70.505 186.13375 -70.01 185.2675 -69.5 184.375 C-61.01990359 171.96083824 -43.31622572 168.65767978 -29.8125 164.5625 C-28.02042114 164.01263428 -28.02042114 164.01263428 -26.19213867 163.45166016 C-25.06267822 163.11827637 -23.93321777 162.78489258 -22.76953125 162.44140625 C-21.75479736 162.13920166 -20.74006348 161.83699707 -19.69458008 161.52563477 C-16.95096086 160.99043388 -15.55961536 160.93737924 -13 162 C-10.7109375 164.3984375 -10.7109375 164.3984375 -8.375 167.375 C-7.59898437 168.35210937 -6.82296875 169.32921875 -6.0234375 170.3359375 C-4.62268653 172.18016947 -3.28461845 174.07307233 -2 176 C-2.01047363 175.11965088 -2.02094727 174.23930176 -2.03173828 173.33227539 C-2.13274656 163.55301137 -2.12655787 153.77902945 -2 144 C-1.98839844 142.97583984 -1.97679687 141.95167969 -1.96484375 140.89648438 C-1.85779175 136.08984953 -1.67743538 131.55643795 0 127 C3.45975705 123.80001993 7.23697601 122 12 122 C11.10134236 117.5067118 10.33430026 115.01334009 6.875 111.9375 C4.64893709 109.85911203 4.06175929 109.25265162 3.3125 106.1875 C3.9859871 103.0649689 4.84386744 101.47939541 6.5 98.8125 C9.60336911 93.58438101 9.8707747 88.95936438 9 83 C8.04346365 80.6485148 7.04718798 78.31254012 6 76 C5.48378981 71.53478188 6.12526398 67.37368009 7 63 C7.45889592 60.20073487 7.71402433 57.76684429 7 55 C4.9238196 52.84077238 2.63617408 51.39878625 0 50 C-1.10892344 54.45329571 -1.14891439 58.81532302 -1.125 63.375 C-1.12886719 64.10460937 -1.13273437 64.83421875 -1.13671875 65.5859375 C-1.13076328 68.9210024 -0.99289158 72.04807977 -0.50390625 75.35546875 C0.16986225 80.2285386 0.1841824 85.02413497 0.1875 89.9375 C0.19974609 90.88818359 0.21199219 91.83886719 0.22460938 92.81835938 C0.25016966 105.18101928 -3.36048741 116.23840058 -11 126 C-12 124 -12 124 -12 121 C-13.31537364 123.43598808 -14.62739143 125.8736825 -15.9375 128.3125 C-16.31068359 129.00279297 -16.68386719 129.69308594 -17.06835938 130.40429688 C-17.42607422 131.07138672 -17.78378906 131.73847656 -18.15234375 132.42578125 C-18.48226318 133.03848877 -18.81218262 133.65119629 -19.15209961 134.2824707 C-21.19336004 138.41730143 -21.72730077 142.466177 -21 147 C-19.15811388 149.05270463 -19.15811388 149.05270463 -17 150 C-22.50592348 150.36706157 -22.50592348 150.36706157 -24.65625 148.76953125 C-26.30568727 146.59745252 -26.48489324 145.2014235 -26.6875 142.5 C-26.75324219 141.7265625 -26.81898437 140.953125 -26.88671875 140.15625 C-26.9769128 138.43945285 -27 136.71916474 -27 135 C-27.3403125 135.71285156 -27.680625 136.42570313 -28.03125 137.16015625 C-31.21020407 143.44197241 -34.60699194 149.53172842 -41 153 C-43.2421875 152.671875 -43.2421875 152.671875 -45 152 C-44.505 151.4225 -44.01 150.845 -43.5 150.25 C-41.63019987 147.89599371 -41.63019987 147.89599371 -42 144 C-42.4125 144.39832031 -42.825 144.79664063 -43.25 145.20703125 C-47.59410302 149.1923579 -51.3191441 151.36314322 -57 153 C-57.66 152.67 -58.32 152.34 -59 152 C-58.01 151.67 -57.02 151.34 -56 151 C-53.75711392 146.98641439 -53.40666903 143.52414867 -54 139 C-54.94924716 137.38572794 -55.95554424 135.80436695 -57 134.25 C-61.46737363 127.32294301 -60.48538602 121.07411147 -59.25 113.25 C-58.71297158 109.20438591 -59.79050558 107.30512662 -62.05078125 103.87109375 C-63.99278359 100.04303152 -63.84790777 96.13115966 -63 92 C-61.74220512 89.62648674 -60.28683862 87.59104896 -58.66796875 85.44921875 C-55.65280283 81.02179713 -53.90519662 75.98217347 -52 71 C-51.34 71 -50.68 71 -50 71 C-49.34 72.98 -48.68 74.96 -48 77 C-47.62875 76.525625 -47.2575 76.05125 -46.875 75.5625 C-44.37747724 73.48123103 -42.17490297 73.5183515 -39 73 C-36.67780342 71.55269907 -36.67780342 71.55269907 -35 70 C-35.7425 70.515625 -36.485 71.03125 -37.25 71.5625 C-40 73 -40 73 -44 72 C-44.495 59.13 -44.495 59.13 -45 46 C-41.06370599 44.01840325 -37.12603953 42.0396244 -33.1875 40.0625 C-32.06794922 39.49853516 -30.94839844 38.93457031 -29.79492188 38.35351562 C-28.72177734 37.81533203 -27.64863281 37.27714844 -26.54296875 36.72265625 C-25.55321045 36.22515869 -24.56345215 35.72766113 -23.54370117 35.21508789 C-21 34 -21 34 -18 33 C-17.67 31.35 -17.34 29.7 -17 28 C-5.99551342 27.57187156 3.88685748 28.03222604 13.25 34.375 C19.63958695 40.30818789 21.27135211 49.82054414 23 58 C33.76132706 56.20644549 43.80420724 52.08517194 50.375 43.125 C51.35238436 39.80189318 50.84509445 37.3200139 50 34 C46.68850866 30.6387118 42.52251262 29.86737879 38.0625 28.875 C37.31266846 28.70250732 36.56283691 28.53001465 35.7902832 28.35229492 C30.08972249 27.1005092 24.47311483 26.43733549 18.63671875 26.17578125 C14.19327935 25.87955196 14.19327935 25.87955196 12 25 C10.55200195 22.80688477 10.55200195 22.80688477 9.23828125 19.94140625 C8.51995117 18.40323242 8.51995117 18.40323242 7.78710938 16.83398438 C7.30048828 15.75439453 6.81386719 14.67480469 6.3125 13.5625 C5.56516602 11.94891602 5.56516602 11.94891602 4.80273438 10.30273438 C3.88188111 8.31234191 2.96698767 6.3191744 2.05981445 4.32250977 C1.39721811 2.8704759 0.71378376 1.42756751 0 0 Z " fill="#00436F" transform="translate(149,0)"/>
<path d="M0 0 C10.99860961 -0.4278998 20.90308858 0.0235039 30.25390625 6.3828125 C35.67692042 11.40546992 37.08170902 18.35351186 38.5625 25.3125 C39.89323283 30.467643 39.89323283 30.467643 43.77734375 33.86328125 C46.94888561 35.16550041 46.94888561 35.16550041 50.125 36.0078125 C53.35695245 37.12318739 54.86402638 38.36084029 57 41 C57 41.66 57 42.32 57 43 C52.71 43.33 48.42 43.66 44 44 C44.99 45.65 45.98 47.3 47 49 C47.63448806 52.08784191 47.62617354 54.90826813 47 58 C44.5 61.0625 44.5 61.0625 42 63 C41.01 59.04 41.01 59.04 40 55 C39.855625 56.299375 39.71125 57.59875 39.5625 58.9375 C38.17321747 65.36673447 33.73579378 68.77334446 29 73 C26.7517825 75.01790685 26.7517825 75.01790685 25 77 C24.90043051 80.78364067 26.00066652 82.00073154 28.5625 84.8125 C30.75493193 87.26548182 31.39731437 88.88947926 31.5 92.1875 C31 96 31 96 29.5 98 C29.005 98.33 28.51 98.66 28 99 C27.34 98.67 26.68 98.34 26 98 C26.99 96.515 26.99 96.515 28 95 C28.75383338 92.21555423 28.75383338 92.21555423 28 89 C26.42782001 86.98038285 26.42782001 86.98038285 24.5 85 C21.08333333 81.32638889 21.08333333 81.32638889 20.25 78.0625 C20.98085437 75.07817798 21.9076762 73.39316271 23.5 70.8125 C26.60336911 65.58438101 26.8707747 60.95936438 26 55 C25.04346365 52.6485148 24.04718798 50.31254012 23 48 C22.48378981 43.53478188 23.12526398 39.37368009 24 35 C24.45889592 32.20073487 24.71402433 29.76684429 24 27 C21.9238196 24.84077238 19.63617408 23.39878625 17 22 C15.89107656 26.45329571 15.85108561 30.81532302 15.875 35.375 C15.87113281 36.10460937 15.86726563 36.83421875 15.86328125 37.5859375 C15.86923672 40.9210024 16.00710842 44.04807977 16.49609375 47.35546875 C17.16986225 52.2285386 17.1841824 57.02413497 17.1875 61.9375 C17.19974609 62.88818359 17.21199219 63.83886719 17.22460938 64.81835938 C17.25016966 77.18101928 13.63951259 88.23840058 6 98 C5 96 5 96 5 93 C3.68462636 95.43598808 2.37260857 97.8736825 1.0625 100.3125 C0.68931641 101.00279297 0.31613281 101.69308594 -0.06835938 102.40429688 C-0.42607422 103.07138672 -0.78378906 103.73847656 -1.15234375 104.42578125 C-1.48226318 105.03848877 -1.81218262 105.65119629 -2.15209961 106.2824707 C-4.19336004 110.41730143 -4.72730077 114.466177 -4 119 C-2.15811388 121.05270463 -2.15811388 121.05270463 0 122 C-5.50592348 122.36706157 -5.50592348 122.36706157 -7.65625 120.76953125 C-9.30568727 118.59745252 -9.48489324 117.2014235 -9.6875 114.5 C-9.75324219 113.7265625 -9.81898437 112.953125 -9.88671875 112.15625 C-9.9769128 110.43945285 -10 108.71916474 -10 107 C-10.51046875 108.06927734 -10.51046875 108.06927734 -11.03125 109.16015625 C-14.21020407 115.44197241 -17.60699194 121.53172842 -24 125 C-26.2421875 124.671875 -26.2421875 124.671875 -28 124 C-27.2575 123.13375 -27.2575 123.13375 -26.5 122.25 C-24.63019987 119.89599371 -24.63019987 119.89599371 -25 116 C-25.4125 116.39832031 -25.825 116.79664063 -26.25 117.20703125 C-30.59410302 121.1923579 -34.3191441 123.36314322 -40 125 C-40.66 124.67 -41.32 124.34 -42 124 C-40.515 123.505 -40.515 123.505 -39 123 C-36.75711392 118.98641439 -36.40666903 115.52414867 -37 111 C-37.94924716 109.38572794 -38.95554424 107.80436695 -40 106.25 C-44.46737363 99.32294301 -43.48538602 93.07411147 -42.25 85.25 C-41.71297158 81.20438591 -42.79050558 79.30512662 -45.05078125 75.87109375 C-46.99278359 72.04303152 -46.84790777 68.13115966 -46 64 C-44.74220512 61.62648674 -43.28683862 59.59104896 -41.66796875 57.44921875 C-38.65280283 53.02179713 -36.90519662 47.98217347 -35 43 C-34.34 43 -33.68 43 -33 43 C-32.34 44.98 -31.68 46.96 -31 49 C-30.62875 48.525625 -30.2575 48.05125 -29.875 47.5625 C-27.37747724 45.48123103 -25.17490297 45.5183515 -22 45 C-19.67780342 43.55269907 -19.67780342 43.55269907 -18 42 C-18.7425 42.515625 -19.485 43.03125 -20.25 43.5625 C-23 45 -23 45 -27 44 C-27.495 31.13 -27.495 31.13 -28 18 C-24.06370599 16.01840325 -20.12603953 14.0396244 -16.1875 12.0625 C-15.06794922 11.49853516 -13.94839844 10.93457031 -12.79492188 10.35351562 C-11.72177734 9.81533203 -10.64863281 9.27714844 -9.54296875 8.72265625 C-8.55321045 8.22515869 -7.56345215 7.72766113 -6.54370117 7.21508789 C-4 6 -4 6 -1 5 C-0.67 3.35 -0.34 1.7 0 0 Z " fill="#69CFFB" transform="translate(132,28)"/>
<path d="M0 0 C1.31657503 2.63315006 0.82291395 3.88847041 0.29077148 6.77148438 C0.10985458 7.76853394 -0.07106232 8.7655835 -0.25746155 9.79284668 C-0.56507668 11.42679382 -0.56507668 11.42679382 -0.87890625 13.09375 C-1.08805161 14.22784302 -1.29719696 15.36193604 -1.51268005 16.53039551 C-1.96103688 18.95217844 -2.41272897 21.37334582 -2.86743164 23.79394531 C-3.54375943 27.40007663 -4.20735683 31.00836276 -4.86914062 34.6171875 C-7.81442309 50.51884336 -11.22424678 66.27532308 -15 82 C-1.27891267 65.20919978 9.15446231 47.84644353 15.17578125 26.8671875 C16.03440334 23.88032202 17.0003131 20.9423099 18 18 C21.67895456 29.03686367 14.57499445 47.09992085 10 57.0625 C6.44698508 63.85184807 1.80615935 69.3855153 -3.328125 75.0390625 C-5.36737766 77.29893606 -7.23778763 79.52566071 -9 82 C-7.81664062 81.566875 -6.63328125 81.13375 -5.4140625 80.6875 C14.75847698 73.49582958 14.75847698 73.49582958 25.26171875 78.10546875 C31.64373346 81.38969655 35.00841718 86.61668633 38 93 C38.68611046 95.77117341 38.89366688 98.12900574 39 101 C38.319375 100.29875 37.63875 99.5975 36.9375 98.875 C35.96323607 97.91168285 34.98359431 96.95378843 34 96 C33.20335937 95.2265625 33.20335937 95.2265625 32.390625 94.4375 C31.82859375 93.921875 31.2665625 93.40625 30.6875 92.875 C30.17574219 92.39804688 29.66398438 91.92109375 29.13671875 91.4296875 C23.0934052 87.38608099 16.95956776 86.47332611 9.8125 86.5625 C8.57282471 86.56950928 8.57282471 86.56950928 7.30810547 86.57666016 C-0.00066275 86.7511852 -6.19658617 88.26666365 -13 91 C-14.41152344 91.56074219 -14.41152344 91.56074219 -15.8515625 92.1328125 C-16.56054688 92.41898437 -17.26953125 92.70515625 -18 93 C-17.05898437 93.02578125 -16.11796875 93.0515625 -15.1484375 93.078125 C-2.22198767 93.66690739 -2.22198767 93.66690739 2 98 C5.51245094 103.20974267 6.99323575 108.86403685 8 115 C8.16822266 116.01126953 8.16822266 116.01126953 8.33984375 117.04296875 C9.33617261 124.3175343 9.0868558 131.67516114 9 139 C7.01953376 136.02930064 6.08781803 133.60334189 4.9765625 130.23046875 C4.595 129.09416016 4.2134375 127.95785156 3.8203125 126.78710938 C3.02771748 124.40025868 2.23861487 122.01224523 1.453125 119.62304688 C-1.38979527 109.94655474 -1.38979527 109.94655474 -7.97265625 102.7578125 C-14.05031793 100.91747382 -19.67186252 100.68063605 -26 101 C-25.2575 101.66 -24.515 102.32 -23.75 103 C-13.59956902 113.35114572 -13.50905748 130.3297146 -12 144 C-15.63 144 -19.26 144 -23 144 C-23.04898438 142.57429687 -23.09796875 141.14859375 -23.1484375 139.6796875 C-22.67480389 121.0707548 -22.67480389 121.0707548 -28 104 C-34.47333492 101.31438943 -42.1243741 101.76471242 -49 102 C-50.35091528 104.70183055 -50.33858058 107.11808206 -50.5625 110.125 C-50.68818359 111.76855469 -50.68818359 111.76855469 -50.81640625 113.4453125 C-50.87699219 114.28835937 -50.93757813 115.13140625 -51 116 C-51.33 116 -51.66 116 -52 116 C-52 111.71 -52 107.42 -52 103 C-53.98 103 -55.96 103 -58 103 C-59.87109375 101.13671875 -59.87109375 101.13671875 -61.4375 98.6875 C-64.57729357 94.31909155 -66.74960475 92.63536901 -72 91 C-74.0423957 90.31466882 -76.08400504 89.62699156 -78.125 88.9375 C-79.11757812 88.61652344 -80.11015625 88.29554688 -81.1328125 87.96484375 C-83.80026726 87.06721251 -86.39847633 86.07205646 -89 85 C-89.41870553 87.33071879 -89.41870553 87.33071879 -89 90 C-84.97730871 94.29087071 -79.24931195 96.51294735 -74 99 C-84.17791519 104.32383256 -95.14752906 104.09747608 -106 101 C-109.66228401 99.77923866 -109.96274905 98.44637484 -111.6796875 95.16796875 C-113.85881955 91.58980814 -116.70920405 88.553031 -119.48828125 85.4296875 C-121 83 -121 83 -121.16796875 80.4453125 C-118.11509093 74.05366863 -108.09065764 71.96652455 -101.875 69.6875 C-100.82981201 69.30158691 -99.78462402 68.91567383 -98.70776367 68.51806641 C-95.47607689 67.3332853 -92.23942705 66.16343887 -89 65 C-87.98147949 64.63310059 -86.96295898 64.26620117 -85.91357422 63.88818359 C-83.05221743 62.86657186 -80.18454762 61.86610899 -77.3125 60.875 C-76.4467334 60.56780029 -75.5809668 60.26060059 -74.68896484 59.9440918 C-71.4795257 58.86116986 -68.61889324 58.03666222 -65.23046875 57.8359375 C-61.50643419 59.77947918 -60.01381626 63.16896328 -58 66.75 C-57.04678688 68.37831543 -56.0923028 70.00588733 -55.13671875 71.6328125 C-54.63446777 72.4980957 -54.1322168 73.36337891 -53.61474609 74.25488281 C-50.76620261 79.09749287 -47.78252284 83.85629996 -44.8125 88.625 C-43.69368234 90.42948413 -42.57516423 92.23415404 -41.45703125 94.0390625 C-40.63808 95.3594117 -39.81908013 96.67973075 -39 98 C-38.95137817 97.40669388 -38.90275635 96.81338776 -38.85266113 96.20210266 C-38.26630798 89.68288786 -37.22873766 83.3377889 -35.96875 76.91796875 C-35.77277222 75.90076248 -35.57679443 74.88355621 -35.37487793 73.83552551 C-34.75409403 70.61869266 -34.1271396 67.40309914 -33.5 64.1875 C-33.07902113 62.01114619 -32.65844457 59.83471453 -32.23828125 57.65820312 C-29.42929563 43.12542141 -29.42929563 43.12542141 -28 36 C-27.67 36 -27.34 36 -27 36 C-27.54170885 51.32199264 -28.49631974 66.58037643 -29.74609375 81.86035156 C-30.18106307 87.23891451 -30.58989041 92.61949306 -31 98 C-27.79822216 90.5140122 -25.40483783 82.93466426 -23.20703125 75.1015625 C-22.67097357 73.22098036 -22.13490985 71.34039993 -21.59854412 69.45990562 C-20.66542487 66.18285944 -19.73924508 62.90385335 -18.8125 59.625 C-14.41339774 44.06570312 -9.9476672 28.54601115 -5.01171875 13.1484375 C-4.43161797 11.33540634 -4.43161797 11.33540634 -3.83979797 9.48574829 C-1.12958147 1.12958147 -1.12958147 1.12958147 0 0 Z " fill="#001A2C" transform="translate(205,112)"/>
<path d="M0 0 C6.93 0 13.86 0 21 0 C21 84.48 21 168.96 21 256 C15.72 256 10.44 256 5 256 C5.7425 253.958125 6.485 251.91625 7.25 249.8125 C17.04099992 220.78837122 14.91064831 190.96495774 11 161 C10.83371094 159.71851074 10.66742188 158.43702148 10.49609375 157.11669922 C7.37963494 130.7335596 7.37963494 130.7335596 -3.54722595 106.90740967 C-5.47716525 103.04505807 -5.35698219 99.58279378 -5.23999023 95.37036133 C-5.22782439 94.53377141 -5.21565855 93.69718149 -5.20312405 92.83524036 C-5.04502399 83.90745465 -4.62810103 74.99023279 -4.16015625 66.07421875 C-4.0725517 64.34456468 -3.98527335 62.61489406 -3.89830017 60.88520813 C-3.71721839 57.30457527 -3.53287513 53.72413114 -3.34594727 50.14379883 C-3.10712015 45.56591955 -2.8757955 40.98769716 -2.6467371 36.40931988 C-2.46833988 32.85667938 -2.28651564 29.30422082 -2.10360527 25.75181007 C-2.01694953 24.06262837 -1.93123798 22.37339795 -1.84651375 20.68411827 C-1.72799215 18.33308461 -1.60496312 15.98232876 -1.48071289 13.6315918 C-1.44690521 12.94430496 -1.41309753 12.25701813 -1.37826538 11.54890442 C-1.16351593 7.59179775 -0.65685822 3.94114934 0 0 Z " fill="#003254" transform="translate(235,0)"/>
<path d="M0 0 C24.09 0 48.18 0 73 0 C73.04010881 19.85386062 73.04010881 19.85386062 73.04882812 28.35351562 C73.0547928 34.14039025 73.06182936 39.92724897 73.07543945 45.71411133 C73.08634967 50.38253007 73.09229401 55.05093174 73.09487724 59.71936226 C73.09671688 61.49543082 73.10030911 63.2714985 73.10573006 65.04755974 C73.1130486 67.54596816 73.11398642 70.0443071 73.11352539 72.54272461 C73.11712067 73.26777695 73.12071594 73.99282928 73.12442017 74.73985291 C73.11423474 79.88136475 72.65504865 84.90189178 72 90 C71.33613281 89.59007813 70.67226562 89.18015625 69.98828125 88.7578125 C69.10527344 88.21898438 68.22226563 87.68015625 67.3125 87.125 C66.44238281 86.59132813 65.57226562 86.05765625 64.67578125 85.5078125 C62.05947599 83.94426748 62.05947599 83.94426748 59.296875 82.98046875 C57 82 57 82 54.9375 79.1875 C51.83475157 75.09345814 47.45030082 74.04804806 42.78515625 72.28515625 C39.15238657 70.60888525 37.53044174 68.04950671 35 65 C32.1513023 63.7343702 29.30878275 62.76791774 26.328125 61.859375 C24 61 24 61 23 59 C24.0621875 58.62488281 25.124375 58.24976563 26.21875 57.86328125 C39.49409017 53.6419451 39.49409017 53.6419451 49.5625 44.625 C51.22961955 40.42095938 51.32468374 38.30522215 50 34 C46.66363542 30.65531531 42.53140748 29.86935795 38.0625 28.875 C36.93775269 28.61626099 36.93775269 28.61626099 35.7902832 28.35229492 C30.08972249 27.1005092 24.47311483 26.43733549 18.63671875 26.17578125 C14.19327935 25.87955196 14.19327935 25.87955196 12 25 C10.55200195 22.80688477 10.55200195 22.80688477 9.23828125 19.94140625 C8.75939453 18.91595703 8.28050781 17.89050781 7.78710938 16.83398438 C7.30048828 15.75439453 6.81386719 14.67480469 6.3125 13.5625 C5.56516602 11.94891602 5.56516602 11.94891602 4.80273438 10.30273438 C3.88188111 8.31234191 2.96698767 6.3191744 2.05981445 4.32250977 C1.39721811 2.8704759 0.71378376 1.42756751 0 0 Z " fill="#004E80" transform="translate(149,0)"/>
<path d="M0 0 C8.51351351 4.45945946 8.51351351 4.45945946 9.6328125 8.00390625 C9.61863591 11.73943769 8.72959497 15.35202516 8 19 C7.70293706 23.60447558 7.58933726 26.09311978 9.5 30.3125 C11.53552494 35.31649882 11.84019968 39.6662324 11 45 C9.8817608 47.48109323 8.56821883 49.70193845 7.140625 52.015625 C5.413492 55.02036324 5.13855832 56.62602007 6 60 C7.71171875 62.13541151 9.50448401 64.06685056 11.46875 65.97265625 C13.36460263 68.48272644 13.29821279 69.92734322 13 73 C11.37750059 73.83819158 9.75191503 74.6704116 8.125 75.5 C6.76761719 76.19609375 6.76761719 76.19609375 5.3828125 76.90625 C3 78 3 78 1 78 C-0.47025159 94.96040222 -0.0946507 111.99345273 0 129 C-0.61133789 128.23469971 -1.22267578 127.46939941 -1.85253906 126.6809082 C-4.13292033 123.83406114 -6.43838388 121.00903144 -8.75 118.1875 C-9.54921875 117.21167969 -10.3484375 116.23585938 -11.171875 115.23046875 C-11.77515625 114.49441406 -12.3784375 113.75835937 -13 113 C-20.75278622 114.37229975 -28.22589445 116.38145916 -35.75 118.6875 C-37.46437256 119.2127124 -37.46437256 119.2127124 -39.21337891 119.74853516 C-48.50933896 122.6806937 -56.74612119 126.36507405 -65.1640625 131.2578125 C-67 132 -67 132 -70 131 C-70 130.34 -70 129.68 -70 129 C-71.32 129 -72.64 129 -74 129 C-74.75534591 70.4187287 -74.75534591 70.4187287 -63 53 C-62.34 53 -61.68 53 -61 53 C-56.84128564 58.92301742 -56.90257672 62.04965255 -58 69 C-58.86377733 76.86613222 -57.74469059 81.15567432 -53.34765625 87.71484375 C-51.42291677 90.97853243 -51.34854779 93.30843747 -52 97 C-53.5 99.9375 -53.5 99.9375 -55 102 C-48.61664177 101.24901668 -44.26588836 97.59403362 -40 93 C-39.63076923 98.41538462 -39.63076923 98.41538462 -41.5 101.375 C-41.995 101.91125 -42.49 102.4475 -43 103 C-37.78336095 102.33898752 -35.97608528 100.40147025 -32.71484375 96.4765625 C-29.81465074 92.28812887 -27.88146563 87.71666959 -26 83 C-25.67 83 -25.34 83 -25 83 C-25.03480469 83.80824219 -25.06960937 84.61648437 -25.10546875 85.44921875 C-25.14607422 87.05216797 -25.14607422 87.05216797 -25.1875 88.6875 C-25.22230469 89.74324219 -25.25710937 90.79898438 -25.29296875 91.88671875 C-24.96229249 95.40070518 -24.1900188 97.24843792 -22 100 C-21.01 100 -20.02 100 -19 100 C-19.99 99.01 -19.99 99.01 -21 98 C-21.66165865 91.48195844 -20.26483515 87.51366589 -17.125 81.875 C-14.66554093 77.31239925 -12.48016538 73.00140092 -11 68 C-10.67 68 -10.34 68 -10 68 C-10 70.64 -10 73.28 -10 76 C-2.61041266 64.32971319 0.18018453 54.86783057 0.125 41.0625 C0.12886719 40.09892578 0.13273437 39.13535156 0.13671875 38.14257812 C0.12965998 32.97908573 -0.23532001 28.11379744 -1 23 C-1.13795815 20.14440352 -1.1402449 17.29591891 -1.125 14.4375 C-1.12886719 13.70853516 -1.13273437 12.97957031 -1.13671875 12.22851562 C-1.12918497 8.04349908 -0.82057162 4.1223955 0 0 Z " fill="#011C2F" transform="translate(148,49)"/>
<path d="M0 0 C6.93 0 13.86 0 21 0 C20.18584883 39.80918486 17.62823762 79.5495247 15.00244141 119.27416992 C14.88424009 121.07078763 14.76623439 122.86741823 14.6484375 124.6640625 C14.59197052 125.52371109 14.53550354 126.38335968 14.47732544 127.26905823 C14.02685095 134.26700069 13.66984709 141.26816703 13.37338257 148.27432251 C13.14850373 153.23006293 12.67440309 158.08449089 12 163 C8.04 163.33 4.08 163.66 0 164 C0 109.88 0 55.76 0 0 Z " fill="#004E80" transform="translate(0,0)"/>
<path d="M0 0 C5.61 0 11.22 0 17 0 C16.76398124 7.22703116 16.51552213 14.4534847 16.25537109 21.6796875 C16.16858757 24.13952914 16.08524368 26.59949458 16.00537109 29.05957031 C15.89016956 32.58957283 15.76272515 36.11894965 15.6328125 39.6484375 C15.58267502 41.30629776 15.58267502 41.30629776 15.53152466 42.99765015 C15.49163422 44.01855743 15.45174377 45.03946472 15.41064453 46.09130859 C15.37955597 46.99287689 15.34846741 47.89444519 15.31643677 48.82333374 C15 51 15 51 13 53 C13.495 53.495 13.495 53.495 14 54 C14.0420531 56.09209377 14.00949638 58.18569574 13.94921875 60.27734375 C13.92207291 61.26900543 13.92207291 61.26900543 13.89437866 62.28070068 C13.83136977 64.49985388 13.75991976 66.71863507 13.6875 68.9375 C13.66388397 69.70397858 13.64026794 70.47045715 13.61593628 71.26016235 C12.85387898 95.92902747 11.94684595 120.64256877 10 145.25 C9.92918213 146.18287842 9.85836426 147.11575684 9.78540039 148.0769043 C9.38648574 152.66507813 8.6976059 156.67110495 7 161 C1.14254775 158.49715128 -3.17180703 153.35470393 -6.18359375 147.828125 C-10.59479932 136.26190179 -7.6315608 121.7704194 -6.83224487 109.69546509 C-6.47758292 104.33396449 -6.13533075 98.97167296 -5.79296875 93.609375 C-5.72414993 92.53476517 -5.65533112 91.46015533 -5.58442688 90.35298157 C-4.9693553 80.67607916 -4.44000956 70.99579799 -3.9375 61.3125 C-3.18302782 46.84921561 -2.25227045 32.40631244 -1.21142578 17.96044922 C-0.91932267 13.87033113 -0.64452731 9.779159 -0.375 5.6875 C-0.25125 3.810625 -0.1275 1.93375 0 0 Z " fill="#004D7F" transform="translate(37,0)"/>
<path d="M0 0 C0.64195313 0.27585938 1.28390625 0.55171875 1.9453125 0.8359375 C4.35920024 1.75580776 6.70252244 2.51706712 9.1796875 3.2265625 C25.39615706 7.98389699 25.39615706 7.98389699 30 16 C30.495 16.99 30.495 16.99 31 18 C32.65 18.33 34.3 18.66 36 19 C36 26.26 36 33.52 36 41 C33.215625 40.979375 30.43125 40.95875 27.5625 40.9375 C21.99695377 40.91718417 16.5864346 41.03886012 11.0625 41.76171875 C2.25940453 42.77874304 -3.98802155 41.65505133 -12 38 C-13.49630637 37.46864832 -14.99608984 36.94693263 -16.5 36.4375 C-20 35 -20 35 -22 32 C-22 29 -22 29 -21 26 C-15.06 26.99 -15.06 26.99 -9 28 C-10.918125 27.525625 -12.83625 27.05125 -14.8125 26.5625 C-17.92325754 25.79317287 -20.95953973 25.01348676 -24 24 C-24 24.66 -24 25.32 -24 26 C-27.95673443 25.77390089 -28.93729488 25.06853815 -31.6875 22.0625 C-32.8321875 20.5465625 -32.8321875 20.5465625 -34 19 C-34.66 18.34 -35.32 17.68 -36 17 C-35.625 14.375 -35.625 14.375 -35 12 C-34.30132812 12.0721875 -33.60265625 12.144375 -32.8828125 12.21875 C-31.97273438 12.3115625 -31.06265625 12.404375 -30.125 12.5 C-29.22007813 12.5928125 -28.31515625 12.685625 -27.3828125 12.78125 C-25.06686789 13.03047295 -25.06686789 13.03047295 -23 13 C-22.67 12.34 -22.34 11.68 -22 11 C-20 13 -20 13 -20 16 C-7.80448473 18.38376564 2.08953009 18.87032678 14 15 C13.16855469 14.60167969 12.33710938 14.20335937 11.48046875 13.79296875 C10.39378906 13.26316406 9.30710938 12.73335937 8.1875 12.1875 C7.10855469 11.66542969 6.02960938 11.14335937 4.91796875 10.60546875 C2.41982402 9.23098751 0.7243109 8.23742763 -1 6 C-1.25 3.375 -1.25 3.375 -1 1 C-0.67 0.67 -0.34 0.34 0 0 Z " fill="#0066A4" transform="translate(116,196)"/>
<path d="M0 0 C0 0.66 0 1.32 0 2 C1.02996094 2.02578125 2.05992187 2.0515625 3.12109375 2.078125 C10.98595572 2.35848069 18.56637417 3.05711239 26.25 4.8125 C26.95181396 4.96557617 27.65362793 5.11865234 28.37670898 5.27636719 C32.77384329 6.35312938 35.77852384 7.80868748 39 11 C40.16841299 14.3754153 40.4928834 16.60753707 39.28515625 20.01953125 C34.58028665 28.77628144 25.32195415 32.13396748 16.4453125 35.43359375 C13.85326061 36.03398916 12.47789892 35.88167101 10 35 C9.75765625 33.99839844 9.5153125 32.99679688 9.265625 31.96484375 C6.92178523 20.06365469 6.92178523 20.06365469 -0.640625 11.328125 C-6.27627511 8.35454077 -11.7481411 6.20228056 -18 5 C-14.59568053 2.73045369 -12.83475798 2.63450051 -8.8125 2.375 C-7.72582031 2.30023438 -6.63914063 2.22546875 -5.51953125 2.1484375 C-4.68808594 2.09945313 -3.85664063 2.05046875 -3 2 C-6.21963766 0.39018117 -9.73826288 0.79419347 -13.27734375 0.76171875 C-14.11729385 0.753647 -14.95724396 0.74557526 -15.82264709 0.73725891 C-17.61408419 0.72339568 -19.40554795 0.7126836 -21.19702148 0.70483398 C-22.99365207 0.69347 -24.7902533 0.67327566 -26.58666992 0.64331055 C-38.90241627 0.43806722 -50.10045539 1.59740915 -62.0630188 4.54751587 C-64.68925138 5.16101102 -67.33425147 5.59737877 -70 6 C-69.46484375 3.69921875 -69.46484375 3.69921875 -68 1 C-65.45931628 -0.32883458 -63.24863207 -1.28710337 -60.5625 -2.1875 C-59.83313232 -2.44160645 -59.10376465 -2.69571289 -58.35229492 -2.95751953 C-40.99488678 -8.83976294 -15.86374758 -11.27628326 0 0 Z " fill="#001B2D" transform="translate(161,23)"/>
<path d="M0 0 C5.94 0 11.88 0 18 0 C18.02264294 10.40565118 18.04096822 20.81128584 18.05181217 31.21695614 C18.05701819 36.04935056 18.0640742 40.88172716 18.07543945 45.71411133 C18.08634967 50.38253007 18.09229401 55.05093174 18.09487724 59.71936226 C18.09671688 61.49543082 18.10030911 63.2714985 18.10573006 65.04755974 C18.1130486 67.54596816 18.11398642 70.0443071 18.11352539 72.54272461 C18.11712067 73.26777695 18.12071594 73.99282928 18.12442017 74.73985291 C18.11423474 79.88136475 17.65504865 84.90189178 17 90 C12.48044484 88.39774967 9.31442698 86.48939085 6 83 C5.05113047 80.05760931 4.90255574 77.15752286 4.74609375 74.08203125 C4.64772972 72.76653038 4.64772972 72.76653038 4.54737854 71.42445374 C4.41123981 69.56207135 4.28683687 67.69879913 4.17333984 65.8348999 C4.00431815 63.0706215 3.80355006 60.31062019 3.59179688 57.54931641 C3.24347048 52.94642457 2.92626904 48.3421031 2.62231445 43.73608398 C2.43734355 40.9351309 2.24738289 38.13454979 2.05664062 35.33398438 C1.26211163 23.56050928 0.59464447 11.78528701 0 0 Z " fill="#005C96" transform="translate(204,0)"/>
<path d="M0 0 C2.3125 2.375 2.3125 2.375 4 5 C3.67 5.99 3.34 6.98 3 8 C0.72268188 9.00830223 -1.44950347 9.80511173 -3.8125 10.5625 C-5.35451942 11.0835927 -6.89615764 11.60581426 -8.4375 12.12890625 C-9.30761719 12.42039551 -10.17773438 12.71188477 -11.07421875 13.01220703 C-16.83789207 14.9581201 -22.57533276 16.97755082 -28.3125 19 C-29.47950439 19.4029126 -30.64650879 19.8058252 -31.84887695 20.22094727 C-38.65475612 22.61953952 -45.0161538 25.36363082 -51.36791992 28.79614258 C-56.55689825 31.16947085 -61.1433673 31.02425688 -66.47167969 29.11376953 C-67.36274414 28.72817871 -68.25380859 28.34258789 -69.171875 27.9453125 C-70.7487207 27.26940063 -70.7487207 27.26940063 -72.35742188 26.57983398 C-73.55947266 26.05848877 -74.76152344 25.53714355 -76 25 C-77.41692696 24.39369864 -78.83426589 23.78835941 -80.25195312 23.18383789 C-84.92092047 21.19191774 -89.58561732 19.19012704 -94.25 17.1875 C-95.88148603 16.48757335 -97.51299628 15.78770317 -99.14453125 15.08789062 C-103.09663325 13.39257674 -107.04840839 11.69650318 -111 10 C-111 7 -111 7 -109.6796875 5.578125 C-109.08414063 5.13984375 -108.48859375 4.7015625 -107.875 4.25 C-107.29492188 3.80140625 -106.71484375 3.3528125 -106.1171875 2.890625 C-100.15510995 0.38259238 -91.90632295 5.06464169 -86.25 7.1875 C-85.21617188 7.56197266 -84.18234375 7.93644531 -83.1171875 8.32226562 C-74.4770058 11.54873146 -65.2909687 15.06354696 -60 23 C-59.34 23.66 -58.68 24.32 -58 25 C-57.505 24.13375 -57.01 23.2675 -56.5 22.375 C-48.01990359 9.96083824 -30.31622572 6.65767978 -16.8125 2.5625 C-15.02042114 2.01263428 -15.02042114 2.01263428 -13.19213867 1.45166016 C-12.06267822 1.11827637 -10.93321777 0.78489258 -9.76953125 0.44140625 C-8.75479736 0.13920166 -7.74006348 -0.16300293 -6.69458008 -0.47436523 C-3.95059331 -1.00963782 -2.5606143 -1.06005998 0 0 Z " fill="#60C8F7" transform="translate(136,162)"/>
<path d="M0 0 C3.3 0.33 6.6 0.66 10 1 C10.495 2.98 10.495 2.98 11 5 C8.36 5.33 5.72 5.66 3 6 C5.64 6.66 8.28 7.32 11 8 C11 8.99 11 9.98 11 11 C9.02 11.99 9.02 11.99 7 13 C8.65 13 10.3 13 12 13 C13.72107623 22.73004484 13.72107623 22.73004484 11.953125 25.84375 C10.5625 27.1875 10.5625 27.1875 8 29 C7.505 25.04 7.505 25.04 7 21 C6.34 21 5.68 21 5 21 C4.89429688 21.87398437 4.78859375 22.74796875 4.6796875 23.6484375 C3.97235243 27.1363311 2.87153734 29.54031962 1.125 32.625 C0.61195312 33.54539063 0.09890625 34.46578125 -0.4296875 35.4140625 C-2 38 -2 38 -3.66796875 40.140625 C-5.25342094 42.04999852 -5.25342094 42.04999852 -5.4375 45.125 C-5.623125 46.07375 -5.80875 47.0225 -6 48 C-6.58394531 48.28617188 -7.16789062 48.57234375 -7.76953125 48.8671875 C-10.74740801 50.37959426 -12.18499751 52.38532059 -14.25 55 C-15.02730469 55.97582031 -15.80460937 56.95164063 -16.60546875 57.95703125 C-17.79076172 59.46330078 -17.79076172 59.46330078 -19 61 C-20.51982532 62.89664152 -22.04058245 64.79253694 -23.5625 66.6875 C-24.70896699 68.12449468 -25.8550516 69.56179506 -27 71 C-28.06354003 67.8093799 -27.98388743 66.13361326 -27.67041016 62.82592773 C-27.57345856 61.77150986 -27.47650696 60.71709198 -27.37661743 59.63072205 C-27.2652243 58.49316971 -27.15383118 57.35561737 -27.0390625 56.18359375 C-26.929039 55.01619156 -26.8190155 53.84878937 -26.70565796 52.64601135 C-26.47152686 50.17688461 -26.23427013 47.70805256 -25.99414062 45.23950195 C-25.62622232 41.45008938 -25.26937862 37.65975339 -24.9140625 33.86914062 C-24.68555302 31.47389555 -24.4564079 29.078711 -24.2265625 26.68359375 C-24.11921783 25.54401718 -24.01187317 24.40444061 -23.90127563 23.23033142 C-23.79801971 22.1790657 -23.69476379 21.12779999 -23.58837891 20.04467773 C-23.49875885 19.11662827 -23.40913879 18.1885788 -23.31680298 17.23240662 C-23 15 -23 15 -22 13 C-13.61044093 13.65061887 -5.31984045 14.74898749 3 16 C2.68289062 15.46890625 2.36578125 14.9378125 2.0390625 14.390625 C0.7629651 11.45464152 0.58292979 8.93825671 0.375 5.75 C0.30023438 4.67234375 0.22546875 3.5946875 0.1484375 2.484375 C0.09945312 1.66453125 0.05046875 0.8446875 0 0 Z " fill="#004E80" transform="translate(92,50)"/>
<path d="M0 0 C0.33 0 0.66 0 1 0 C1.15855469 0.59167969 1.31710938 1.18335938 1.48046875 1.79296875 C3.05567836 7.20650766 3.05567836 7.20650766 6.6875 11.4375 C9.24789077 14.27468977 9.41293298 14.96060808 9.5625 18.625 C9.09212045 27.43155047 5.08195823 35.21830877 1.05078125 42.90625 C-0.11293745 45.10064963 -0.11293745 45.10064963 -1 48 C-4.10495707 46.96501431 -4.78649289 46.21350711 -7 44 C-10.70535079 41.52976614 -14.66464009 41.43353599 -19 41 C-18.67 40.34 -18.34 39.68 -18 39 C-18.7425 39.515625 -19.485 40.03125 -20.25 40.5625 C-23 42 -23 42 -27 41 C-27.33 32.42 -27.66 23.84 -28 15 C-24.06370599 13.01840325 -20.12603953 11.0396244 -16.1875 9.0625 C-15.06794922 8.49853516 -13.94839844 7.93457031 -12.79492188 7.35351562 C-11.18520508 6.54624023 -11.18520508 6.54624023 -9.54296875 5.72265625 C-8.0583313 4.97640991 -8.0583313 4.97640991 -6.54370117 4.21508789 C-4 3 -4 3 -1 2 C-0.67 1.34 -0.34 0.68 0 0 Z " fill="#36A1E0" transform="translate(132,31)"/>
<path d="M0 0 C4.29 0 8.58 0 13 0 C12.9498877 1.04712158 12.89977539 2.09424316 12.84814453 3.1730957 C12.65165015 7.28063663 12.4555245 11.38819511 12.25949097 15.49575806 C12.16983401 17.3735087 12.080092 19.25125529 11.99026489 21.1289978 C11.46774559 32.05424212 10.95265158 42.97974985 10.45703125 53.90625 C10.36900312 55.83683383 10.28095006 57.76741653 10.19287109 59.69799805 C10.06611372 62.47705021 9.9400111 65.25612274 9.81622314 68.03530884 C9.56425076 73.69131637 9.2971155 79.34617487 9 85 C8.96513489 85.67899353 8.93026978 86.35798706 8.89434814 87.05755615 C8.79593847 88.88664631 8.68171926 90.71486641 8.56640625 92.54296875 C8.4746814 94.03413208 8.4746814 94.03413208 8.38110352 95.55541992 C8 98 8 98 6 101 C5.57847656 100.36191406 5.15695313 99.72382812 4.72265625 99.06640625 C4.17480469 98.24011719 3.62695312 97.41382812 3.0625 96.5625 C2.51722656 95.73878906 1.97195312 94.91507812 1.41015625 94.06640625 C0.16197019 92.10014075 0.16197019 92.10014075 -1 91 C-1.06517063 88.16878132 -1.06497226 85.36327958 -1.02172852 82.53295898 C-1.01212097 81.64523804 -1.00251343 80.75751709 -0.99261475 79.84289551 C-0.95950086 76.893884 -0.91921605 73.94501498 -0.87890625 70.99609375 C-0.85461723 68.95728567 -0.83077307 66.91847224 -0.80735779 64.87965393 C-0.74439564 59.50210502 -0.67536358 54.12465022 -0.60510254 48.74719238 C-0.53452836 43.26444806 -0.46964617 37.78163677 -0.40429688 32.29882812 C-0.27512828 21.5324785 -0.13955249 10.76621968 0 0 Z " fill="#004C7D" transform="translate(222,0)"/>
<path d="M0 0 C6.17453291 -0.19796271 12.34721535 -0.34302108 18.52416992 -0.43945312 C20.62443212 -0.47965263 22.72447087 -0.53422399 24.82397461 -0.60351562 C27.84544931 -0.70072891 30.86396423 -0.74595912 33.88671875 -0.78125 C35.29167854 -0.84318542 35.29167854 -0.84318542 36.72502136 -0.90637207 C39.37781864 -0.90819249 41.47613788 -0.82361475 44 0 C46.34254147 2.38855907 47.66140351 4.95901911 49 8 C49.30679688 8.6146814 49.61359375 9.22936279 49.9296875 9.8626709 C50.76613757 11.5549116 51.54084957 13.27724555 52.3125 15 C52.82425781 16.134375 53.33601563 17.26875 53.86328125 18.4375 C54.23839844 19.283125 54.61351562 20.12875 55 21 C53 22 53 22 50.35546875 21.2578125 C48.78732422 20.69707031 48.78732422 20.69707031 47.1875 20.125 C29.71171634 13.91621227 8.68738825 15.70262535 -8.14453125 23.23046875 C-10 24 -10 24 -12 24 C-10.71663984 20.66790224 -9.29046548 17.50895417 -7.6171875 14.35546875 C-7.17246094 13.51435547 -6.72773437 12.67324219 -6.26953125 11.80664062 C-5.57923828 10.51016602 -5.57923828 10.51016602 -4.875 9.1875 C-4.40707031 8.30384766 -3.93914062 7.42019531 -3.45703125 6.50976562 C-2.30692397 4.33864475 -1.15451854 2.1687774 0 0 Z " fill="#003052" transform="translate(105,0)"/>
<path d="M0 0 C16.42328042 -0.50793651 16.42328042 -0.50793651 22 2 C29.89261324 12.24591535 27.14807165 31.00619599 27 43 C19.41 43 11.82 43 4 43 C3.95101562 41.36933594 3.90203125 39.73867187 3.8515625 38.05859375 C3.71218076 18.78634837 3.71218076 18.78634837 0 0 Z " fill="#00436F" transform="translate(155,213)"/>
<path d="M0 0 C6.6 0 13.2 0 20 0 C19.90912109 2.30291016 19.90912109 2.30291016 19.81640625 4.65234375 C19.77717041 5.6489502 19.73793457 6.64555664 19.69750977 7.67236328 C19.60706062 9.85982591 19.50982625 12.04701792 19.40600586 14.23388672 C19.17146508 19.22053938 18.96735141 24.17564106 19.0625 29.16796875 C19.15178056 39.67405907 19.15178056 39.67405907 16.0625 43.23046875 C13.42535451 44.89928738 10.94153784 45.96583416 8 47 C7.04738281 47.40347656 6.09476563 47.80695312 5.11328125 48.22265625 C2.76025208 49.21287537 0.40015019 50.13186057 -2 51 C-2.11198939 39.8632771 -1.99381503 28.75489201 -1.5625 17.625 C-1.50364624 16.0308728 -1.50364624 16.0308728 -1.44360352 14.40454102 C-1.40162842 13.39705811 -1.35965332 12.3895752 -1.31640625 11.3515625 C-1.27974854 10.46291504 -1.24309082 9.57426758 -1.20532227 8.65869141 C-0.98094675 5.75328191 -0.4790686 2.87441159 0 0 Z " fill="#003E67" transform="translate(54,0)"/>
<path d="M0 0 C0 2.64 0 5.28 0 8 C3.63 8.66 7.26 9.32 11 10 C11.33 9.01 11.66 8.02 12 7 C13.59098486 10.54203471 14.27814564 13.42715073 14.4140625 17.30078125 C14.47207031 18.76547852 14.47207031 18.76547852 14.53125 20.25976562 C14.5621875 21.26716797 14.593125 22.27457031 14.625 23.3125 C14.68300781 24.85260742 14.68300781 24.85260742 14.7421875 26.42382812 C14.83614897 28.94904265 14.9218154 31.47425592 15 34 C17.25175469 33.48289558 19.02097417 32.98855954 21.0625 31.875 C23 31 23 31 26 32 C24.59546357 32.89434157 23.17578131 33.76493192 21.75 34.625 C20.96109375 35.11226562 20.1721875 35.59953125 19.359375 36.1015625 C18.19148438 36.54628906 18.19148438 36.54628906 17 37 C15.68 36.34 14.36 35.68 13 35 C13 31.7 13 28.4 13 25 C10.69 25.33 8.38 25.66 6 26 C9.75 23 9.75 23 12 23 C12 22.01 12 21.02 12 20 C11.071875 20.061875 10.14375 20.12375 9.1875 20.1875 C6 20 6 20 3 17 C5.97 17 8.94 17 12 17 C11.505 15.515 11.505 15.515 11 14 C10.0925 14.04125 9.185 14.0825 8.25 14.125 C5.05378189 14.00206853 3.71589164 13.49964451 1 12 C1.28438952 13.89693861 1.57783792 15.79252027 1.875 17.6875 C2.11863281 19.27111328 2.11863281 19.27111328 2.3671875 20.88671875 C2.95893069 23.79794914 3.8031806 26.28955607 5 29 C-11.47731879 28.57552575 -27.54742237 23.70360128 -42 16 C-35.10495755 8.59016932 -25.00694858 6.22301681 -15.625 3.1875 C-14.66158691 2.87321045 -13.69817383 2.5589209 -12.70556641 2.23510742 C-11.32377197 1.79968628 -11.32377197 1.79968628 -9.9140625 1.35546875 C-9.0885791 1.09403076 -8.2630957 0.83259277 -7.41259766 0.56323242 C-4.86315214 -0.03194778 -2.60869908 -0.10078141 0 0 Z " fill="#001B2D" transform="translate(91,38)"/>
<path d="M0 0 C10.23 0 20.46 0 31 0 C29.73390735 3.16523164 28.56489679 5.96856839 26.9765625 8.92578125 C26.595 9.64056641 26.2134375 10.35535156 25.8203125 11.09179688 C25.42585938 11.82462891 25.03140625 12.55746094 24.625 13.3125 C23.84541589 14.76642437 23.06676571 16.22084991 22.2890625 17.67578125 C21.90210205 18.39121094 21.5151416 19.10664063 21.11645508 19.84375 C20.38108418 21.26399836 19.68904602 22.70766093 19.0456543 24.171875 C16.78795147 29.25126298 14.53330083 31.55917063 9.5625 34.375 C7.89380859 35.34566406 7.89380859 35.34566406 6.19140625 36.3359375 C3.49404311 37.74239613 0.84944518 38.94543898 -2 40 C-2.35610975 26.54696486 -1.21826758 13.40094342 0 0 Z " fill="#004D7F" transform="translate(74,0)"/>
<path d="M0 0 C2.60078014 0.03859605 5.15696799 0.1458703 7.75 0.3125 C8.46671875 0.34794922 9.1834375 0.38339844 9.921875 0.41992188 C13.98350645 0.67004072 17.32563431 1.22791419 21 3 C21 4.65 21 6.3 21 8 C13.08 8.495 13.08 8.495 5 9 C6.74667969 8.97679687 8.49335937 8.95359375 10.29296875 8.9296875 C12.59114156 8.91092691 14.88931899 8.89272702 17.1875 8.875 C18.33798828 8.85824219 19.48847656 8.84148437 20.67382812 8.82421875 C21.78564453 8.81777344 22.89746094 8.81132812 24.04296875 8.8046875 C25.06414795 8.79421387 26.08532715 8.78374023 27.13745117 8.77294922 C30.12612167 9.01000368 32.29423369 9.74382898 35 11 C34.67 12.65 34.34 14.3 34 16 C30.37 16.66 26.74 17.32 23 18 C29.435 17.505 29.435 17.505 36 17 C36 18.32 36 19.64 36 21 C31.37300714 23.16743046 26.689364 23.85123098 21.6875 24.625 C20.85154297 24.7590625 20.01558594 24.893125 19.15429688 25.03125 C17.10368682 25.35934761 15.05194879 25.68038181 13 26 C21.415 25.505 21.415 25.505 30 25 C22.76821192 32.23178808 22.76821192 32.23178808 16.125 32.625 C12.95968934 32.57356955 11.51035283 32.42239623 9.05078125 30.38671875 C6.16857033 26.68101899 4.79280338 23.62468639 4 19 C2.9790625 18.3503125 2.9790625 18.3503125 1.9375 17.6875 C0 16 0 16 -0.2265625 14.07421875 C-0.19057976 12.04839077 -0.09792483 10.02377976 0 8 C-0.33 7.67 -0.66 7.34 -1 7 C-1.125 4 -1.125 4 -1 1 C-0.67 0.67 -0.34 0.34 0 0 Z " fill="#0064A3" transform="translate(39,198)"/>
<path d="M0 0 C0.64195313 0.27585938 1.28390625 0.55171875 1.9453125 0.8359375 C4.35920024 1.75580776 6.70252244 2.51706712 9.1796875 3.2265625 C25.39615706 7.98389699 25.39615706 7.98389699 30 16 C30.495 16.99 30.495 16.99 31 18 C32.65 18.33 34.3 18.66 36 19 C36 22.63 36 26.26 36 30 C20.13358623 30.57463873 5.85348044 29.87347113 -8 21 C-8.33 20.34 -8.66 19.68 -9 19 C-7.84242187 18.87882812 -6.68484375 18.75765625 -5.4921875 18.6328125 C-3.95308708 18.46388684 -2.41402663 18.29459668 -0.875 18.125 C-0.11445312 18.04636719 0.64609375 17.96773437 1.4296875 17.88671875 C5.85959721 17.39026335 9.80211971 16.59599921 14 15 C13.16855469 14.60167969 12.33710938 14.20335937 11.48046875 13.79296875 C10.39378906 13.26316406 9.30710937 12.73335937 8.1875 12.1875 C7.10855469 11.66542969 6.02960938 11.14335937 4.91796875 10.60546875 C2.41982402 9.23098751 0.7243109 8.23742763 -1 6 C-1.25 3.375 -1.25 3.375 -1 1 C-0.67 0.67 -0.34 0.34 0 0 Z " fill="#329BDA" transform="translate(116,196)"/>
<path d="M0 0 C19.61038997 -0.87589831 19.61038997 -0.87589831 27.71484375 5.30859375 C29.125 6.625 29.125 6.625 31 9 C31 9.66 31 10.32 31 11 C30.34515625 11.07476562 29.6903125 11.14953125 29.015625 11.2265625 C16.96179823 12.96313076 8.45812947 18.03654052 -0.25390625 26.39453125 C-5.45971822 31.33375825 -11.02535876 36.01690584 -17 40 C-17.66 39.34 -18.32 38.68 -19 38 C-18.90743205 34.57498598 -18.17004738 33.19005295 -15.875 30.625 C-14.451875 29.325625 -14.451875 29.325625 -13 28 C-11.74325891 26.77772649 -10.493459 25.54828332 -9.25 24.3125 C-8.65703125 23.73113281 -8.0640625 23.14976563 -7.453125 22.55078125 C-5.02035078 19.95451414 -4.78266891 17.82668911 -4.4375 14.375 C-4.35371094 13.55773437 -4.26992187 12.74046875 -4.18359375 11.8984375 C-4.12300781 11.27195312 -4.06242188 10.64546875 -4 10 C-1.49701566 12.93828597 -0.53069061 15.17902761 0 19 C2.72302618 16.39043324 3.26435984 14.26997872 3.375 10.625 C3.41923505 6.45216003 1.97950717 3.63433327 0 0 Z " fill="#001A2C" transform="translate(175,71)"/>
<path d="M0 0 C1.24479846 3.71595391 0.88577273 6.93721821 0.5625 10.8125 C-0.0924975 19.72518111 -0.08702078 28.631727 -0.0625 37.5625 C-0.0606369 38.27419342 -0.0587738 38.98588684 -0.05685425 39.71914673 C-0.04464457 43.81280962 -0.02521885 47.90639792 0 52 C-4.08776747 50.66390103 -7.97160571 49.18389004 -11.875 47.375 C-13.32519531 46.70597656 -13.32519531 46.70597656 -14.8046875 46.0234375 C-15.52914062 45.68570313 -16.25359375 45.34796875 -17 45 C-13.75711616 32.56622932 -9.24781618 20.99760844 -4.01074219 9.27246094 C-2.64191817 6.19492132 -1.31867765 3.09931245 0 0 Z " fill="#001B2D" transform="translate(68,125)"/>
<path d="M0 0 C-0.18823242 2.32128906 -0.18823242 2.32128906 -1 5 C-3.16137695 6.56152344 -3.16137695 6.56152344 -5.98828125 7.859375 C-7.00470703 8.33503906 -8.02113281 8.81070313 -9.06835938 9.30078125 C-10.67420898 10.01814453 -10.67420898 10.01814453 -12.3125 10.75 C-13.90094727 11.49056641 -13.90094727 11.49056641 -15.52148438 12.24609375 C-23.32854966 15.84631969 -23.32854966 15.84631969 -26.27416992 16.52050781 C-26.84369385 16.67874023 -27.41321777 16.83697266 -28 17 C-28.33 17.66 -28.66 18.32 -29 19 C-33.54805635 19.17835515 -36.8794254 18.99785435 -41 17 C-41 14.03 -41 11.06 -41 8 C-34.60186109 6.53641126 -28.2023275 5.0792712 -21.80029297 3.6328125 C-20.08812891 3.24589626 -18.37616425 2.85809465 -16.66455078 2.46875 C-14.75679005 2.03608988 -12.84721982 1.61142927 -10.9375 1.1875 C-9.89464844 0.95417969 -8.85179687 0.72085937 -7.77734375 0.48046875 C-5.1198994 0.02074209 -2.69006276 -0.093782 0 0 Z " fill="#0066A4" transform="translate(132,29)"/>
<path d="M0 0 C1.90347617 2.85521425 2.7625787 5.08231658 3.8125 8.3125 C5.73665097 13.72015106 7.76912417 18.01600802 12.83203125 21.125 C22.5562383 25.04972501 34.71611782 20.53576218 44 17 C47.34858077 15.54323383 50.57204757 13.88706618 53.77734375 12.13671875 C56 11 56 11 58 11 C58 15.29 58 19.58 58 24 C39.19 24 20.38 24 1 24 C0.18185808 20.72743232 -0.11871834 18.52006101 -0.09765625 15.234375 C-0.09443359 14.34492188 -0.09121094 13.45546875 -0.08789062 12.5390625 C-0.07532227 11.15847656 -0.07532227 11.15847656 -0.0625 9.75 C-0.05798828 8.81414062 -0.05347656 7.87828125 -0.04882812 6.9140625 C-0.03706918 4.60930959 -0.02063426 2.30468773 0 0 Z " fill="#003152" transform="translate(78,232)"/>
<path d="M0 0 C0.66 0.99 1.32 1.98 2 3 C-3.19619828 4.9751104 -8.40620883 6.84854046 -13.68359375 8.59375 C-14.38339859 8.82654663 -15.08320343 9.05934326 -15.80421448 9.29919434 C-18.01483782 10.03422556 -20.22614891 10.76716149 -22.4375 11.5 C-23.91476042 11.99074432 -25.39197431 12.48162872 -26.86914062 12.97265625 C-27.5874556 13.21132919 -28.30577057 13.45000214 -29.04585266 13.69590759 C-30.45799648 14.16514386 -31.87009653 14.63451189 -33.28215027 15.10401917 C-36.16600697 16.0622279 -39.05089839 17.01656046 -41.94067383 17.95678711 C-45.97990644 19.27492974 -49.44173792 20.66171349 -53 23 C-54.32608822 23.68096422 -55.65686601 24.35330586 -57 25 C-55.58087985 19.63887944 -52.45353318 16.97785404 -48 14 C-39.10163782 9.63020233 -29.83503397 6.4502536 -20.34619141 3.6472168 C-18.33708813 3.05125416 -16.33473354 2.43545141 -14.33203125 1.81835938 C-13.0420212 1.43110869 -11.75166892 1.04499576 -10.4609375 0.66015625 C-9.31415527 0.31605713 -8.16737305 -0.02804199 -6.98583984 -0.38256836 C-4.09587904 -0.9801735 -2.658587 -1.22219581 0 0 Z " fill="#61C8F6" transform="translate(136,162)"/>
<path d="M0 0 C8.48944594 3.19769131 16.33522857 6.33574545 22.0625 13.625 C23.11046589 16.27984693 23.06344177 17.38973383 22 20 C18.23290877 21.42371288 16.22150255 20.54853607 12.625 18.9375 C9.15998663 17.39701992 5.70960917 15.86848636 2.171875 14.50390625 C1.53942871 14.25326416 0.90698242 14.00262207 0.25537109 13.74438477 C-1.54815481 13.0304208 -3.35602502 12.32746048 -5.1640625 11.625 C-8.48769754 9.72054797 -8.93305635 8.57942384 -10 5 C-10.66 4.34 -11.32 3.68 -12 3 C-7.25219935 3.66896604 -3.25662969 5.52848159 1.0625 7.5 C2.468714 8.13837245 3.87622974 8.77388674 5.28515625 9.40625 C6.21146851 9.82874023 6.21146851 9.82874023 7.15649414 10.25976562 C9.08105073 11.0325448 10.97940534 11.54235945 13 12 C10.06171403 9.49701566 7.82097239 8.53069061 4 8 C4 7.34 4 6.68 4 6 C1.03 5.01 -1.94 4.02 -5 3 C-4.01 2.67 -3.02 2.34 -2 2 C-1.34 2.33 -0.68 2.66 0 3 C0 2.01 0 1.02 0 0 Z " fill="#59BFF0" transform="translate(54,171)"/>
<path d="M0 0 C0.99 0.33 1.98 0.66 3 1 C4.66458673 1.09308544 6.33281997 1.12996185 8 1.125 C9.299375 1.12886719 9.299375 1.12886719 10.625 1.1328125 C13.15011695 1.09594205 13.15011695 1.09594205 16 0 C15.92007813 0.72316406 15.84015625 1.44632813 15.7578125 2.19140625 C16.07570136 5.87789156 17.44082868 7.19580882 19.875 9.9375 C23.03564742 13.51163713 24.72343375 16.38420519 26 21 C23.36 20.34 20.72 19.68 18 19 C18 18.34 18 17.68 18 17 C16.4840625 17.2475 16.4840625 17.2475 14.9375 17.5 C9.83215488 16.85170221 8.64415828 15.01306361 5.578125 11.09765625 C5.05734375 10.40542969 4.5365625 9.71320313 4 9 C3.195625 8.0925 2.39125 7.185 1.5625 6.25 C0 4 0 4 0 0 Z " fill="#002E4E" transform="translate(69,190)"/>
<path d="M0 0 C0.66 0 1.32 0 2 0 C4.25180172 6.75540515 2.65772586 11.33774387 0.15625 17.734375 C-2.06566653 24.0097879 -3.47303496 30.52664288 -5 37 C-5.99 37 -6.98 37 -8 37 C-11.29182278 31.78794727 -12.13426297 27.00976428 -11 21 C-9.74620311 18.62196524 -8.28802884 16.59262366 -6.66796875 14.44921875 C-3.65280283 10.02179713 -1.90519662 4.98217347 0 0 Z " fill="#65CBF5" transform="translate(97,71)"/>
<path d="M0 0 C1.28615762 2.57231524 0.84453383 3.65171847 0.29296875 6.453125 C0.11926758 7.37279053 -0.05443359 8.29245605 -0.23339844 9.23999023 C-0.42450195 10.23329346 -0.61560547 11.22659668 -0.8125 12.25 C-2.94222973 23.79031259 -4.15078525 35.30258465 -5 47 C-7.31 47 -9.62 47 -12 47 C-7.63093623 7.63093623 -7.63093623 7.63093623 0 0 Z " fill="#00416B" transform="translate(37,209)"/>
<path d="M0 0 C3.3 0.33 6.6 0.66 10 1 C10.33 2.32 10.66 3.64 11 5 C8.36 5.33 5.72 5.66 3 6 C5.64 6.66 8.28 7.32 11 8 C11 8.99 11 9.98 11 11 C9.02 11.99 9.02 11.99 7 13 C8.65 13 10.3 13 12 13 C13.72107623 22.73004484 13.72107623 22.73004484 11.953125 25.84375 C10.5625 27.1875 10.5625 27.1875 8 29 C7.67 26.36 7.34 23.72 7 21 C6.34 21 5.68 21 5 21 C1.24145567 14.07728579 0.26489076 7.827522 0 0 Z " fill="#0069A9" transform="translate(92,50)"/>
<path d="M0 0 C1.875 1.5 1.875 1.5 3 3 C0.69 3.33 -1.62 3.66 -4 4 C1.95575456 4.41551776 7.15162591 3.13449977 12.9140625 1.65625 C15.72851961 1.05773254 18.13742028 0.87230128 21 1 C18.41994017 3.99358859 15.45675187 5.45566888 11.9375 7.1875 C10.87402344 7.71730469 9.81054688 8.24710938 8.71484375 8.79296875 C6 10 6 10 4 10 C3.67 10.66 3.34 11.32 3 12 C-1.54805635 12.17835515 -4.8794254 11.99785435 -9 10 C-9 7.03 -9 4.06 -9 1 C-5.72429875 -0.09190042 -3.43202271 -0.28600189 0 0 Z " fill="#0069A8" transform="translate(100,36)"/>
<path d="M0 0 C0.33 0 0.66 0 1 0 C1.12117188 0.99 1.24234375 1.98 1.3671875 3 C2.33711607 11.29438292 2.33711607 11.29438292 4.125 19.4375 C5.33330458 24.35702578 6.22644825 28.95591958 3.5 33.5 C3.005 33.995 2.51 34.49 2 35 C1.34 34.67 0.68 34.34 0 34 C0.1546875 32.5459375 0.1546875 32.5459375 0.3125 31.0625 C0.36948406 27.49387344 -0.67445572 25.77142808 -2.6875 22.875 C-5.28982963 18.62062965 -5.04645326 16.06633622 -3.9375 11.25 C-2.85193849 7.39229643 -1.54091064 3.69818553 0 0 Z " fill="#2F98D7" transform="translate(95,112)"/>
<path d="M0 0 C0.33 0 0.66 0 1 0 C1.02913821 3.5624827 1.04684529 7.12493454 1.0625 10.6875 C1.07087891 11.69490234 1.07925781 12.70230469 1.08789062 13.74023438 C1.09111328 14.71669922 1.09433594 15.69316406 1.09765625 16.69921875 C1.10289307 17.59471436 1.10812988 18.49020996 1.11352539 19.4128418 C0.99840198 22.03641759 0.58234285 24.44293053 0 27 C-0.66 27 -1.32 27 -2 27 C-3.625 25 -3.625 25 -5 23 C-7.31 23.33 -9.62 23.66 -12 24 C-11.39817789 21.14281331 -10.5468614 18.97741186 -9.00390625 16.50390625 C-8.61009766 15.86259766 -8.21628906 15.22128906 -7.81054688 14.56054688 C-7.39869141 13.90119141 -6.98683594 13.24183594 -6.5625 12.5625 C-4.01376947 8.46762014 -1.61341425 4.57574861 0 0 Z " fill="#003153" transform="translate(140,139)"/>
<path d="M0 0 C0.66 0.99 1.32 1.98 2 3 C-5.45946917 5.8273585 -12.97871061 8.43418824 -20.5378418 10.98095703 C-22.06449151 11.49710457 -23.58987423 12.01701366 -25.11401367 12.54052734 C-27.32969421 13.3012862 -29.54902975 14.05032314 -31.76953125 14.796875 C-32.79141289 15.15141754 -32.79141289 15.15141754 -33.8339386 15.51312256 C-38.65783001 17.11405666 -38.65783001 17.11405666 -42 16 C-40.96101563 15.61328125 -39.92203125 15.2265625 -38.8515625 14.828125 C-35.97118642 13.7546371 -33.09413043 12.67273059 -30.21875 11.5859375 C-27.74619933 10.65154335 -25.27105657 9.73991582 -22.78125 8.8515625 C-21.9046875 8.52929688 -21.028125 8.20703125 -20.125 7.875 C-19.36445312 7.60429687 -18.60390625 7.33359375 -17.8203125 7.0546875 C-15.83059917 6.13122831 -15.83059917 6.13122831 -15.046875 3.99609375 C-14 2 -14 2 -11.7578125 0.91796875 C-10.45457031 0.55638672 -10.45457031 0.55638672 -9.125 0.1875 C-8.26132813 -0.06644531 -7.39765625 -0.32039062 -6.5078125 -0.58203125 C-3.87964732 -1.02005878 -2.4455012 -1.03219206 0 0 Z " fill="#4CB1E5" transform="translate(136,162)"/>
<path d="M0 0 C1.38421658 3.73738475 0.44951641 5.39579702 -1 9 C-1.78305987 11.75271319 -2.45378197 14.53067416 -3.125 17.3125 C-3.30675781 18.05306641 -3.48851563 18.79363281 -3.67578125 19.55664062 C-4.1204213 21.370304 -4.56065745 23.18504608 -5 25 C-5.99 25 -6.98 25 -8 25 C-9.79624781 21.40750439 -9.71469858 17.85143124 -9 14 C-7.00495126 10.07779686 -4.57839463 6.55841793 -2 3 C-1.34 2.01 -0.68 1.02 0 0 Z " fill="#3099D7" transform="translate(97,83)"/>
<path d="M0 0 C2.31049784 1.11156304 3.97849628 2.38279702 6 4 C2.8126434 5.0624522 0.23406685 4.9566363 -3.08984375 4.90234375 C-5.08707074 4.87646763 -5.08707074 4.87646763 -7 6 C-10.24099046 7.62049523 -13.41509457 7.11949685 -17 7 C-17.66 5.68 -18.32 4.36 -19 3 C-18.37351562 2.86722656 -17.74703125 2.73445313 -17.1015625 2.59765625 C-16.28429687 2.42105469 -15.46703125 2.24445312 -14.625 2.0625 C-13.81289062 1.88847656 -13.00078125 1.71445312 -12.1640625 1.53515625 C-3.77784256 -0.53869236 -3.77784256 -0.53869236 0 0 Z " fill="#021B2D" transform="translate(128,42)"/>
<path d="M0 0 C0.99 0.33 1.98 0.66 3 1 C4.66458673 1.09308544 6.33281997 1.12996185 8 1.125 C9.299375 1.12886719 9.299375 1.12886719 10.625 1.1328125 C13.15011695 1.09594205 13.15011695 1.09594205 16 0 C15.9175 0.71542969 15.835 1.43085938 15.75 2.16796875 C16.08271713 5.93703004 17.56656131 7.46081403 20 10.3125 C20.7425 11.19550781 21.485 12.07851562 22.25 12.98828125 C22.8275 13.65214844 23.405 14.31601563 24 15 C23.67 15.66 23.34 16.32 23 17 C20.03 13.37 17.06 9.74 14 6 C13.01 6.495 13.01 6.495 12 7 C9.94140625 7.203125 9.94140625 7.203125 7.5625 7.25 C6.38880859 7.28867188 6.38880859 7.28867188 5.19140625 7.328125 C3 7 3 7 1.21484375 5.734375 C0 4 0 4 0 0 Z " fill="#0165A3" transform="translate(69,190)"/>
<path d="M0 0 C0.66 0.33 1.32 0.66 2 1 C-2.26383743 5.56131446 -6.76935792 9.54724954 -11.6875 13.375 C-12.24590576 13.81569824 -12.80431152 14.25639648 -13.37963867 14.71044922 C-16.16222348 16.84244613 -18.47223021 18.5364974 -22 19 C-22 17.68 -22 16.36 -22 15 C-19.98046875 13.359375 -19.98046875 13.359375 -17.1875 11.75 C-11.19331525 8.1612738 -5.6002693 4.17041331 0 0 Z " fill="#001829" transform="translate(185,100)"/>
<path d="M0 0 C6.70606532 4.02021773 6.70606532 4.02021773 7.75 7.5 C6.68636808 11.04543973 4.83718023 12.69066725 2 15 C1.01 15 0.02 15 -1 15 C-1.10251672 9.87416389 -1.03590199 5.05002222 0 0 Z " fill="#0069AA" transform="translate(148,49)"/>
<path d="M0 0 C-0.8309193 3.11594739 -1.51006642 5.45562935 -3.6875 7.875 C-6.94712831 9.46076512 -9.4304097 9.39662114 -13 9 C-13.66 8.01 -14.32 7.02 -15 6 C-14.360625 5.731875 -13.72125 5.46375 -13.0625 5.1875 C-10.66868314 4.11332248 -10.66868314 4.11332248 -10 1 C-6.78548731 -0.60725635 -3.56387464 -0.05748185 0 0 Z " fill="#359DD9" transform="translate(131,46)"/>
<path d="M0 0 C1.95869403 0.81163009 3.91694436 1.62433101 5.875 2.4375 C7.51082031 3.11619141 7.51082031 3.11619141 9.1796875 3.80859375 C10.80558624 4.49543463 12.42131774 5.21065887 14 6 C14.72693904 7.97888961 15.39816251 9.97954558 16 12 C14.9790625 11.566875 14.9790625 11.566875 13.9375 11.125 C10.67106907 9.87402645 7.37153877 8.92552045 4 8 C4 7.34 4 6.68 4 6 C1.03 5.01 -1.94 4.02 -5 3 C-4.01 2.67 -3.02 2.34 -2 2 C-1.34 2.33 -0.68 2.66 0 3 C0 2.01 0 1.02 0 0 Z " fill="#46AADE" transform="translate(54,171)"/>
<path d="M0 0 C4.88943755 0.544099 8.71414548 2.14016968 13 4.4375 C17.24073913 6.68286952 21.39272277 8.6023656 26 10 C26 10.99 26 11.98 26 13 C20.19115863 11.22018665 14.69062546 8.78827933 9.125 6.375 C8.15046875 5.95476562 7.1759375 5.53453125 6.171875 5.1015625 C3.78029314 4.06989974 1.38971101 3.03598716 -1 2 C-0.67 1.34 -0.34 0.68 0 0 Z " fill="#64CCFC" transform="translate(41,171)"/>
<path d="M0 0 C0.33 0 0.66 0 1 0 C0.88496731 2.5216376 0.75825223 5.0418119 0.625 7.5625 C0.5940625 8.26697266 0.563125 8.97144531 0.53125 9.69726562 C0.27047442 14.41295741 -0.54658123 18.50385496 -2 23 C-3.65 23 -5.3 23 -7 23 C-6.66226563 22.01 -6.32453125 21.02 -5.9765625 20 C-3.73451043 13.38104688 -1.53253959 6.82676725 0 0 Z " fill="#001A2C" transform="translate(247,233)"/>
<path d="M0 0 C2.52121432 0.62349358 5.04196931 1.24875361 7.5625 1.875 C8.26697266 2.04902344 8.97144531 2.22304687 9.69726562 2.40234375 C14.16024998 3.51294815 18.58487052 4.71201216 23 6 C19.16554938 7.41666895 16.26945992 6.58323054 12.375 5.625 C11.22773437 5.34914062 10.08046875 5.07328125 8.8984375 4.7890625 C6 4 6 4 4 3 C4 3.99 4 4.98 4 6 C4.66 6.66 5.32 7.32 6 8 C4.68 8.33 3.36 8.66 2 9 C-1 5.25 -1 5.25 -1 3 C-0.34 3 0.32 3 1 3 C0.67 2.01 0.34 1.02 0 0 Z " fill="#003F67" transform="translate(91,219)"/>
<path d="M0 0 C3.125 1 3.125 1 5 2 C5 2.33 5 2.66 5 3 C4.11957031 3.03738281 3.23914063 3.07476562 2.33203125 3.11328125 C1.17058594 3.17902344 0.00914063 3.24476562 -1.1875 3.3125 C-2.33605469 3.37050781 -3.48460938 3.42851563 -4.66796875 3.48828125 C-8.17577424 4.02699464 -10.10955294 5.00287051 -13 7 C-13.99 7.495 -13.99 7.495 -15 8 C-12.55097368 -0.66578544 -8.14293115 -0.67425545 0 0 Z " fill="#0064A7" transform="translate(119,81)"/>
<path d="M0 0 C-0.99209394 2.67102214 -1.99175198 4.98746301 -3.5625 7.375 C-5.31405116 10.57348473 -5.64675078 13.39685799 -6 17 C-8.49040942 14.50959058 -8.32391014 13.56845643 -8.375 10.125 C-8.31332098 6.56303656 -8.27475404 5.37549719 -6.125 2.4375 C-2.52173913 0 -2.52173913 0 0 0 Z " fill="#6CD3FA" transform="translate(94,87)"/>
<path d="M0 0 C0 2.3125 0 2.3125 -1 5 C-3.55518097 6.38293093 -6.20866129 7.21791649 -9 8 C-9.33 7.34 -9.66 6.68 -10 6 C-9.67 5.67 -9.34 5.34 -9 5 C-9.99 4.67 -10.98 4.34 -12 4 C-12 3.34 -12 2.68 -12 2 C-7.8803623 0.70756464 -4.33168317 -0.26252625 0 0 Z " fill="#0069AA" transform="translate(132,29)"/>
<path d="M0 0 C3.63 1.32 7.26 2.64 11 4 C11 4.99 11 5.98 11 7 C0.44191344 5.07289294 0.44191344 5.07289294 -4 3 C-2.68 2.67 -1.36 2.34 0 2 C0 1.34 0 0.68 0 0 Z " fill="#58BEEE" transform="translate(43,167)"/>
<path d="M0 0 C-7.11738915 6.13745876 -17.98411103 6.54950113 -27 6 C-23.88377101 3.92251401 -22.94603733 3.74955434 -19.375 3.5625 C-14.90507915 3.21012668 -11.17719092 2.16423108 -6.984375 0.6328125 C-4.59533289 -0.12904739 -2.49075543 -0.24104085 0 0 Z " fill="#002843" transform="translate(120,35)"/>
<path d="M0 0 C0.94875 0.350625 1.8975 0.70125 2.875 1.0625 C1.555 4.0325 0.235 7.0025 -1.125 10.0625 C-5.125 4.0625 -5.125 4.0625 -5.125 0.0625 C-3.125 -0.9375 -3.125 -0.9375 0 0 Z " fill="#00426B" transform="translate(79.125,179.9375)"/>
<path d="M0 0 C0.99 0.33 1.98 0.66 3 1 C0.875 3.125 0.875 3.125 -2 5 C-5.57195286 4.29961709 -7.42284442 3.57715558 -10 1 C-10 0.34 -10 -0.32 -10 -1 C-5.90837983 -2.16903433 -3.81753477 -1.80830594 0 0 Z " fill="#0065A3" transform="translate(123,33)"/>
<path d="M0 0 C4.29 0.33 8.58 0.66 13 1 C9 5 9 5 5.9375 5.5625 C4.968125 5.376875 3.99875 5.19125 3 5 C2.01 3.35 1.02 1.7 0 0 Z " fill="#01192C" transform="translate(70,191)"/>
<path d="M0 0 C4.875 3.75 4.875 3.75 6 6 C6.46829268 13.37560976 6.46829268 13.37560976 4.5 16 C4.005 16.33 3.51 16.66 3 17 C2.34 16.67 1.68 16.34 1 16 C1.66 15.01 2.32 14.02 3 13 C3.70157408 7.73819436 2.15921695 5.14647225 -1 1 C-0.67 0.67 -0.34 0.34 0 0 Z " fill="#6CD2F0" transform="translate(157,110)"/>
<path d="M0 0 C3.5742977 0.32493615 5.55712453 0.63870686 8.375 2.9375 C10 5 10 5 10 7 C7.29068581 6.84518205 5.53415961 6.51827919 3.5546875 4.59765625 C2.32320358 3.10228292 1.1570163 1.5537076 0 0 Z " fill="#005990" transform="translate(82,215)"/>
<path d="M0 0 C1.32 1.32 2.64 2.64 4 4 C1.01353231 5.99097846 -1.59687262 6.94124926 -5 8 C-1.125 1.125 -1.125 1.125 0 0 Z " fill="#00406D" transform="translate(157,113)"/>
<path d="M0 0 C0.66 0.66 1.32 1.32 2 2 C-2.29 6.29 -6.58 10.58 -11 15 C-11.66 14.67 -12.32 14.34 -13 14 C-12.319375 13.319375 -11.63875 12.63875 -10.9375 11.9375 C-10.48761719 11.48632812 -10.03773438 11.03515625 -9.57421875 10.5703125 C-8.43607014 9.43498808 -7.29208825 8.30550131 -6.14453125 7.1796875 C-5.51933594 6.56351562 -4.89414063 5.94734375 -4.25 5.3125 C-3.65703125 4.73113281 -3.0640625 4.14976563 -2.453125 3.55078125 C-0.90358196 2.04486026 -0.90358196 2.04486026 0 0 Z " fill="#021324" transform="translate(170,90)"/>
<path d="M0 0 C1.72262035 2.99407823 2.27306023 5.17749593 2.25 8.625 C2.25515625 9.40101563 2.2603125 10.17703125 2.265625 10.9765625 C2 13 2 13 0 15 C-0.33 14.67 -0.66 14.34 -1 14 C-0.90968426 11.64305046 -0.75311872 9.28846418 -0.5625 6.9375 C-0.46066406 5.64714844 -0.35882813 4.35679687 -0.25390625 3.02734375 C-0.17011719 2.02832031 -0.08632812 1.02929688 0 0 Z " fill="#003356" transform="translate(91,160)"/>
<path d="M0 0 C-2.61194353 2.50746579 -3.94541478 2.99435325 -7.625 3.375 C-8.73875 3.25125 -9.8525 3.1275 -11 3 C-11.66 2.01 -12.32 1.02 -13 0 C-11.906875 0.020625 -10.81375 0.04125 -9.6875 0.0625 C-0.29032258 -0.09677419 -0.29032258 -0.09677419 0 0 Z " fill="#021728" transform="translate(129,52)"/>
<path d="M0 0 C2.31 0.66 4.62 1.32 7 2 C7.33 3.32 7.66 4.64 8 6 C2.25 4.125 2.25 4.125 0 3 C0 2.01 0 1.02 0 0 Z " fill="#62C9F5" transform="translate(55,172)"/>
<path d="M0 0 C0.99 0.99 1.98 1.98 3 3 C-2.75 6.875 -2.75 6.875 -5 8 C-3.375 2.25 -3.375 2.25 0 0 Z " fill="#096EAE" transform="translate(109,81)"/>
<path d="M0 0 C0.33 0 0.66 0 1 0 C1.268125 1.11375 1.53625 2.2275 1.8125 3.375 C2.65809019 7.21840951 2.65809019 7.21840951 6 9 C4.02 9 2.04 9 0 9 C-1.125 7.3125 -1.125 7.3125 -2 5 C-1.125 2.25 -1.125 2.25 0 0 Z " fill="#62C3DC" transform="translate(126,141)"/>
<path d="M0 0 C2.09749995 2.35968744 2.96905704 3.54616994 3.1875 6.75 C3.0946875 7.86375 3.0946875 7.86375 3 9 C2.01 8.67 1.02 8.34 0 8 C0 5.36 0 2.72 0 0 Z " fill="#031324" transform="translate(171,81)"/>
<path d="M0 0 C0.33 0 0.66 0 1 0 C1.103125 1.11375 1.20625 2.2275 1.3125 3.375 C1.539375 4.57125 1.76625 5.7675 2 7 C2.99 7.66 3.98 8.32 5 9 C4.360625 9.12375 3.72125 9.2475 3.0625 9.375 C2.381875 9.58125 1.70125 9.7875 1 10 C0.67 10.66 0.34 11.32 0 12 C0 8.04 0 4.08 0 0 Z " fill="#00395D" transform="translate(73,170)"/>
<path d="M0 0 C0.8353125 0.37125 0.8353125 0.37125 1.6875 0.75 C1.6875 1.41 1.6875 2.07 1.6875 2.75 C-2.7675 3.245 -2.7675 3.245 -7.3125 3.75 C-2.88173077 -0.31153846 -2.88173077 -0.31153846 0 0 Z " fill="#006CAF" transform="translate(70.3125,211.25)"/>
<path d="M0 0 C1.65 0.33 3.3 0.66 5 1 C5 1.99 5 2.98 5 4 C2.69 3.67 0.38 3.34 -2 3 C-1.34 2.01 -0.68 1.02 0 0 Z " fill="#5DC5F4" transform="translate(49,170)"/>
<path d="M0 0 C2.0625 0.4375 2.0625 0.4375 4 1 C3.34 2.98 2.68 4.96 2 7 C0 4 0 4 -1 1 C-0.67 0.67 -0.34 0.34 0 0 Z " fill="#075585" transform="translate(76,183)"/>
<path d="M0 0 C0.66 0 1.32 0 2 0 C2.33 2.97 2.66 5.94 3 9 C0 6 0 6 -0.1875 2.8125 C-0.125625 1.884375 -0.06375 0.95625 0 0 Z " fill="#001F34" transform="translate(174,162)"/>
<path d="M0 0 C0.33 0 0.66 0 1 0 C1.25 6.625 1.25 6.625 -1 10 C-1.66 9.34 -2.32 8.68 -3 8 C-2.01 5.36 -1.02 2.72 0 0 Z " fill="#112836" transform="translate(137,117)"/>
<path d="M0 0 C-2.05233685 2.2477975 -3.00667261 3.0022242 -6 4 C-6.66 3.01 -7.32 2.02 -8 1 C-5.07175348 0.02391783 -3.04386724 -0.08226668 0 0 Z " fill="#026CAE" transform="translate(121,37)"/>
<path d="M0 0 C-1.65 1.32 -3.3 2.64 -5 4 C-6.32 3.34 -7.64 2.68 -9 2 C-8.01 2 -7.02 2 -6 2 C-6 1.34 -6 0.68 -6 0 C-3 -1 -3 -1 0 0 Z " fill="#004C7C" transform="translate(126,34)"/>
</svg>
